NotoSans-Thin (Autosaved).glyphspackage
{
glyphname = exclam;
layers = (
{
layerId = m01;
shapes = (
{
closed = 1;
nodes = (
(98,714,l),
(100,174,l),
(125,174,l),
(127,714,l)
);
},
{
closed = 1;
nodes = (
(95,-8,o),
(110,-8,qs),
(128,-8,o),
(137,10,o),
(137,23,qs),
(137,35,o),
(128,54,o),
(110,54,qs),
(95,54,o),
(85,35,o),
(85,23,qs),
(85,10,o)
);
}
);
width = 223;
}
);
note = exclam;
unicode = 33;
}
{
glyphname = quotedbl;
kernLeft = quotedbl;
kernRight = quotedbl;
layers = (
{
layerId = m01;
shapes = (
{
closed = 1;
nodes = (
(77,456,l),
(97,456,l),
(101,714,l),
(73,714,l)
);
},
{
closed = 1;
nodes = (
(223,456,l),
(243,456,l),
(247,714,l),
(219,714,l)
);
}
);
width = 320;
}
);
note = quotedbl;
unicode = 34;
}
{
glyphname = numbersign;
layers = (
{
layerId = m01;
shapes = (
{
closed = 1;
nodes = (
(618,486,l),
(471,486,l),
(515,714,l),
(490,714,l),
(446,486,l),
(247,486,l),
(291,714,l),
(266,714,l),
(222,486,l),
(67,486,l),
(67,462,l),
(218,462,l),
(177,251,l),
(28,251,l),
(28,227,l),
(173,227,l),
(129,0,l),
(154,0,l),
(198,227,l),
(397,227,l),
(353,0,l),
(378,0,l),
(422,227,l),
(579,227,l),
(579,251,l),
(426,251,l),
(467,462,l),
(618,462,l)
);
},
{
closed = 1;
nodes = (
(442,462,l),
(401,251,l),
(202,251,l),
(243,462,l)
);
}
);
width = 646;
}
);
note = numbersign;
unicode = 35;
}
{
glyphname = dollar;
layers = (
{
layerId = m01;
shapes = (
{
closed = 1;
nodes = (
(277,-58,l),
(277,10,l),
(360,15,o),
(469,101,o),
(469,186,qs),
(469,239,o),
(420,305,o),
(333,350,o),
(277,370,q),
(277,679,l),
(309,678,o),
(386,663,o),
(428,644,q),
(439,667,l),
(399,686,o),
(317,703,o),
(277,704,q),
(277,759,l),
(253,759,l),
(253,704,l),
(199,701,o),
(114,661,o),
(64,589,o),
(64,536,qs),
(64,482,o),
(116,416,o),
(202,373,o),
(253,353,q),
(253,35,l),
(198,36,o),
(102,55,o),
(67,68,q),
(67,39,l),
(99,29,o),
(190,11,o),
(253,10,q),
(253,-58,l)
);
},
{
closed = 1;
nodes = (
(211,395,o),
(137,433,o),
(91,492,o),
(91,538,qs),
(91,584,o),
(135,645,o),
(208,677,o),
(253,679,q),
(253,379,l)
);
},
{
closed = 1;
nodes = (
(328,324,o),
(402,284,o),
(442,229,o),
(442,187,qs),
(442,112,o),
(348,39,o),
(277,35,q),
(277,343,l)
);
}
);
width = 570;
}
);
note = dollar;
unicode = 36;
}
{
glyphname = percent;
layers = (
{
layerId = m01;
shapes = (
{
closed = 1;
nodes = (
(59,612,o),
(59,501,qs),
(59,390,o),
(129,276,o),
(195,276,qs),
(260,276,o),
(333,388,o),
(333,501,qs),
(333,610,o),
(266,724,o),
(197,724,qs),
(133,724,o)
);
},
{
closed = 1;
nodes = (
(185,0,l),
(213,0,l),
(609,714,l),
(581,714,l)
);
},
{
closed = 1;
nodes = (
(306,597,o),
(306,501,qs),
(306,404,o),
(251,301,o),
(195,301,qs),
(143,301,o),
(86,402,o),
(86,501,qs),
(86,601,o),
(145,699,o),
(197,699,qs),
(254,699,o)
);
},
{
closed = 1;
nodes = (
(460,326,o),
(460,215,qs),
(460,104,o),
(530,-10,o),
(596,-10,qs),
(661,-10,o),
(734,102,o),
(734,215,qs),
(734,324,o),
(667,438,o),
(598,438,qs),
(534,438,o)
);
},
{
closed = 1;
nodes = (
(707,311,o),
(707,215,qs),
(707,118,o),
(652,15,o),
(596,15,qs),
(544,15,o),
(487,116,o),
(487,215,qs),
(487,315,o),
(546,413,o),
(598,413,qs),
(655,413,o)
);
}
);
width = 793;
}
);
note = percent;
unicode = 37;
}
{
glyphname = ampersand;
layers = (
{
layerId = m01;
shapes = (
{
closed = 1;
nodes = (
(139,644,o),
(139,576,qs),
(139,542,o),
(163,486,o),
(211,430,o),
(246,395,q),
(188,367,o),
(106,310,o),
(63,235,o),
(63,179,qs),
(63,88,o),
(185,-10,o),
(281,-10,qs),
(370,-10,o),
(487,55,o),
(533,105,q),
(632,0,l),
(667,0,l),
(549,122,l),
(583,166,o),
(635,267,o),
(649,328,q),
(622,328,l),
(610,273,o),
(562,177,o),
(532,141,q),
(289,388,l),
(367,426,o),
(460,512,o),
(460,581,qs),
(460,648,o),
(372,725,o),
(304,725,qs),
(231,725,o)
);
},
{
closed = 1;
nodes = (
(433,637,o),
(433,581,qs),
(433,520,o),
(345,439,o),
(269,406,q),
(220,456,o),
(166,530,o),
(166,576,qs),
(166,633,o),
(240,700,o),
(304,700,qs),
(363,700,o)
);
},
{
closed = 1;
nodes = (
(470,73,o),
(364,15,o),
(281,15,qs),
(196,15,o),
(90,100,o),
(90,179,qs),
(90,231,o),
(130,299,o),
(208,351,o),
(264,377,q),
(516,122,l)
);
}
);
width = 702;
}
);
note = ampersand;
unicode = 38;
}
{
glyphname = quotesingle;
kernLeft = quotedbl;
kernRight = quotedbl;
layers = (
{
layerId = m01;
shapes = (
{
closed = 1;
nodes = (
(77,456,l),
(97,456,l),
(101,714,l),
(73,714,l)
);
}
);
width = 172;
}
);
note = quotesingle;
unicode = 39;
}
{
glyphname = parenleft;
layers = (
{
layerId = m01;
shapes = (
{
closed = 1;
nodes = (
(119,-74,o),
(187,-158,q),
(220,-158,l),
(144,-69,o),
(69,151,o),
(69,275,qs),
(69,401,o),
(143,626,o),
(220,714,q),
(187,714,l),
(119,633,o),
(42,407,o),
(42,274,qs),
(42,143,o)
);
}
);
width = 255;
}
);
note = parenleft;
unicode = 40;
}
{
glyphname = parenright;
kernLeft = parenright;
layers = (
{
layerId = m01;
shapes = (
{
closed = 1;
nodes = (
(137,630,o),
(69,714,q),
(36,714,l),
(112,625,o),
(187,406,o),
(187,281,qs),
(187,155,o),
(113,-69,o),
(36,-158,q),
(69,-158,l),
(137,-77,o),
(214,149,o),
(214,282,qs),
(214,413,o)
);
}
);
width = 255;
}
);
note = parenright;
unicode = 41;
}
{
glyphname = asterisk;
layers = (
{
layerId = m01;
shapes = (
{
closed = 1;
nodes = (
(265,552,l),
(71,621,l),
(62,594,l),
(260,537,l),
(135,374,l),
(158,358,l),
(273,527,l),
(389,357,l),
(412,374,l),
(287,537,l),
(483,594,l),
(475,621,l),
(281,552,l),
(287,758,l),
(259,758,l)
);
}
);
width = 551;
}
);
note = asterisk;
unicode = 42;
}
{
glyphname = plus;
layers = (
{
layerId = m01;
shapes = (
{
closed = 1;
nodes = (
(273,583,l),
(273,365,l),
(55,365,l),
(55,341,l),
(273,341,l),
(273,123,l),
(297,123,l),
(297,341,l),
(515,341,l),
(515,365,l),
(297,365,l),
(297,583,l)
);
}
);
width = 570;
}
);
note = plus;
unicode = 43;
}
{
glyphname = comma;
kernLeft = comma;
kernRight = comma;
layers = (
{
layerId = m01;
shapes = (
{
closed = 1;
nodes = (
(94,116,l),
(86,59,o),
(60,-56,o),
(38,-129,q),
(60,-129,l),
(81,-77,o),
(114,49,o),
(125,104,q),
(122,116,l)
);
}
);
width = 183;
}
);
note = comma;
unicode = 44;
}
{
glyphname = hyphen;
kernLeft = hyphen;
kernRight = hyphen;
layers = (
{
layerId = m01;
shapes = (
{
closed = 1;
nodes = (
(282,284,l),
(40,284,l),
(40,259,l),
(282,259,l)
);
}
);
width = 322;
}
);
note = hyphen;
unicode = 45;
}
{
glyphname = period;
kernLeft = comma;
kernRight = comma;
layers = (
{
layerId = m01;
shapes = (
{
closed = 1;
nodes = (
(95,-8,o),
(110,-8,qs),
(128,-8,o),
(137,10,o),
(137,23,qs),
(137,35,o),
(128,54,o),
(110,54,qs),
(95,54,o),
(85,35,o),
(85,23,qs),
(85,10,o)
);
}
);
width = 220;
}
);
note = period;
unicode = 46;
}
{
glyphname = slash;
layers = (
{
layerId = m01;
shapes = (
{
closed = 1;
nodes = (
(13,0,l),
(41,0,l),
(309,714,l),
(281,714,l)
);
}
);
width = 322;
}
);
note = slash;
unicode = (47,8725);
}
{
glyphname = zero;
layers = (
{
layerId = m01;
shapes = (
{
closed = 1;
nodes = (
(467,632,o),
(371,725,o),
(286,725,qs),
(204,725,o),
(105,629,o),
(62,464,o),
(62,360,qs),
(62,172,o),
(179,-10,o),
(285,-10,qs),
(507,-10,o),
(507,360,qs),
(507,467,o)
);
},
{
closed = 1;
nodes = (
(125,612,o),
(211,700,o),
(286,700,qs),
(363,700,o),
(447,615,o),
(480,462,o),
(480,360,qs),
(480,185,o),
(388,15,o),
(285,15,qs),
(188,15,o),
(89,184,o),
(89,360,qs),
(89,459,o)
);
}
);
width = 570;
}
);
note = zero;
unicode = 48;
}
{
glyphname = one;
layers = (
{
layerId = m01;
shapes = (
{
closed = 1;
nodes = (
(297,714,l),
(102,572,l),
(118,551,l),
(241,642,ls),
(260,656,o),
(283,675,o),
(295,685,q),
(294,665,o),
(294,606,o),
(294,563,qs),
(294,0,l),
(320,0,l),
(320,714,l)
);
}
);
width = 570;
}
);
note = one;
unicode = 49;
}
{
glyphname = two;
layers = (
{
layerId = m01;
shapes = (
{
closed = 1;
nodes = (
(95,25,l),
(95,26,l),
(303,246,ls),
(352,297,o),
(421,385,o),
(458,479,o),
(458,539,qs),
(458,594,o),
(411,677,o),
(325,724,o),
(268,724,qs),
(225,724,o),
(126,693,o),
(80,655,q),
(95,635,l),
(135,667,o),
(225,699,o),
(268,699,qs),
(345,699,o),
(431,614,o),
(431,539,qs),
(431,484,o),
(397,396,o),
(332,311,o),
(283,260,qs),
(59,23,l),
(59,0,l),
(491,0,l),
(491,25,l)
);
}
);
width = 570;
}
);
note = two;
unicode = 50;
}
{
glyphname = three;
layers = (
{
layerId = m01;
shapes = (
{
closed = 1;
nodes = (
(361,724,o),
(273,724,qs),
(207,724,o),
(99,684,o),
(55,650,q),
(69,629,l),
(118,664,o),
(217,699,o),
(273,699,qs),
(350,699,o),
(443,626,o),
(443,551,qs),
(443,493,o),
(385,419,o),
(292,384,o),
(239,384,qs),
(156,384,l),
(156,359,l),
(239,359,ls),
(306,359,o),
(407,327,o),
(465,254,o),
(465,194,qs),
(465,112,o),
(355,15,o),
(247,15,qs),
(192,15,o),
(85,41,o),
(47,60,q),
(47,32,l),
(85,14,o),
(188,-10,o),
(247,-10,qs),
(367,-10,o),
(492,105,o),
(492,194,qs),
(492,274,o),
(401,362,o),
(318,373,q),
(318,375,l),
(383,386,o),
(470,481,o),
(470,551,qs),
(470,634,o)
);
}
);
width = 570;
}
);
note = three;
unicode = 51;
}
{
glyphname = four;
layers = (
{
layerId = m01;
shapes = (
{
closed = 1;
nodes = (
(426,219,l),
(426,718,l),
(398,718,l),
(25,212,l),
(25,194,l),
(400,194,l),
(400,0,l),
(426,0,l),
(426,194,l),
(560,194,l),
(560,219,l)
);
},
{
closed = 1;
nodes = (
(60,219,l),
(335,592,ls),
(358,623,o),
(382,659,o),
(399,686,q),
(401,686,l),
(401,661,o),
(400,620,o),
(400,567,o),
(400,524,qs),
(400,219,l)
);
}
);
width = 570;
}
);
note = four;
unicode = 52;
}
{
glyphname = five;
layers = (
{
layerId = m01;
shapes = (
{
closed = 1;
nodes = (
(151,412,o),
(126,406,q),
(151,689,l),
(462,689,l),
(462,714,l),
(128,714,l),
(98,393,l),
(117,378,l),
(154,389,o),
(228,401,o),
(274,401,qs),
(375,401,o),
(478,303,o),
(478,217,qs),
(478,122,o),
(355,15,o),
(253,15,qs),
(198,15,o),
(108,42,o),
(74,62,q),
(74,32,l),
(106,14,o),
(196,-10,o),
(253,-10,qs),
(328,-10,o),
(442,45,o),
(505,147,o),
(505,217,qs),
(505,318,o),
(381,426,o),
(274,426,qs),
(223,426,o)
);
}
);
width = 570;
}
);
note = five;
unicode = 53;
}
{
glyphname = six;
layers = (
{
layerId = m01;
shapes = (
{
closed = 1;
nodes = (
(93,134,o),
(147,44,o),
(236,-10,o),
(299,-10,qs),
(367,-10,o),
(463,50,o),
(513,156,o),
(513,225,qs),
(513,323,o),
(403,439,o),
(304,439,qs),
(247,439,o),
(162,404,o),
(108,350,o),
(95,322,q),
(93,322,l),
(96,458,o),
(167,624,o),
(288,701,o),
(367,701,qs),
(397,701,o),
(447,693,o),
(465,686,q),
(465,713,l),
(445,719,o),
(397,726,o),
(367,726,qs),
(282,726,o),
(146,642,o),
(68,456,o),
(68,303,qs),
(68,246,o)
);
},
{
closed = 1;
nodes = (
(160,67,o),
(117,146,o),
(100,228,o),
(100,258,qs),
(100,292,o),
(149,364,o),
(241,414,o),
(304,414,qs),
(396,414,o),
(486,313,o),
(486,225,qs),
(486,128,o),
(390,15,o),
(299,15,qs),
(238,15,o)
);
}
);
width = 570;
}
);
note = six;
unicode = 54;
}
{
glyphname = seven;
layers = (
{
layerId = m01;
shapes = (
{
closed = 1;
nodes = (
(510,697,l),
(510,714,l),
(58,714,l),
(58,689,l),
(480,689,l),
(183,0,l),
(212,0,l)
);
}
);
width = 570;
}
);
note = seven;
unicode = 55;
}
{
glyphname = nine;
layers = (
{
layerId = m01;
shapes = (
{
closed = 1;
nodes = (
(476,582,o),
(422,671,o),
(334,724,o),
(269,724,qs),
(201,724,o),
(105,665,o),
(55,560,o),
(55,491,qs),
(55,393,o),
(163,275,o),
(262,275,qs),
(320,275,o),
(405,311,o),
(460,366,o),
(473,394,q),
(475,394,l),
(472,259,o),
(401,91,o),
(279,13,o),
(201,13,qs),
(170,13,o),
(111,22,o),
(93,29,q),
(93,1,l),
(113,-5,o),
(172,-12,o),
(201,-12,qs),
(287,-12,o),
(422,73,o),
(500,260,o),
(500,413,qs),
(500,471,o)
);
},
{
closed = 1;
nodes = (
(408,647,o),
(451,569,o),
(468,487,o),
(468,458,qs),
(468,424,o),
(418,351,o),
(327,300,o),
(264,300,qs),
(173,300,o),
(82,403,o),
(82,491,qs),
(82,588,o),
(178,699,o),
(269,699,qs),
(330,699,o)
);
}
);
width = 570;
}
);
note = nine;
unicode = 57;
}
{
glyphname = colon;
layers = (
{
layerId = m01;
shapes = (
{
closed = 1;
nodes = (
(95,470,o),
(110,470,qs),
(128,470,o),
(137,488,o),
(137,501,qs),
(137,513,o),
(128,532,o),
(110,532,qs),
(95,532,o),
(85,513,o),
(85,501,qs),
(85,488,o)
);
},
{
closed = 1;
nodes = (
(95,-8,o),
(110,-8,qs),
(128,-8,o),
(137,10,o),
(137,23,qs),
(137,35,o),
(128,54,o),
(110,54,qs),
(95,54,o),
(85,35,o),
(85,23,qs),
(85,10,o)
);
}
);
width = 220;
}
);
note = colon;
unicode = 58;
}
{
glyphname = semicolon;
layers = (
{
layerId = m01;
shapes = (
{
closed = 1;
nodes = (
(95,470,o),
(110,470,qs),
(128,470,o),
(137,488,o),
(137,501,qs),
(137,513,o),
(128,532,o),
(110,532,qs),
(95,532,o),
(85,513,o),
(85,501,qs),
(85,488,o)
);
},
{
closed = 1;
nodes = (
(94,116,l),
(86,59,o),
(60,-56,o),
(38,-129,q),
(60,-129,l),
(81,-77,o),
(114,49,o),
(125,104,q),
(122,116,l)
);
}
);
width = 220;
}
);
note = semicolon;
unicode = 59;
}
{
glyphname = less;
layers = (
{
layerId = m01;
shapes = (
{
closed = 1;
nodes = (
(91,362,l),
(514,560,l),
(514,586,l),
(56,371,l),
(56,353,l),
(514,138,l),
(514,164,l)
);
}
);
width = 570;
}
);
note = less;
unicode = 60;
}
{
glyphname = equal;
layers = (
{
layerId = m01;
shapes = (
{
closed = 1;
nodes = (
(515,467,l),
(55,467,l),
(55,443,l),
(515,443,l)
);
},
{
closed = 1;
nodes = (
(515,263,l),
(55,263,l),
(55,239,l),
(515,239,l)
);
}
);
width = 570;
}
);
note = equal;
unicode = 61;
}
{
glyphname = greater;
layers = (
{
layerId = m01;
shapes = (
{
closed = 1;
nodes = (
(514,353,l),
(514,371,l),
(56,586,l),
(56,560,l),
(479,362,l),
(56,164,l),
(56,138,l)
);
}
);
width = 570;
}
);
note = greater;
unicode = 62;
}
{
glyphname = question;
layers = (
{
layerId = m01;
shapes = (
{
closed = 1;
nodes = (
(169,174,l),
(169,186,ls),
(169,254,o),
(203,323,o),
(242,350,qs),
(282,378,o),
(341,433,o),
(374,504,o),
(374,554,qs),
(374,640,o),
(272,724,o),
(188,724,qs),
(148,724,o),
(82,709,o),
(38,691,q),
(48,665,l),
(84,683,o),
(151,699,o),
(188,699,qs),
(258,699,o),
(347,629,o),
(347,554,qs),
(347,508,o),
(318,446,o),
(265,397,o),
(229,371,qs),
(195,347,o),
(158,299,o),
(144,236,o),
(144,186,qs),
(144,174,l)
);
},
{
closed = 1;
nodes = (
(143,-8,o),
(158,-8,qs),
(176,-8,o),
(185,10,o),
(185,23,qs),
(185,35,o),
(176,54,o),
(158,54,qs),
(143,54,o),
(133,35,o),
(133,23,qs),
(133,10,o)
);
}
);
width = 413;
}
);
note = question;
unicode = 63;
}
{
glyphname = at;
layers = (
{
layerId = m01;
shapes = (
{
closed = 1;
nodes = (
(739,619,o),
(579,706,o),
(467,706,qs),
(345,706,o),
(157,608,o),
(52,420,o),
(52,284,qs),
(52,167,o),
(140,-6,o),
(302,-100,o),
(414,-100,qs),
(471,-100,o),
(573,-80,o),
(616,-62,q),
(616,-34,l),
(568,-54,o),
(464,-75,o),
(414,-75,qs),
(309,-75,o),
(159,12,o),
(79,173,o),
(79,284,qs),
(79,412,o),
(178,589,o),
(354,681,o),
(467,681,qs),
(575,681,o),
(723,599,o),
(799,450,o),
(799,351,qs),
(799,287,o),
(772,188,o),
(715,132,o),
(670,132,qs),
(624,132,o),
(587,192,o),
(587,246,qs),
(587,272,o),
(590,323,o),
(591,341,qs),
(598,486,l),
(570,496,o),
(506,506,o),
(470,506,qs),
(407,506,o),
(312,448,o),
(258,348,o),
(258,284,qs),
(258,198,o),
(338,107,o),
(411,107,qs),
(459,107,o),
(543,156,o),
(565,212,q),
(566,212,l),
(568,161,o),
(625,107,o),
(670,107,qs),
(723,107,o),
(792,172,o),
(826,283,o),
(826,351,qs),
(826,460,o)
);
},
{
closed = 1;
nodes = (
(388,481,o),
(470,481,qs),
(529,481,o),
(572,466,q),
(564,316,ls),
(559,221,o),
(481,132,o),
(411,132,qs),
(347,132,o),
(285,212,o),
(285,284,qs),
(285,375,o)
);
}
);
width = 878;
}
);
note = at;
unicode = 64;
}
{
glyphname = A;
kernLeft = A;
kernRight = A;
layers = (
{
layerId = m01;
shapes = (
{
closed = 1;
nodes = (
(307,716,l),
(282,716,l),
(0,0,l),
(28,0,l),
(135,271,l),
(445,271,l),
(549,0,l),
(577,0,l)
);
},
{
closed = 1;
nodes = (
(144,296,l),
(260,593,ls),
(268,613,o),
(286,660,o),
(293,682,q),
(303,654,o),
(319,611,o),
(325,594,qs),
(435,296,l)
);
}
);
width = 577;
}
);
note = A;
unicode = 65;
}
{
glyphname = B;
layers = (
{
layerId = m01;
shapes = (
{
closed = 1;
nodes = (
(103,0,l),
(303,0,ls),
(376,0,o),
(491,40,o),
(557,130,o),
(557,203,qs),
(557,271,o),
(487,362,o),
(398,375,q),
(398,377,l),
(467,389,o),
(539,481,o),
(539,542,qs),
(539,628,o),
(425,714,o),
(294,714,qs),
(103,714,l)
);
},
{
closed = 1;
nodes = (
(129,689,l),
(291,689,ls),
(407,689,o),
(512,620,o),
(512,541,qs),
(512,388,o),
(303,388,qs),
(129,388,l)
);
},
{
closed = 1;
nodes = (
(372,363,o),
(475,334,o),
(530,264,o),
(530,202,qs),
(530,110,o),
(413,25,o),
(311,25,qs),
(129,25,l),
(129,363,l),
(300,363,ls)
);
}
);
width = 613;
}
);
note = B;
unicode = 66;
}
{
glyphname = D;
kernRight = D;
layers = (
{
layerId = m01;
shapes = (
{
closed = 1;
nodes = (
(457,714,o),
(280,714,qs),
(103,714,l),
(103,0,l),
(257,0,ls),
(445,0,o),
(628,185,o),
(628,364,qs),
(628,534,o)
);
},
{
closed = 1;
nodes = (
(260,25,qs),
(129,25,l),
(129,689,l),
(270,689,ls),
(444,689,o),
(601,522,o),
(601,363,qs),
(601,25,o)
);
}
);
width = 692;
}
);
note = D;
unicode = 68;
}
{
glyphname = E;
kernRight = E;
layers = (
{
layerId = m01;
shapes = (
{
closed = 1;
nodes = (
(129,25,l),
(129,364,l),
(468,364,l),
(468,389,l),
(129,389,l),
(129,689,l),
(488,689,l),
(488,714,l),
(103,714,l),
(103,0,l),
(488,0,l),
(488,25,l)
);
}
);
width = 550;
}
);
note = E;
unicode = 69;
}
{
glyphname = F;
layers = (
{
layerId = m01;
shapes = (
{
closed = 1;
nodes = (
(470,329,l),
(470,354,l),
(129,354,l),
(129,689,l),
(489,689,l),
(489,714,l),
(103,714,l),
(103,0,l),
(129,0,l),
(129,329,l)
);
}
);
width = 492;
}
);
note = F;
unicode = 70;
}
{
glyphname = G;
kernLeft = C;
layers = (
{
layerId = m01;
shapes = (
{
closed = 1;
nodes = (
(613,325,l),
(613,50,l),
(574,34,o),
(477,15,o),
(419,15,qs),
(319,15,o),
(171,85,o),
(90,235,o),
(90,356,qs),
(90,455,o),
(170,611,o),
(320,701,o),
(423,701,qs),
(471,701,o),
(568,682,o),
(619,657,q),
(631,682,l),
(584,705,o),
(481,726,o),
(424,726,qs),
(312,726,o),
(150,628,o),
(63,461,o),
(63,355,qs),
(63,180,o),
(244,-10,o),
(417,-10,qs),
(476,-10,o),
(591,13,o),
(639,36,q),
(639,350,l),
(367,350,l),
(367,325,l)
);
}
);
width = 720;
}
);
note = G;
unicode = 71;
}
{
glyphname = H;
layers = (
{
layerId = m01;
shapes = (
{
closed = 1;
nodes = (
(577,714,l),
(577,388,l),
(129,388,l),
(129,714,l),
(103,714,l),
(103,0,l),
(129,0,l),
(129,363,l),
(577,363,l),
(577,0,l),
(603,0,l),
(603,714,l)
);
}
);
width = 706;
}
);
note = H;
unicode = 72;
}
{
glyphname = I;
layers = (
{
layerId = m01;
shapes = (
{
closed = 1;
nodes = (
(155,23,l),
(155,690,l),
(223,694,l),
(223,714,l),
(61,714,l),
(61,694,l),
(129,690,l),
(129,23,l),
(61,20,l),
(61,0,l),
(223,0,l),
(223,20,l)
);
}
);
width = 283;
}
);
note = I;
unicode = 73;
}
{
glyphname = J;
layers = (
{
layerId = m01;
shapes = (
{
closed = 1;
nodes = (
(103,-127,o),
(132,-47,o),
(132,2,qs),
(132,714,l),
(106,714,l),
(106,5,ls),
(106,-63,o),
(53,-148,o),
(-19,-148,qs),
(-42,-148,o),
(-84,-140,o),
(-98,-134,q),
(-98,-162,l),
(-85,-166,o),
(-47,-174,o),
(-19,-174,qs),
(37,-174,o)
);
}
);
width = 231;
}
);
note = J;
unicode = 74;
}
{
glyphname = K;
kernRight = K;
layers = (
{
layerId = m01;
shapes = (
{
closed = 1;
nodes = (
(552,714,l),
(514,714,l),
(179,376,ls),
(166,363,o),
(140,337,o),
(129,324,q),
(129,714,l),
(103,714,l),
(103,0,l),
(129,0,l),
(129,293,l),
(234,398,l),
(524,0,l),
(558,0,l),
(254,417,l)
);
}
);
width = 558;
}
);
note = K;
unicode = 75;
}
{
glyphname = L;
kernRight = L;
layers = (
{
layerId = m01;
shapes = (
{
closed = 1;
nodes = (
(486,25,l),
(129,25,l),
(129,714,l),
(103,714,l),
(103,0,l),
(486,0,l)
);
}
);
width = 506;
}
);
note = L;
unicode = 76;
}
{
glyphname = N;
layers = (
{
layerId = m01;
shapes = (
{
closed = 1;
nodes = (
(568,714,l),
(568,211,ls),
(568,177,o),
(568,99,o),
(569,61,q),
(567,61,l),
(123,714,l),
(103,714,l),
(103,0,l),
(129,0,l),
(129,502,ls),
(129,542,o),
(129,612,o),
(128,655,q),
(130,655,l),
(575,0,l),
(594,0,l),
(594,714,l)
);
}
);
width = 698;
}
);
note = N;
unicode = 78;
}
{
glyphname = P;
kernRight = P;
layers = (
{
layerId = m01;
shapes = (
{
closed = 1;
nodes = (
(103,0,l),
(129,0,l),
(129,305,l),
(256,305,ls),
(335,305,o),
(452,347,o),
(516,442,o),
(516,519,qs),
(516,623,o),
(389,714,o),
(270,714,qs),
(103,714,l)
);
},
{
closed = 1;
nodes = (
(489,609,o),
(489,518,qs),
(489,445,o),
(430,363,o),
(324,330,o),
(254,330,qs),
(129,330,l),
(129,689,l),
(266,689,ls),
(380,689,o)
);
}
);
width = 573;
}
);
note = P;
unicode = 80;
}
{
glyphname = Q;
kernLeft = C;
kernRight = D;
layers = (
{
layerId = m01;
shapes = (
{
closed = 1;
nodes = (
(530,725,o),
(382,725,qs),
(280,725,o),
(137,632,o),
(63,467,o),
(63,359,qs),
(63,251,o),
(133,85,o),
(272,-10,o),
(376,-10,qs),
(386,-10,o),
(404,-9,o),
(413,-8,q),
(549,-170,l),
(585,-170,l),
(443,-4,l),
(526,10,o),
(635,109,o),
(690,263,o),
(690,358,qs),
(690,532,o)
);
},
{
closed = 1;
nodes = (
(154,612,o),
(284,700,o),
(382,700,qs),
(517,700,o),
(663,521,o),
(663,358,qs),
(663,257,o),
(602,102,o),
(475,15,o),
(377,15,qs),
(280,15,o),
(152,104,o),
(90,259,o),
(90,359,qs),
(90,458,o)
);
}
);
width = 754;
}
);
note = Q;
unicode = 81;
}
{
glyphname = R;
layers = (
{
layerId = m01;
shapes = (
{
closed = 1;
nodes = (
(103,0,l),
(129,0,l),
(129,320,l),
(327,320,l),
(518,0,l),
(551,0,l),
(355,327,l),
(431,347,o),
(516,446,o),
(516,525,qs),
(516,599,o),
(458,681,o),
(345,714,o),
(262,714,qs),
(103,714,l)
);
},
{
closed = 1;
nodes = (
(438,660,o),
(489,588,o),
(489,524,qs),
(489,439,o),
(379,345,o),
(292,345,qs),
(129,345,l),
(129,689,l),
(257,689,ls),
(335,689,o)
);
}
);
width = 577;
}
);
note = R;
unicode = 82;
}
{
glyphname = T;
kernLeft = T;
kernRight = T;
layers = (
{
layerId = m01;
shapes = (
{
closed = 1;
nodes = (
(503,689,l),
(503,714,l),
(2,714,l),
(2,689,l),
(239,689,l),
(239,0,l),
(265,0,l),
(265,689,l)
);
}
);
width = 505;
}
);
note = T;
unicode = 84;
}
{
glyphname = U;
kernLeft = U;
kernRight = U;
layers = (
{
layerId = m01;
shapes = (
{
closed = 1;
nodes = (
(592,714,l),
(592,244,ls),
(592,130,o),
(463,15,o),
(356,15,qs),
(244,15,o),
(121,136,o),
(121,256,qs),
(121,714,l),
(95,714,l),
(95,254,ls),
(95,124,o),
(231,-10,o),
(355,-10,qs),
(433,-10,o),
(551,47,o),
(618,163,o),
(618,252,qs),
(618,714,l)
);
}
);
width = 712;
}
);
note = U;
unicode = 85;
}
{
glyphname = V;
kernLeft = V;
kernRight = V;
layers = (
{
layerId = m01;
shapes = (
{
closed = 1;
nodes = (
(320,143,ls),
(307,109,o),
(290,60,o),
(282,37,q),
(275,60,o),
(255,115,o),
(244,143,qs),
(28,714,l),
(0,714,l),
(269,0,l),
(294,0,l),
(563,714,l),
(535,714,l)
);
}
);
width = 563;
}
);
note = V;
unicode = 86;
}
{
glyphname = W;
kernLeft = V;
kernRight = V;
layers = (
{
layerId = m01;
shapes = (
{
closed = 1;
nodes = (
(658,168,ls),
(647,129,o),
(635,78,o),
(629,48,q),
(622,78,o),
(609,129,o),
(598,168,qs),
(445,714,l),
(420,714,l),
(271,171,ls),
(261,134,o),
(247,81,o),
(240,52,q),
(233,81,o),
(218,133,o),
(208,170,qs),
(60,714,l),
(33,714,l),
(228,0,l),
(252,0,l),
(415,604,ls),
(420,621,o),
(427,650,o),
(431,675,q),
(437,648,o),
(449,611,o),
(456,582,qs),
(617,0,l),
(641,0,l),
(839,714,l),
(812,714,l)
);
}
);
width = 869;
}
);
note = W;
unicode = 87;
}
{
glyphname = X;
kernRight = K;
layers = (
{
layerId = m01;
shapes = (
{
closed = 1;
nodes = (
(494,714,l),
(463,714,l),
(257,390,l),
(53,714,l),
(22,714,l),
(239,370,l),
(-3,0,l),
(28,0,l),
(256,350,l),
(481,0,l),
(512,0,l),
(274,370,l)
);
}
);
width = 509;
}
);
note = X;
unicode = 88;
}
{
glyphname = Y;
kernLeft = Y;
kernRight = Y;
layers = (
{
layerId = m01;
shapes = (
{
closed = 1;
nodes = (
(0,714,l),
(241,271,l),
(241,0,l),
(267,0,l),
(267,275,l),
(505,714,l),
(475,714,l),
(253,301,l),
(30,714,l)
);
}
);
width = 505;
}
);
note = Y;
unicode = 89;
}
{
glyphname = Z;
kernLeft = Z;
kernRight = Z;
layers = (
{
layerId = m01;
shapes = (
{
closed = 1;
nodes = (
(73,25,l),
(526,696,l),
(526,714,l),
(64,714,l),
(64,689,l),
(489,689,l),
(36,18,l),
(36,0,l),
(538,0,l),
(538,25,l)
);
}
);
width = 578;
}
);
note = Z;
unicode = 90;
}
{
glyphname = bracketleft;
layers = (
{
layerId = m01;
shapes = (
{
closed = 1;
nodes = (
(113,-133,l),
(113,689,l),
(288,689,l),
(288,714,l),
(88,714,l),
(88,-158,l),
(288,-158,l),
(288,-133,l)
);
}
);
width = 313;
}
);
note = bracketleft;
unicode = 91;
}
{
glyphname = backslash;
layers = (
{
layerId = m01;
shapes = (
{
closed = 1;
nodes = (
(281,0,l),
(309,0,l),
(41,714,l),
(13,714,l)
);
}
);
width = 322;
}
);
note = backslash;
unicode = 92;
}
{
glyphname = bracketright;
kernLeft = parenright;
layers = (
{
layerId = m01;
shapes = (
{
closed = 1;
nodes = (
(225,-158,l),
(225,714,l),
(25,714,l),
(25,689,l),
(200,689,l),
(200,-133,l),
(25,-133,l),
(25,-158,l)
);
}
);
width = 313;
}
);
note = bracketright;
unicode = 93;
}
{
glyphname = asciicircum;
layers = (
{
layerId = m01;
shapes = (
{
closed = 1;
nodes = (
(292,686,l),
(495,278,l),
(524,278,l),
(305,719,l),
(282,719,l),
(46,278,l),
(75,278,l)
);
}
);
width = 570;
}
);
note = asciicircum;
unicode = 94;
}
{
glyphname = underscore;
layers = (
{
layerId = m01;
shapes = (
{
closed = 1;
nodes = (
(-2,-91,l),
(-2,-116,l),
(393,-116,l),
(393,-91,l)
);
}
);
width = 391;
}
);
note = underscore;
unicode = 95;
}
{
glyphname = grave;
layers = (
{
layerId = m01;
shapes = (
{
closed = 1;
nodes = (
(40,759,l),
(66,725,o),
(148,639,o),
(188,606,q),
(209,606,l),
(209,612,l),
(187,632,o),
(133,688,o),
(85,745,o),
(70,766,q),
(40,766,l)
);
}
);
width = 249;
}
);
note = grave;
unicode = 96;
}
{
glyphname = b;
kernLeft = b;
kernRight = b;
layers = (
{
layerId = m01;
shapes = (
{
closed = 1;
nodes = (
(89,760,l),
(89,0,l),
(111,0,l),
(115,104,l),
(117,104,l),
(135,55,o),
(224,-10,o),
(295,-10,qs),
(376,-10,o),
(477,65,o),
(524,190,o),
(524,266,qs),
(524,400,o),
(416,539,o),
(311,539,qs),
(235,539,o),
(132,464,o),
(115,406,q),
(113,406,l),
(114,431,o),
(115,501,o),
(115,525,qs),
(115,760,l)
);
},
{
closed = 1;
nodes = (
(497,266,qs),
(497,146,o),
(394,15,o),
(295,15,qs),
(204,15,o),
(115,137,o),
(115,253,qs),
(115,263,ls),
(115,380,o),
(211,514,o),
(311,514,qs),
(497,514,o)
);
}
);
width = 583;
}
);
note = b;
unicode = 98;
}
{
glyphname = c;
kernLeft = c;
layers = (
{
layerId = m01;
shapes = (
{
closed = 1;
nodes = (
(413,6,o),
(438,16,q),
(438,41,l),
(409,29,o),
(338,15,o),
(302,15,qs),
(226,15,o),
(131,81,o),
(86,193,o),
(86,261,qs),
(86,335,o),
(143,449,o),
(247,513,o),
(319,513,qs),
(348,513,o),
(407,503,o),
(437,489,q),
(442,514,l),
(414,526,o),
(355,538,o),
(319,538,qs),
(238,538,o),
(122,467,o),
(59,342,o),
(59,261,qs),
(59,184,o),
(110,61,o),
(218,-10,o),
(302,-10,qs),
(343,-10,o)
);
}
);
width = 472;
}
);
note = c;
unicode = 99;
}
{
glyphname = d;
kernLeft = c;
layers = (
{
layerId = m01;
shapes = (
{
closed = 1;
nodes = (
(450,63,o),
(468,113,q),
(470,113,l),
(472,0,l),
(494,0,l),
(494,760,l),
(468,760,l),
(468,543,ls),
(468,512,o),
(469,448,o),
(470,414,q),
(468,414,l),
(452,467,o),
(363,538,o),
(291,538,qs),
(179,538,o),
(59,391,o),
(59,254,qs),
(59,126,o),
(169,-10,o),
(283,-10,qs),
(362,-10,o)
);
},
{
closed = 1;
nodes = (
(86,134,o),
(86,254,qs),
(86,384,o),
(192,513,o),
(291,513,qs),
(380,513,o),
(468,386,o),
(468,266,qs),
(468,263,ls),
(468,146,o),
(383,15,o),
(283,15,qs),
(183,15,o)
);
}
);
width = 583;
}
);
note = d;
unicode = 100;
}
{
glyphname = e;
kernLeft = c;
kernRight = b;
layers = (
{
layerId = m01;
shapes = (
{
closed = 1;
nodes = (
(109,461,o),
(59,334,o),
(59,259,qs),
(59,182,o),
(108,60,o),
(213,-10,o),
(296,-10,qs),
(344,-10,o),
(421,6,o),
(459,23,q),
(459,50,l),
(413,29,o),
(344,15,o),
(296,15,qs),
(193,15,o),
(85,145,o),
(86,266,q),
(479,266,l),
(479,291,ls),
(479,361,o),
(439,472,o),
(355,538,o),
(287,538,qs),
(210,538,o)
);
},
{
closed = 1;
nodes = (
(453,390,o),
(452,291,q),
(87,291,l),
(96,400,o),
(203,513,o),
(287,513,qs),
(371,513,o)
);
}
);
width = 540;
}
);
note = e;
unicode = 101;
}
{
glyphname = g;
kernLeft = g;
layers = (
{
layerId = m01;
shapes = (
{
closed = 1;
nodes = (
(59,387,o),
(59,256,qs),
(59,125,o),
(174,-10,o),
(276,-10,qs),
(350,-10,o),
(448,55,o),
(466,117,q),
(468,117,l),
(467,88,o),
(466,46,o),
(466,17,qs),
(466,-25,ls),
(466,-111,o),
(379,-215,o),
(273,-215,qs),
(217,-215,o),
(123,-190,o),
(87,-173,q),
(87,-203,l),
(123,-218,o),
(212,-240,o),
(273,-240,qs),
(353,-240,o),
(449,-185,o),
(492,-88,o),
(492,-25,qs),
(492,528,l),
(470,528,l),
(465,437,l),
(463,437,l),
(442,481,o),
(363,538,o),
(290,538,qs),
(175,538,o)
);
},
{
closed = 1;
nodes = (
(434,456,o),
(466,357,o),
(466,294,qs),
(466,246,ls),
(466,205,o),
(450,123,o),
(409,56,o),
(335,15,o),
(276,15,qs),
(185,15,o),
(86,138,o),
(86,256,qs),
(86,377,o),
(185,513,o),
(290,513,qs),
(358,513,o)
);
}
);
width = 583;
}
);
note = g;
unicode = 103;
}
{
glyphname = i;
layers = (
{
layerId = m01;
shapes = (
{
closed = 1;
nodes = (
(78,702,o),
(78,690,qs),
(78,677,o),
(88,659,o),
(103,659,qs),
(121,659,o),
(130,677,o),
(130,690,qs),
(130,702,o),
(121,721,o),
(103,721,qs),
(88,721,o)
);
},
{
closed = 1;
nodes = (
(90,0,l),
(116,0,l),
(116,528,l),
(90,528,l)
);
}
);
width = 207;
}
);
note = i;
unicode = 105;
}
{
glyphname = l;
kernLeft = b;
layers = (
{
layerId = m01;
shapes = (
{
closed = 1;
nodes = (
(91,760,l),
(91,0,l),
(117,0,l),
(117,760,l)
);
}
);
width = 207;
}
);
note = l;
unicode = 108;
}
{
glyphname = m;
kernLeft = m;
kernRight = a;
layers = (
{
layerId = m01;
shapes = (
{
closed = 1;
nodes = (
(454,478,o),
(435,429,q),
(433,429,l),
(420,482,o),
(342,538,o),
(287,538,qs),
(236,538,o),
(168,505,o),
(128,457,o),
(117,432,q),
(115,432,l),
(111,528,l),
(90,528,l),
(90,0,l),
(116,0,l),
(116,325,ls),
(116,392,o),
(163,475,o),
(241,513,o),
(287,513,qs),
(342,513,o),
(417,440,o),
(417,360,qs),
(417,0,l),
(443,0,l),
(443,325,ls),
(443,426,o),
(539,513,o),
(614,513,qs),
(669,513,o),
(744,440,o),
(744,360,qs),
(744,0,l),
(770,0,l),
(770,361,ls),
(770,452,o),
(682,538,o),
(614,538,qs),
(543,538,o)
);
}
);
width = 852;
}
);
note = m;
unicode = 109;
}
{
glyphname = n;
kernLeft = m;
kernRight = a;
layers = (
{
layerId = m01;
shapes = (
{
closed = 1;
nodes = (
(176,503,o),
(129,448,o),
(117,417,q),
(115,417,l),
(111,528,l),
(90,528,l),
(90,0,l),
(116,0,l),
(116,302,ls),
(116,410,o),
(223,513,o),
(309,513,qs),
(382,513,o),
(463,433,o),
(463,345,qs),
(463,0,l),
(489,0,l),
(489,346,ls),
(489,444,o),
(395,538,o),
(309,538,qs),
(253,538,o)
);
}
);
width = 573;
}
);
note = n;
unicode = 110;
}
{
glyphname = q;
kernLeft = c;
layers = (
{
layerId = m01;
shapes = (
{
closed = 1;
nodes = (
(491,-232,l),
(491,528,l),
(469,528,l),
(465,424,l),
(463,424,l),
(446,471,o),
(356,538,o),
(285,538,qs),
(205,538,o),
(103,463,o),
(56,338,o),
(56,262,qs),
(56,129,o),
(164,-11,o),
(269,-11,qs),
(345,-11,o),
(449,64,o),
(465,122,q),
(467,122,l),
(466,97,o),
(465,27,o),
(465,3,qs),
(465,-232,l)
);
},
{
closed = 1;
nodes = (
(83,262,qs),
(83,382,o),
(186,513,o),
(285,513,qs),
(376,513,o),
(465,391,o),
(465,275,qs),
(465,265,ls),
(465,148,o),
(370,14,o),
(269,14,qs),
(83,14,o)
);
}
);
width = 583;
}
);
note = q;
unicode = 113;
}
{
glyphname = s;
kernLeft = s;
layers = (
{
layerId = m01;
shapes = (
{
closed = 1;
nodes = (
(359,240,o),
(277,272,o),
(233,286,qs),
(193,299,o),
(124,323,o),
(83,366,o),
(83,407,qs),
(83,460,o),
(166,513,o),
(238,513,qs),
(278,513,o),
(359,497,o),
(387,483,q),
(398,508,l),
(367,521,o),
(285,538,o),
(238,538,qs),
(154,538,o),
(56,469,o),
(56,407,qs),
(56,358,o),
(101,305,o),
(178,276,o),
(224,262,qs),
(268,249,o),
(341,220,o),
(384,173,o),
(384,134,qs),
(384,79,o),
(304,15,o),
(213,15,qs),
(119,15,o),
(39,54,q),
(39,24,l),
(68,11,o),
(158,-10,o),
(213,-10,qs),
(312,-10,o),
(411,67,o),
(411,134,qs),
(411,185,o)
);
}
);
width = 458;
}
);
note = s;
unicode = 115;
}
{
glyphname = t;
kernLeft = t;
kernRight = t;
layers = (
{
layerId = m01;
shapes = (
{
closed = 1;
nodes = (
(117,82,o),
(117,143,qs),
(117,503,l),
(289,503,l),
(289,528,l),
(117,528,l),
(117,659,l),
(96,659,l),
(90,528,l),
(10,525,l),
(10,503,l),
(91,503,l),
(91,140,ls),
(91,70,o),
(142,-10,o),
(212,-10,qs),
(238,-10,o),
(275,-2,o),
(291,3,q),
(291,28,l),
(275,22,o),
(237,15,o),
(212,15,qs),
(157,15,o)
);
}
);
width = 319;
}
);
note = t;
unicode = 116;
}
{
glyphname = u;
kernLeft = m;
layers = (
{
layerId = m01;
shapes = (
{
closed = 1;
nodes = (
(455,226,ls),
(455,118,o),
(348,15,o),
(262,15,qs),
(188,15,o),
(108,98,o),
(108,186,qs),
(108,528,l),
(82,528,l),
(82,182,ls),
(82,88,o),
(174,-10,o),
(262,-10,qs),
(318,-10,o),
(395,25,o),
(443,81,o),
(454,111,q),
(456,111,l),
(460,0,l),
(481,0,l),
(481,528,l),
(455,528,l)
);
}
);
width = 573;
}
);
note = u;
unicode = 117;
}
{
glyphname = v;
kernLeft = v;
kernRight = v;
layers = (
{
layerId = m01;
shapes = (
{
closed = 1;
nodes = (
(430,528,l),
(403,528,l),
(253,138,ls),
(240,106,o),
(225,61,o),
(216,36,q),
(214,36,l),
(206,61,o),
(190,106,o),
(177,138,qs),
(27,528,l),
(0,528,l),
(204,0,l),
(226,0,l)
);
}
);
width = 430;
}
);
note = v;
unicode = 118;
}
{
glyphname = w;
kernLeft = v;
kernRight = v;
layers = (
{
layerId = m01;
shapes = (
{
closed = 1;
nodes = (
(528,-1,l),
(669,527,l),
(643,527,l),
(544,156,ls),
(533,113,o),
(520,64,o),
(517,41,q),
(515,41,l),
(504,84,o),
(481,157,qs),
(362,527,l),
(341,527,l),
(216,156,ls),
(201,110,o),
(188,64,o),
(182,41,q),
(180,41,l),
(175,64,o),
(163,110,o),
(150,156,qs),
(45,527,l),
(16,527,l),
(169,-1,l),
(191,-1,l),
(320,388,ls),
(335,432,o),
(349,482,q),
(351,482,l),
(359,455,o),
(372,414,o),
(380,388,qs),
(506,-1,l)
);
}
);
width = 685;
}
);
note = w;
unicode = 119;
}
{
glyphname = x;
kernLeft = v;
kernRight = x;
layers = (
{
layerId = m01;
shapes = (
{
closed = 1;
nodes = (
(57,0,l),
(236,253,l),
(417,0,l),
(449,0,l),
(254,272,l),
(437,528,l),
(405,528,l),
(236,290,l),
(67,528,l),
(34,528,l),
(219,272,l),
(26,0,l)
);
}
);
width = 479;
}
);
note = x;
unicode = 120;
}
{
glyphname = y;
kernLeft = v;
kernRight = v;
layers = (
{
layerId = m01;
shapes = (
{
closed = 1;
nodes = (
(160,-102,ls),
(135,-166,o),
(86,-218,o),
(48,-218,qs),
(32,-218,o),
(8,-212,o),
(-6,-207,q),
(-6,-233,l),
(21,-243,o),
(48,-243,qs),
(97,-243,o),
(156,-180,o),
(181,-115,qs),
(430,528,l),
(403,528,l),
(264,168,ls),
(247,123,o),
(224,59,o),
(216,37,q),
(214,37,l),
(207,58,o),
(182,124,o),
(164,172,qs),
(27,528,l),
(0,528,l),
(201,6,l)
);
}
);
width = 428;
}
);
note = y;
unicode = 121;
}
{
glyphname = z;
kernLeft = z;
layers = (
{
layerId = m01;
shapes = (
{
closed = 1;
nodes = (
(77,25,l),
(415,513,l),
(415,528,l),
(68,528,l),
(68,503,l),
(377,503,l),
(41,17,l),
(41,0,l),
(412,0,l),
(412,25,l)
);
}
);
width = 456;
}
);
note = z;
unicode = 122;
}
{
glyphname = braceleft;
layers = (
{
layerId = m01;
shapes = (
{
closed = 1;
nodes = (
(229,-133,o),
(163,-78,o),
(163,-20,qs),
(163,152,ls),
(163,203,o),
(128,269,o),
(84,277,q),
(84,279,l),
(128,287,o),
(163,353,o),
(163,404,qs),
(163,573,ls),
(163,634,o),
(229,689,o),
(300,689,q),
(300,714,l),
(218,714,o),
(136,644,o),
(136,579,qs),
(136,408,ls),
(136,344,o),
(86,290,o),
(26,290,q),
(26,266,l),
(86,266,o),
(136,210,o),
(136,148,qs),
(136,-23,ls),
(136,-88,o),
(218,-158,o),
(300,-158,q),
(300,-133,l)
);
}
);
width = 337;
}
);
note = braceleft;
unicode = 123;
}
{
glyphname = bar;
layers = (
{
layerId = m01;
shapes = (
{
closed = 1;
nodes = (
(278,-251,l),
(278,763,l),
(253,763,l),
(253,-251,l)
);
}
);
width = 535;
}
);
note = bar;
unicode = 124;
}
{
glyphname = braceright;
kernLeft = parenright;
layers = (
{
layerId = m01;
shapes = (
{
closed = 1;
nodes = (
(118,-158,o),
(200,-88,o),
(200,-23,qs),
(200,148,ls),
(200,210,o),
(250,266,o),
(310,266,q),
(310,290,l),
(250,290,o),
(200,344,o),
(200,408,qs),
(200,579,ls),
(200,644,o),
(118,714,o),
(36,714,q),
(36,689,l),
(107,689,o),
(173,634,o),
(173,573,qs),
(173,404,ls),
(173,353,o),
(208,287,o),
(252,279,q),
(252,277,l),
(208,269,o),
(173,203,o),
(173,152,qs),
(173,-20,ls),
(173,-78,o),
(107,-133,o),
(36,-133,q),
(36,-158,l)
);
}
);
width = 337;
}
);
note = braceright;
unicode = 125;
}
{
glyphname = asciitilde;
layers = (
{
layerId = m01;
shapes = (
{
closed = 1;
nodes = (
(364,309,o),
(400,309,qs),
(436,309,o),
(495,338,o),
(514,358,q),
(514,387,l),
(484,356,o),
(427,333,o),
(400,333,qs),
(369,333,o),
(322,351,o),
(295,364,qs),
(267,378,o),
(215,397,o),
(173,397,qs),
(140,397,o),
(79,371,o),
(56,349,q),
(56,318,l),
(85,348,o),
(144,373,o),
(173,373,qs),
(208,373,o),
(255,356,o),
(282,342,qs),
(312,327,o)
);
}
);
width = 570;
}
);
note = asciitilde;
unicode = 126;
}
{
glyphname = exclamdown;
layers = (
{
layerId = m01;
shapes = (
{
closed = 1;
nodes = (
(127,536,o),
(112,536,qs),
(94,536,o),
(85,518,o),
(85,505,qs),
(85,493,o),
(94,474,o),
(112,474,qs),
(127,474,o),
(137,493,o),
(137,505,qs),
(137,518,o)
);
},
{
closed = 1;
nodes = (
(124,-186,l),
(122,354,l),
(98,354,l),
(96,-186,l)
);
}
);
width = 223;
}
);
note = exclamdown;
unicode = 161;
}
{
glyphname = cent;
layers = (
{
layerId = m01;
shapes = (
{
closed = 1;
nodes = (
(313,724,l),
(313,636,l),
(241,629,o),
(139,555,o),
(85,436,o),
(85,361,qs),
(85,286,o),
(133,166,o),
(234,94,o),
(313,90,q),
(313,-10,l),
(338,-10,l),
(338,90,l),
(376,91,o),
(441,106,o),
(464,116,q),
(464,141,l),
(435,129,o),
(364,115,o),
(328,115,qs),
(252,115,o),
(157,181,o),
(112,293,o),
(112,361,qs),
(112,435,o),
(169,549,o),
(273,613,o),
(345,613,qs),
(374,613,o),
(433,603,o),
(463,589,q),
(468,614,l),
(438,627,o),
(378,638,o),
(338,638,q),
(338,724,l)
);
}
);
width = 570;
}
);
note = cent;
unicode = 162;
}
{
glyphname = sterling;
layers = (
{
layerId = m01;
shapes = (
{
closed = 1;
nodes = (
(165,620,o),
(165,516,qs),
(165,360,l),
(58,360,l),
(58,335,l),
(165,335,l),
(165,187,ls),
(165,114,o),
(103,34,o),
(42,23,q),
(42,0,l),
(518,0,l),
(518,25,l),
(111,25,l),
(146,42,o),
(191,118,o),
(191,188,qs),
(191,335,l),
(390,335,l),
(390,360,l),
(191,360,l),
(191,512,ls),
(191,607,o),
(267,698,o),
(344,698,qs),
(386,698,o),
(449,683,o),
(482,669,q),
(491,694,l),
(462,706,o),
(391,723,o),
(344,723,qs),
(257,723,o)
);
}
);
width = 570;
}
);
note = sterling;
unicode = 163;
}
{
glyphname = currency;
layers = (
{
layerId = m01;
shapes = (
{
closed = 1;
nodes = (
(109,249,o),
(134,220,q),
(57,142,l),
(72,126,l),
(150,204,l),
(179,179,o),
(248,153,o),
(284,153,qs),
(320,153,o),
(391,179,o),
(419,204,q),
(496,126,l),
(512,142,l),
(434,220,l),
(460,249,o),
(485,318,o),
(485,354,qs),
(485,390,o),
(460,460,o),
(434,488,q),
(511,565,l),
(496,581,l),
(419,504,l),
(391,530,o),
(320,555,o),
(284,555,qs),
(248,555,o),
(179,530,o),
(150,504,q),
(72,582,l),
(57,566,l),
(134,488,l),
(109,460,o),
(84,390,o),
(84,354,qs),
(84,318,o)
);
},
{
closed = 1;
nodes = (
(155,485,o),
(236,533,o),
(285,533,qs),
(334,533,o),
(414,484,o),
(463,404,o),
(463,355,qs),
(463,306,o),
(414,224,o),
(333,175,o),
(283,175,qs),
(236,175,o),
(155,222,o),
(106,303,o),
(106,354,qs),
(106,404,o)
);
}
);
width = 570;
}
);
note = currency;
unicode = 164;
}
{
glyphname = yen;
layers = (
{
layerId = m01;
shapes = (
{
closed = 1;
nodes = (
(25,714,l),
(264,323,l),
(97,323,l),
(97,298,l),
(273,298,l),
(273,187,l),
(97,187,l),
(97,162,l),
(273,162,l),
(273,0,l),
(299,0,l),
(299,162,l),
(474,162,l),
(474,187,l),
(299,187,l),
(299,298,l),
(474,298,l),
(474,323,l),
(306,323,l),
(545,714,l),
(514,714,l),
(286,336,l),
(56,714,l)
);
}
);
width = 570;
}
);
note = yen;
unicode = 165;
}
{
glyphname = brokenbar;
layers = (
{
layerId = m01;
shapes = (
{
closed = 1;
nodes = (
(278,395,l),
(278,763,l),
(253,763,l),
(253,395,l)
);
},
{
closed = 1;
nodes = (
(278,-251,l),
(278,118,l),
(253,118,l),
(253,-251,l)
);
}
);
width = 535;
}
);
note = brokenbar;
unicode = 166;
}
{
glyphname = section;
layers = (
{
layerId = m01;
shapes = (
{
closed = 1;
nodes = (
(125,295,o),
(199,265,o),
(243,251,qs),
(286,239,o),
(355,211,o),
(397,168,o),
(397,133,qs),
(397,84,o),
(320,23,o),
(233,23,qs),
(143,23,o),
(65,61,q),
(65,32,l),
(93,20,o),
(181,-1,o),
(233,-1,qs),
(328,-1,o),
(423,72,o),
(423,133,qs),
(423,178,o),
(374,228,o),
(337,244,q),
(377,264,o),
(429,333,o),
(429,381,qs),
(429,430,o),
(379,483,o),
(301,514,o),
(258,527,qs),
(219,540,o),
(154,562,o),
(114,599,o),
(114,633,qs),
(114,684,o),
(193,735,o),
(263,735,qs),
(301,735,o),
(379,720,o),
(406,706,q),
(417,730,l),
(386,743,o),
(308,759,o),
(263,759,qs),
(182,759,o),
(88,692,o),
(88,633,qs),
(88,585,o),
(146,538,o),
(190,522,q),
(142,506,o),
(82,444,o),
(82,395,qs),
(82,348,o)
);
},
{
closed = 1;
nodes = (
(176,498,o),
(225,511,q),
(310,490,o),
(403,436,o),
(403,381,qs),
(403,338,o),
(353,272,o),
(311,255,q),
(251,274,ls),
(212,287,o),
(147,312,o),
(108,356,o),
(108,395,qs),
(108,444,o)
);
}
);
width = 518;
}
);
note = section;
unicode = 167;
}
{
glyphname = dieresis;
layers = (
{
layerId = m01;
shapes = (
{
closed = 1;
nodes = (
(180,647,o),
(193,647,qs),
(210,647,o),
(218,665,o),
(218,678,qs),
(218,690,o),
(210,709,o),
(193,709,qs),
(180,709,o),
(170,690,o),
(170,678,qs),
(170,665,o)
);
},
{
closed = 1;
nodes = (
(365,647,o),
(378,647,qs),
(395,647,o),
(403,665,o),
(403,678,qs),
(403,690,o),
(395,709,o),
(378,709,qs),
(365,709,o),
(355,690,o),
(355,678,qs),
(355,665,o)
);
}
);
width = 575;
}
);
note = dieresis;
unicode = 168;
}
{
glyphname = copyright;
layers = (
{
layerId = m01;
shapes = (
{
closed = 1;
nodes = (
(624,49,o),
(725,149,o),
(782,282,o),
(782,357,qs),
(782,428,o),
(728,559,o),
(630,662,o),
(496,722,o),
(416,722,qs),
(341,722,o),
(209,667,o),
(108,568,o),
(50,435,o),
(50,357,qs),
(50,282,o),
(104,150,o),
(202,49,o),
(336,-8,o),
(416,-8,qs),
(491,-8,o)
);
},
{
closed = 1;
nodes = (
(215,71,o),
(125,165,o),
(76,288,o),
(76,357,qs),
(76,428,o),
(128,551,o),
(221,644,o),
(344,697,o),
(416,697,qs),
(489,697,o),
(613,643,o),
(705,548,o),
(756,426,o),
(756,357,qs),
(756,289,o),
(705,167,o),
(613,72,o),
(489,17,o),
(416,17,qs),
(340,17,o)
);
},
{
closed = 1;
nodes = (
(525,154,o),
(550,164,q),
(550,188,l),
(520,177,o),
(470,168,o),
(435,168,qs),
(359,168,o),
(257,262,o),
(257,356,qs),
(257,444,o),
(359,546,o),
(439,546,qs),
(477,546,o),
(531,534,o),
(554,523,q),
(565,546,l),
(540,558,o),
(483,572,o),
(439,572,qs),
(378,572,o),
(283,519,o),
(230,422,o),
(230,356,qs),
(230,249,o),
(343,143,o),
(435,143,qs),
(469,143,o)
);
}
);
width = 832;
}
);
note = copyright;
unicode = 169;
}
{
glyphname = ordfeminine;
layers = (
{
layerId = m01;
shapes = (
{
closed = 1;
nodes = (
(87,707,o),
(64,696,q),
(74,672,l),
(120,697,o),
(168,697,qs),
(203,697,o),
(242,659,o),
(242,618,qs),
(242,587,l),
(197,585,ls),
(117,581,o),
(41,533,o),
(41,486,qs),
(41,442,o),
(96,398,o),
(143,398,qs),
(180,398,o),
(230,427,o),
(241,449,q),
(245,402,l),
(268,402,l),
(268,622,ls),
(268,670,o),
(219,722,o),
(169,722,qs),
(141,722,o)
);
},
{
closed = 1;
nodes = (
(242,527,ls),
(242,478,o),
(193,423,o),
(144,423,qs),
(68,423,o),
(68,486,qs),
(68,525,o),
(131,557,o),
(196,560,qs),
(242,562,l)
);
}
);
width = 322;
}
);
note = ordfeminine;
unicode = 170;
}
{
glyphname = guillemotleft;
kernLeft = guillemotleft;
kernRight = guillemotleft;
layers = (
{
layerId = m01;
shapes = (
{
closed = 1;
nodes = (
(178,87,l),
(194,98,l),
(57,279,l),
(194,460,l),
(178,472,l),
(26,285,l),
(26,272,l)
);
},
{
closed = 1;
nodes = (
(347,87,l),
(363,98,l),
(226,279,l),
(363,460,l),
(347,472,l),
(195,285,l),
(195,272,l)
);
}
);
width = 389;
}
);
note = guillemotleft;
unicode = 171;
}
{
glyphname = logicalnot;
layers = (
{
layerId = m01;
shapes = (
{
closed = 1;
nodes = (
(55,341,l),
(474,341,l),
(474,132,l),
(498,132,l),
(498,365,l),
(55,365,l)
);
}
);
width = 570;
}
);
note = logicalnot;
unicode = 172;
}
{
glyphname = registered;
layers = (
{
layerId = m01;
shapes = (
{
closed = 1;
nodes = (
(624,49,o),
(725,149,o),
(782,282,o),
(782,357,qs),
(782,428,o),
(728,559,o),
(630,662,o),
(496,722,o),
(416,722,qs),
(341,722,o),
(209,667,o),
(108,568,o),
(50,435,o),
(50,357,qs),
(50,282,o),
(104,150,o),
(202,49,o),
(336,-8,o),
(416,-8,qs),
(491,-8,o)
);
},
{
closed = 1;
nodes = (
(215,71,o),
(125,165,o),
(76,288,o),
(76,357,qs),
(76,428,o),
(128,551,o),
(221,644,o),
(344,697,o),
(416,697,qs),
(489,697,o),
(613,643,o),
(705,548,o),
(756,426,o),
(756,357,qs),
(756,289,o),
(705,167,o),
(613,72,o),
(489,17,o),
(416,17,qs),
(340,17,o)
);
},
{
closed = 1;
nodes = (
(323,324,l),
(436,324,l),
(545,143,l),
(577,143,l),
(463,329,l),
(503,341,o),
(556,400,o),
(556,449,qs),
(556,512,o),
(478,569,o),
(416,569,qs),
(298,569,l),
(298,143,l),
(323,143,l)
);
},
{
closed = 1;
nodes = (
(322,545,l),
(414,545,ls),
(466,545,o),
(532,500,o),
(532,449,qs),
(532,395,o),
(462,346,o),
(412,346,qs),
(322,346,l)
);
}
);
width = 832;
}
);
note = registered;
unicode = 174;
}
{
glyphname = overscore;
layers = (
{
layerId = m01;
shapes = (
{
closed = 1;
nodes = (
(-3,785,l),
(-3,760,l),
(503,760,l),
(503,785,l)
);
}
);
width = 500;
}
);
note = overscore;
unicode = 175;
}
{
glyphname = degree;
layers = (
{
layerId = m01;
shapes = (
{
closed = 1;
nodes = (
(357,518,o),
(357,583,qs),
(357,645,o),
(276,724,o),
(214,724,qs),
(153,724,o),
(71,647,o),
(71,583,qs),
(71,518,o),
(154,441,o),
(214,441,qs),
(276,441,o)
);
},
{
closed = 1;
nodes = (
(98,532,o),
(98,583,qs),
(98,636,o),
(161,699,o),
(213,699,qs),
(264,699,o),
(330,636,o),
(330,583,qs),
(330,532,o),
(264,466,o),
(213,466,qs),
(161,466,o)
);
}
);
width = 428;
}
);
note = degree;
unicode = 176;
}
{
glyphname = plusminus;
layers = (
{
layerId = m01;
shapes = (
{
closed = 1;
nodes = (
(273,583,l),
(273,365,l),
(55,365,l),
(55,341,l),
(273,341,l),
(273,123,l),
(297,123,l),
(297,341,l),
(515,341,l),
(515,365,l),
(297,365,l),
(297,583,l)
);
},
{
closed = 1;
nodes = (
(515,24,l),
(55,24,l),
(55,0,l),
(515,0,l)
);
}
);
width = 570;
}
);
note = plusminus;
unicode = 177;
}
{
glyphname = uni00B2;
layers = (
{
layerId = m01;
shapes = (
{
closed = 1;
nodes = (
(64,441,l),
(167,546,ls),
(207,587,o),
(264,648,o),
(295,706,o),
(295,741,qs),
(295,791,o),
(229,855,o),
(169,855,qs),
(98,855,o),
(43,809,q),
(56,789,l),
(84,810,o),
(138,830,o),
(169,830,qs),
(218,830,o),
(268,780,o),
(268,741,qs),
(268,696,o),
(204,619,o),
(150,563,qs),
(27,437,l),
(27,416,l),
(307,416,l),
(307,441,l)
);
}
);
width = 328;
}
);
note = uni00B2;
unicode = 178;
}
{
glyphname = uni00B3;
layers = (
{
layerId = m01;
shapes = (
{
closed = 1;
nodes = (
(63,829,o),
(35,810,q),
(45,788,l),
(74,805,o),
(133,826,o),
(170,826,qs),
(217,826,o),
(267,783,o),
(267,747,qs),
(267,702,o),
(209,653,o),
(156,653,qs),
(89,653,l),
(89,628,l),
(156,628,ls),
(277,628,o),
(277,539,qs),
(277,491,o),
(213,437,o),
(151,437,qs),
(117,437,o),
(56,452,o),
(26,465,q),
(26,437,l),
(52,426,o),
(116,412,o),
(151,412,qs),
(223,412,o),
(304,478,o),
(304,539,qs),
(304,582,o),
(259,633,o),
(218,642,q),
(218,644,l),
(251,652,o),
(294,705,o),
(294,747,qs),
(294,797,o),
(226,851,o),
(170,851,qs),
(130,851,o)
);
}
);
width = 328;
}
);
note = uni00B3;
unicode = 179;
}
{
glyphname = acute;
layers = (
{
layerId = m01;
shapes = (
{
closed = 1;
nodes = (
(179,766,l),
(165,745,o),
(116,688,o),
(63,632,o),
(40,612,q),
(40,606,l),
(61,606,l),
(101,639,o),
(183,725,o),
(209,759,q),
(209,766,l)
);
}
);
width = 249;
}
);
note = acute;
unicode = 180;
}
{
glyphname = uni00B5;
layers = (
{
layerId = m01;
shapes = (
{
closed = 1;
nodes = (
(464,227,ls),
(464,126,o),
(383,15,o),
(282,15,qs),
(115,15,o),
(115,185,qs),
(115,528,l),
(90,528,l),
(90,-240,l),
(115,-240,l),
(115,71,l),
(117,71,l),
(135,34,o),
(216,-10,o),
(282,-10,qs),
(339,-10,o),
(408,19,o),
(448,66,o),
(461,94,q),
(463,94,l),
(466,0,l),
(489,0,l),
(489,528,l),
(464,528,l)
);
}
);
width = 580;
}
);
note = uni00B5;
unicode = 181;
}
{
glyphname = paragraph;
layers = (
{
layerId = m01;
shapes = (
{
closed = 1;
nodes = (
(275,760,ls),
(183,760,o),
(95,653,o),
(95,557,qs),
(95,498,o),
(131,402,o),
(205,346,o),
(260,346,qs),
(282,346,o),
(315,351,o),
(331,355,q),
(331,-127,l),
(357,-127,l),
(357,735,l),
(491,735,l),
(491,-127,l),
(517,-127,l),
(517,760,l)
);
}
);
width = 655;
}
);
note = paragraph;
unicode = 182;
}
{
glyphname = cedilla;
layers = (
{
layerId = m01;
shapes = (
{
closed = 1;
nodes = (
(132,-67,o),
(88,-65,q),
(121,0,l),
(96,0,l),
(52,-85,l),
(105,-85,o),
(155,-114,o),
(155,-146,qs),
(155,-180,o),
(105,-216,o),
(67,-216,qs),
(48,-216,o),
(23,-214,o),
(10,-210,q),
(10,-234,l),
(33,-240,o),
(67,-240,qs),
(116,-240,o),
(180,-188,o),
(180,-145,qs),
(180,-109,o)
);
}
);
width = 193;
}
);
note = cedilla;
unicode = 184;
}
{
glyphname = uni00B9;
layers = (
{
layerId = m01;
shapes = (
{
closed = 1;
nodes = (
(37,771,l),
(48,749,l),
(95,774,ls),
(119,787,o),
(151,804,o),
(168,815,q),
(167,788,o),
(167,725,o),
(167,696,qs),
(167,416,l),
(193,416,l),
(193,844,l),
(173,844,l)
);
}
);
width = 328;
}
);
note = uni00B9;
unicode = 185;
}
{
glyphname = ordmasculine;
layers = (
{
layerId = m01;
shapes = (
{
closed = 1;
nodes = (
(289,681,o),
(228,725,o),
(180,725,qs),
(114,725,o),
(37,636,o),
(37,560,qs),
(37,490,o),
(108,395,o),
(177,395,qs),
(248,395,o),
(318,490,o),
(318,560,qs),
(318,606,o)
);
},
{
closed = 1;
nodes = (
(125,700,o),
(180,700,qs),
(239,700,o),
(291,617,o),
(291,560,qs),
(291,500,o),
(236,420,o),
(177,420,qs),
(121,420,o),
(64,499,o),
(64,560,qs),
(64,625,o)
);
}
);
width = 352;
}
);
note = ordmasculine;
unicode = 186;
}
{
glyphname = guillemotright;
kernLeft = guillemotright;
kernRight = guillemotright;
layers = (
{
layerId = m01;
shapes = (
{
closed = 1;
nodes = (
(211,472,l),
(195,461,l),
(332,280,l),
(195,99,l),
(211,87,l),
(363,274,l),
(363,287,l)
);
},
{
closed = 1;
nodes = (
(42,472,l),
(26,461,l),
(163,280,l),
(26,99,l),
(42,87,l),
(194,274,l),
(194,287,l)
);
}
);
width = 389;
}
);
note = guillemotright;
unicode = 187;
}
{
glyphname = onequarter;
layers = (
{
layerId = m01;
shapes = (
{
closed = 1;
nodes = (
(547,714,l),
(519,714,l),
(147,0,l),
(175,0,l)
);
},
{
closed = 1;
nodes = (
(172,286,l),
(172,714,l),
(152,714,l),
(16,641,l),
(27,619,l),
(74,644,ls),
(98,657,o),
(130,674,o),
(147,685,q),
(146,658,o),
(146,595,o),
(146,566,qs),
(146,286,l)
);
},
{
closed = 1;
nodes = (
(615,131,l),
(689,131,l),
(689,155,l),
(615,155,l),
(615,431,l),
(587,431,l),
(386,149,l),
(386,131,l),
(590,131,l),
(590,0,l),
(615,0,l)
);
},
{
closed = 1;
nodes = (
(568,365,o),
(581,386,o),
(591,402,q),
(590,383,o),
(590,343,o),
(590,319,qs),
(590,155,l),
(418,155,l),
(557,350,ls)
);
}
);
width = 698;
}
);
note = onequarter;
unicode = 188;
}
{
glyphname = onehalf;
layers = (
{
layerId = m01;
shapes = (
{
closed = 1;
nodes = (
(547,714,l),
(519,714,l),
(147,0,l),
(175,0,l)
);
},
{
closed = 1;
nodes = (
(172,286,l),
(172,714,l),
(152,714,l),
(16,641,l),
(27,619,l),
(74,644,ls),
(98,657,o),
(130,674,o),
(147,685,q),
(146,658,o),
(146,595,o),
(146,566,qs),
(146,286,l)
);
},
{
closed = 1;
nodes = (
(723,25,l),
(480,25,l),
(583,130,ls),
(623,171,o),
(680,232,o),
(711,290,o),
(711,325,qs),
(711,375,o),
(645,439,o),
(585,439,qs),
(514,439,o),
(459,393,q),
(472,373,l),
(500,394,o),
(554,414,o),
(585,414,qs),
(634,414,o),
(684,364,o),
(684,325,qs),
(684,280,o),
(620,203,o),
(566,147,qs),
(443,21,l),
(443,0,l),
(723,0,l)
);
}
);
width = 744;
}
);
note = onehalf;
unicode = 189;
}
{
glyphname = threequarters;
layers = (
{
layerId = m01;
shapes = (
{
closed = 1;
nodes = (
(304,348,o),
(304,409,qs),
(304,452,o),
(259,503,o),
(218,512,q),
(218,514,l),
(251,522,o),
(294,575,o),
(294,617,qs),
(294,667,o),
(226,721,o),
(170,721,qs),
(130,721,o),
(63,699,o),
(35,680,q),
(45,658,l),
(74,675,o),
(133,696,o),
(170,696,qs),
(217,696,o),
(267,653,o),
(267,617,qs),
(267,572,o),
(209,523,o),
(156,523,qs),
(89,523,l),
(89,498,l),
(156,498,ls),
(277,498,o),
(277,409,qs),
(277,361,o),
(213,307,o),
(151,307,qs),
(117,307,o),
(56,322,o),
(26,335,q),
(26,307,l),
(52,296,o),
(116,282,o),
(151,282,qs),
(223,282,o)
);
},
{
closed = 1;
nodes = (
(607,714,l),
(579,714,l),
(207,0,l),
(235,0,l)
);
},
{
closed = 1;
nodes = (
(675,131,l),
(749,131,l),
(749,155,l),
(675,155,l),
(675,431,l),
(647,431,l),
(446,149,l),
(446,131,l),
(650,131,l),
(650,0,l),
(675,0,l)
);
},
{
closed = 1;
nodes = (
(628,365,o),
(641,386,o),
(651,402,q),
(650,383,o),
(650,343,o),
(650,319,qs),
(650,155,l),
(478,155,l),
(617,350,ls)
);
}
);
width = 758;
}
);
note = threequarters;
unicode = 190;
}
{
glyphname = questiondown;
layers = (
{
layerId = m01;
shapes = (
{
closed = 1;
nodes = (
(273,540,o),
(258,540,qs),
(240,540,o),
(231,522,o),
(231,509,qs),
(231,497,o),
(240,478,o),
(258,478,qs),
(273,478,o),
(283,497,o),
(283,509,qs),
(283,522,o)
);
},
{
closed = 1;
nodes = (
(247,358,l),
(247,346,ls),
(247,278,o),
(213,209,o),
(174,182,qs),
(135,155,o),
(75,99,o),
(42,28,o),
(42,-22,qs),
(42,-107,o),
(144,-192,o),
(228,-192,qs),
(269,-192,o),
(335,-177,o),
(378,-159,q),
(368,-133,l),
(332,-151,o),
(265,-167,o),
(228,-167,qs),
(158,-167,o),
(69,-97,o),
(69,-22,qs),
(69,24,o),
(98,86,o),
(151,136,o),
(187,161,qs),
(222,186,o),
(258,233,o),
(272,297,o),
(272,346,qs),
(272,358,l)
);
}
);
width = 413;
}
);
note = questiondown;
unicode = 191;
}
{
glyphname = AE;
kernLeft = AE;
kernRight = E;
layers = (
{
layerId = m01;
shapes = (
{
closed = 1;
nodes = (
(391,25,l),
(391,364,l),
(730,364,l),
(730,389,l),
(391,389,l),
(391,689,l),
(750,689,l),
(750,714,l),
(306,714,l),
(-1,0,l),
(30,0,l),
(144,270,l),
(365,270,l),
(365,0,l),
(750,0,l),
(750,25,l)
);
},
{
closed = 1;
nodes = (
(365,689,l),
(365,295,l),
(156,295,l),
(323,689,l)
);
}
);
width = 763;
}
);
note = AE;
unicode = 198;
}
{
glyphname = Eth;
kernRight = D;
layers = (
{
layerId = m01;
shapes = (
{
closed = 1;
nodes = (
(103,368,l),
(17,368,l),
(17,343,l),
(103,343,l),
(103,0,l),
(257,0,ls),
(445,0,o),
(628,185,o),
(628,364,qs),
(628,534,o),
(457,714,o),
(280,714,qs),
(103,714,l)
);
},
{
closed = 1;
nodes = (
(601,522,o),
(601,363,qs),
(601,25,o),
(260,25,qs),
(129,25,l),
(129,343,l),
(335,343,l),
(335,368,l),
(129,368,l),
(129,689,l),
(270,689,ls),
(444,689,o)
);
}
);
width = 692;
}
);
note = Eth;
unicode = 208;
}
{
glyphname = multiply;
layers = (
{
layerId = m01;
shapes = (
{
closed = 1;
nodes = (
(88,567,l),
(71,550,l),
(268,353,l),
(71,156,l),
(88,139,l),
(285,336,l),
(482,139,l),
(499,156,l),
(302,353,l),
(499,550,l),
(482,567,l),
(285,370,l)
);
}
);
width = 570;
}
);
note = multiply;
unicode = 215;
}
{
glyphname = Oslash;
kernLeft = C;
kernRight = D;
layers = (
{
layerId = m01;
shapes = (
{
closed = 1;
nodes = (
(642,595,o),
(598,642,q),
(659,725,l),
(639,740,l),
(579,659,l),
(502,725,o),
(382,725,qs),
(280,725,o),
(137,632,o),
(63,467,o),
(63,359,qs),
(63,273,o),
(109,131,o),
(153,81,q),
(85,-11,l),
(105,-26,l),
(171,63,l),
(209,28,o),
(312,-10,o),
(376,-10,qs),
(482,-10,o),
(621,84,o),
(690,250,o),
(690,358,qs),
(690,451,o)
);
},
{
closed = 1;
nodes = (
(154,612,o),
(284,700,o),
(382,700,qs),
(438,700,o),
(530,668,o),
(564,638,q),
(168,102,l),
(129,149,o),
(90,280,o),
(90,359,qs),
(90,458,o)
);
},
{
closed = 1;
nodes = (
(602,102,o),
(475,15,o),
(377,15,qs),
(316,15,o),
(221,51,o),
(186,84,q),
(582,620,l),
(663,531,o),
(663,358,qs),
(663,257,o)
);
}
);
width = 754;
}
);
note = Oslash;
unicode = 216;
}
{
glyphname = Thorn;
kernRight = P;
layers = (
{
layerId = m01;
shapes = (
{
closed = 1;
nodes = (
(399,582,o),
(281,582,qs),
(129,582,l),
(129,714,l),
(103,714,l),
(103,0,l),
(129,0,l),
(129,173,l),
(256,173,ls),
(378,173,o),
(518,272,o),
(518,382,qs),
(518,487,o)
);
},
{
closed = 1;
nodes = (
(129,557,l),
(274,557,ls),
(387,557,o),
(491,475,o),
(491,382,qs),
(491,313,o),
(432,232,o),
(324,198,o),
(252,198,qs),
(129,198,l)
);
}
);
width = 573;
}
);
note = Thorn;
unicode = 222;
}
{
glyphname = germandbls;
layers = (
{
layerId = m01;
shapes = (
{
closed = 1;
nodes = (
(359,765,o),
(282,765,qs),
(188,765,o),
(89,660,o),
(89,563,qs),
(89,0,l),
(115,0,l),
(115,563,ls),
(115,648,o),
(197,740,o),
(282,740,qs),
(346,740,o),
(412,684,o),
(412,636,qs),
(412,602,o),
(384,560,o),
(344,531,o),
(303,500,o),
(275,456,o),
(275,420,qs),
(275,386,o),
(304,340,o),
(353,303,o),
(382,282,qs),
(409,264,o),
(451,225,o),
(476,173,o),
(476,134,qs),
(476,80,o),
(405,15,o),
(337,15,qs),
(300,15,o),
(236,30,o),
(203,45,q),
(203,17,l),
(229,7,o),
(290,-10,o),
(337,-10,qs),
(393,-10,o),
(467,30,o),
(503,96,o),
(503,134,qs),
(503,181,o),
(473,241,o),
(425,283,o),
(396,302,qs),
(353,331,o),
(302,380,o),
(302,420,qs),
(302,452,o),
(330,491,o),
(371,521,o),
(411,552,o),
(439,599,o),
(439,636,qs),
(439,694,o)
);
}
);
width = 554;
}
);
note = germandbls;
unicode = 223;
}
{
glyphname = ae;
kernLeft = a;
kernRight = b;
layers = (
{
layerId = m01;
shapes = (
{
closed = 1;
nodes = (
(436,452,o),
(414,384,q),
(407,464,o),
(331,537,o),
(261,537,qs),
(219,537,o),
(137,516,o),
(97,498,q),
(106,472,l),
(149,494,o),
(224,512,o),
(261,512,qs),
(326,512,o),
(392,433,o),
(392,343,qs),
(392,300,l),
(296,294,ls),
(181,287,o),
(48,208,o),
(48,129,qs),
(48,66,o),
(129,-10,o),
(210,-10,qs),
(294,-10,o),
(390,75,o),
(408,145,q),
(427,78,o),
(529,-10,o),
(613,-10,qs),
(696,-10,o),
(769,23,q),
(769,50,l),
(723,29,o),
(656,15,o),
(613,15,qs),
(522,15,o),
(417,145,o),
(418,266,q),
(789,266,l),
(789,291,ls),
(792,361,o),
(752,472,o),
(668,538,o),
(604,538,qs),
(531,538,o)
);
},
{
closed = 1;
nodes = (
(763,390,o),
(762,291,q),
(419,291,l),
(428,400,o),
(531,513,o),
(604,513,qs),
(683,513,o)
);
},
{
closed = 1;
nodes = (
(392,220,ls),
(391,129,o),
(303,15,o),
(210,15,qs),
(145,15,o),
(76,76,o),
(76,129,qs),
(76,199,o),
(198,265,o),
(298,270,qs),
(392,275,l)
);
}
);
width = 850;
}
);
note = ae;
unicode = 230;
}
{
glyphname = eth;
kernRight = b;
layers = (
{
layerId = m01;
shapes = (
{
closed = 1;
nodes = (
(221,723,o),
(277,689,o),
(298,672,q),
(175,598,l),
(188,578,l),
(317,656,l),
(372,605,o),
(443,463,o),
(457,391,q),
(455,391,l),
(430,423,o),
(350,465,o),
(279,465,qs),
(216,465,o),
(115,406,o),
(57,298,o),
(57,223,qs),
(57,118,o),
(170,-10,o),
(274,-10,qs),
(349,-10,o),
(446,66,o),
(494,195,o),
(494,272,qs),
(494,388,o),
(419,590,o),
(339,669,q),
(443,731,l),
(430,752,l),
(321,685,l),
(299,704,o),
(241,740,o),
(204,757,q),
(191,736,l)
);
},
{
closed = 1;
nodes = (
(410,409,o),
(451,360,o),
(467,307,o),
(467,285,qs),
(467,153,o),
(365,15,o),
(274,15,qs),
(189,15,o),
(84,123,o),
(84,223,qs),
(84,292,o),
(136,389,o),
(224,440,o),
(279,440,qs),
(337,440,o)
);
}
);
width = 554;
}
);
note = eth;
unicode = 240;
}
{
glyphname = divide;
layers = (
{
layerId = m01;
shapes = (
{
closed = 1;
nodes = (
(311,518,o),
(311,531,qs),
(311,543,o),
(302,562,o),
(284,562,qs),
(269,562,o),
(259,543,o),
(259,531,qs),
(259,518,o),
(269,500,o),
(284,500,qs),
(302,500,o)
);
},
{
closed = 1;
nodes = (
(515,365,l),
(55,365,l),
(55,341,l),
(515,341,l)
);
},
{
closed = 1;
nodes = (
(311,162,o),
(311,175,qs),
(311,187,o),
(302,206,o),
(284,206,qs),
(269,206,o),
(259,187,o),
(259,175,qs),
(259,162,o),
(269,144,o),
(284,144,qs),
(302,144,o)
);
}
);
width = 570;
}
);
note = divide;
unicode = 247;
}
{
glyphname = oslash;
kernLeft = c;
kernRight = b;
layers = (
{
layerId = m01;
shapes = (
{
closed = 1;
nodes = (
(487,428,o),
(458,465,q),
(518,539,l),
(499,555,l),
(441,483,l),
(415,509,o),
(341,538,o),
(292,538,qs),
(182,538,o),
(59,390,o),
(59,264,qs),
(59,148,o),
(112,74,q),
(43,-11,l),
(62,-27,l),
(128,54,l),
(156,24,o),
(234,-10,o),
(286,-10,qs),
(365,-10,o),
(466,62,o),
(515,187,o),
(515,264,qs),
(515,324,o)
);
},
{
closed = 1;
nodes = (
(193,513,o),
(292,513,qs),
(336,513,o),
(401,486,o),
(424,463,q),
(128,95,l),
(86,160,o),
(86,264,qs),
(86,381,o)
);
},
{
closed = 1;
nodes = (
(445,79,o),
(356,15,o),
(286,15,qs),
(240,15,o),
(169,46,o),
(144,74,q),
(441,443,l),
(466,409,o),
(488,317,o),
(488,264,qs),
(488,192,o)
);
}
);
width = 575;
}
);
note = oslash;
unicode = 248;
}
{
glyphname = thorn;
kernLeft = b;
kernRight = b;
layers = (
{
layerId = m01;
shapes = (
{
closed = 1;
nodes = (
(418,538,o),
(313,538,qs),
(258,538,o),
(178,501,o),
(128,441,o),
(117,406,q),
(115,406,l),
(116,431,o),
(117,501,o),
(117,525,qs),
(117,760,l),
(91,760,l),
(91,-232,l),
(117,-232,l),
(117,-15,ls),
(117,17,o),
(117,82,o),
(115,116,q),
(117,116,l),
(134,64,o),
(224,-10,o),
(303,-10,qs),
(409,-10,o),
(526,136,o),
(526,269,qs),
(526,401,o)
);
},
{
closed = 1;
nodes = (
(395,15,o),
(303,15,qs),
(218,15,o),
(118,135,o),
(118,262,qs),
(118,265,ls),
(118,382,o),
(217,513,o),
(313,513,qs),
(405,513,o),
(499,393,o),
(499,269,qs),
(499,143,o)
);
}
);
width = 583;
}
);
note = thorn;
unicode = 254;
}
{
glyphname = dcaron;
kernLeft = c;
kernRight = dcaron;
layers = (
{
layerId = m01;
shapes = (
{
closed = 1;
nodes = (
(582,760,l),
(579,739,o),
(563,678,o),
(543,621,o),
(535,606,q),
(535,600,l),
(552,600,l),
(573,635,o),
(602,715,o),
(611,754,q),
(611,760,l)
);
},
{
closed = 1;
nodes = (
(450,63,o),
(468,113,q),
(470,113,l),
(472,0,l),
(494,0,l),
(494,760,l),
(468,760,l),
(468,543,ls),
(468,512,o),
(469,448,o),
(470,414,q),
(468,414,l),
(452,467,o),
(363,538,o),
(291,538,qs),
(179,538,o),
(59,391,o),
(59,254,qs),
(59,126,o),
(169,-10,o),
(283,-10,qs),
(362,-10,o)
);
},
{
closed = 1;
nodes = (
(86,134,o),
(86,254,qs),
(86,384,o),
(192,513,o),
(291,513,qs),
(380,513,o),
(468,386,o),
(468,266,qs),
(468,263,ls),
(468,146,o),
(383,15,o),
(283,15,qs),
(183,15,o)
);
}
);
width = 583;
}
);
note = dcaron;
unicode = 271;
}
{
glyphname = eogonek;
kernLeft = c;
kernRight = b;
layers = (
{
layerId = m01;
shapes = (
{
closed = 1;
nodes = (
(405,-21,o),
(446,18,q),
(453,20,o),
(459,23,q),
(459,50,l),
(413,29,o),
(344,15,o),
(296,15,qs),
(193,15,o),
(85,145,o),
(86,266,q),
(479,266,l),
(479,291,ls),
(479,361,o),
(439,472,o),
(355,538,o),
(287,538,qs),
(210,538,o),
(109,461,o),
(59,334,o),
(59,259,qs),
(59,182,o),
(108,60,o),
(213,-10,o),
(296,-10,qs),
(355,-10,o),
(402,2,q),
(360,-36,o),
(324,-103,o),
(324,-135,qs),
(324,-176,o),
(372,-217,o),
(406,-217,qs),
(422,-217,o),
(448,-212,o),
(456,-209,q),
(456,-185,l),
(437,-192,o),
(408,-192,qs),
(350,-192,o),
(350,-131,qs),
(350,-93,o)
);
},
{
closed = 1;
nodes = (
(453,390,o),
(452,291,q),
(87,291,l),
(96,400,o),
(203,513,o),
(287,513,qs),
(371,513,o)
);
}
);
width = 540;
}
);
note = eogonek;
unicode = 281;
}
{
glyphname = Hbar;
layers = (
{
layerId = m01;
shapes = (
{
closed = 1;
nodes = (
(129,363,l),
(577,363,l),
(577,0,l),
(603,0,l),
(603,549,l),
(706,549,l),
(706,574,l),
(603,574,l),
(603,714,l),
(577,714,l),
(577,574,l),
(129,574,l),
(129,714,l),
(103,714,l),
(103,574,l),
(0,574,l),
(0,549,l),
(103,549,l),
(103,0,l),
(129,0,l)
);
},
{
closed = 1;
nodes = (
(577,549,l),
(577,388,l),
(129,388,l),
(129,549,l)
);
}
);
width = 706;
}
);
note = Hbar;
unicode = 294;
}
{
glyphname = hbar;
layers = (
{
layerId = m01;
shapes = (
{
closed = 1;
nodes = (
(90,655,l),
(16,655,l),
(16,630,l),
(90,630,l),
(90,0,l),
(116,0,l),
(116,302,ls),
(116,410,o),
(223,513,o),
(309,513,qs),
(382,513,o),
(463,433,o),
(463,345,qs),
(463,0,l),
(489,0,l),
(489,346,ls),
(489,444,o),
(395,538,o),
(309,538,qs),
(253,538,o),
(175,504,o),
(127,449,o),
(116,417,q),
(114,417,l),
(115,439,o),
(116,474,o),
(116,496,qs),
(116,630,l),
(358,630,l),
(358,655,l),
(116,655,l),
(116,760,l),
(90,760,l)
);
}
);
width = 573;
}
);
note = hbar;
unicode = 295;
}
{
glyphname = dotlessi;
layers = (
{
layerId = m01;
shapes = (
{
closed = 1;
nodes = (
(90,528,l),
(90,0,l),
(116,0,l),
(116,528,l)
);
}
);
width = 207;
}
);
note = dotlessi;
unicode = 305;
}
{
glyphname = kgreenlandic;
kernLeft = m;
kernRight = x;
layers = (
{
layerId = m01;
shapes = (
{
closed = 1;
nodes = (
(172,268,ls),
(156,250,o),
(132,223,o),
(115,204,q),
(116,251,o),
(116,337,o),
(116,385,qs),
(116,528,l),
(90,528,l),
(90,0,l),
(116,0,l),
(116,172,l),
(216,283,l),
(428,0,l),
(459,0,l),
(234,301,l),
(439,528,l),
(405,528,l)
);
}
);
width = 454;
}
);
note = kgreenlandic;
unicode = 312;
}
{
glyphname = Lcaron;
kernRight = L;
layers = (
{
layerId = m01;
shapes = (
{
closed = 1;
nodes = (
(442,714,l),
(439,693,o),
(423,632,o),
(403,575,o),
(395,560,q),
(395,554,l),
(412,554,l),
(433,589,o),
(462,669,o),
(471,708,q),
(471,714,l)
);
},
{
closed = 1;
nodes = (
(486,25,l),
(129,25,l),
(129,714,l),
(103,714,l),
(103,0,l),
(486,0,l)
);
}
);
width = 506;
}
);
note = Lcaron;
unicode = 317;
}
{
glyphname = lcaron;
kernLeft = b;
kernRight = dcaron;
layers = (
{
layerId = m01;
shapes = (
{
closed = 1;
nodes = (
(199,760,l),
(196,739,o),
(180,678,o),
(160,621,o),
(152,606,q),
(152,600,l),
(169,600,l),
(190,635,o),
(219,715,o),
(228,754,q),
(228,760,l)
);
},
{
closed = 1;
nodes = (
(91,760,l),
(91,0,l),
(117,0,l),
(117,760,l)
);
}
);
width = 207;
}
);
note = lcaron;
unicode = 318;
}
{
glyphname = Lslash;
kernRight = L;
layers = (
{
layerId = m01;
shapes = (
{
closed = 1;
nodes = (
(486,25,l),
(129,25,l),
(129,300,l),
(315,420,l),
(300,441,l),
(129,331,l),
(129,714,l),
(103,714,l),
(103,314,l),
(10,254,l),
(25,233,l),
(103,283,l),
(103,0,l),
(486,0,l)
);
}
);
width = 506;
}
);
note = Lslash;
unicode = 321;
}
{
glyphname = lslash;
layers = (
{
layerId = m01;
shapes = (
{
closed = 1;
nodes = (
(120,356,l),
(213,418,l),
(201,437,l),
(120,383,l),
(120,760,l),
(94,760,l),
(94,368,l),
(10,312,l),
(24,291,l),
(94,339,l),
(94,0,l),
(120,0,l)
);
}
);
width = 207;
}
);
note = lslash;
unicode = 322;
}
{
glyphname = Eng;
layers = (
{
layerId = m01;
shapes = (
{
closed = 1;
nodes = (
(594,-80,o),
(594,3,qs),
(594,714,l),
(568,714,l),
(568,211,ls),
(568,177,o),
(568,99,o),
(569,61,q),
(567,61,l),
(123,714,l),
(103,714,l),
(103,0,l),
(129,0,l),
(129,502,ls),
(129,542,o),
(129,612,o),
(128,655,q),
(130,655,l),
(568,10,l),
(568,-72,o),
(507,-148,o),
(444,-148,qs),
(422,-148,o),
(381,-141,o),
(365,-136,q),
(365,-161,l),
(376,-165,o),
(422,-174,o),
(445,-174,qs),
(519,-174,o)
);
}
);
width = 698;
}
);
note = Eng;
unicode = 330;
}
{
glyphname = eng;
kernLeft = m;
kernRight = a;
layers = (
{
layerId = m01;
shapes = (
{
closed = 1;
nodes = (
(489,-181,o),
(489,-120,qs),
(489,346,ls),
(489,444,o),
(395,538,o),
(309,538,qs),
(253,538,o),
(176,503,o),
(129,448,o),
(117,417,q),
(115,417,l),
(111,528,l),
(90,528,l),
(90,0,l),
(116,0,l),
(116,302,ls),
(116,410,o),
(223,513,o),
(309,513,qs),
(382,513,o),
(463,433,o),
(463,345,qs),
(463,-116,ls),
(463,-162,o),
(424,-215,o),
(384,-215,qs),
(369,-215,o),
(338,-211,o),
(323,-204,q),
(323,-230,l),
(335,-234,o),
(365,-240,o),
(384,-240,qs),
(427,-240,o)
);
}
);
width = 573;
}
);
note = eng;
unicode = 331;
}
{
glyphname = OE;
kernLeft = C;
kernRight = E;
layers = (
{
layerId = m01;
shapes = (
{
closed = 1;
nodes = (
(137,628,o),
(63,467,o),
(63,359,qs),
(63,251,o),
(133,88,o),
(272,-3,o),
(376,-3,qs),
(401,-3,o),
(440,-1,o),
(456,0,qs),
(837,0,l),
(837,25,l),
(478,25,l),
(478,364,l),
(817,364,l),
(817,389,l),
(478,389,l),
(478,689,l),
(837,689,l),
(837,714,l),
(466,714,ls),
(440,715,o),
(404,717,o),
(379,717,qs),
(279,717,o)
);
},
{
closed = 1;
nodes = (
(441,689,o),
(452,688,q),
(452,26,l),
(439,24,o),
(401,22,o),
(376,22,qs),
(279,22,o),
(152,106,o),
(90,258,o),
(90,359,qs),
(90,458,o),
(154,608,o),
(282,692,o),
(379,692,qs),
(404,692,o)
);
}
);
width = 899;
}
);
note = OE;
unicode = 338;
}
{
glyphname = oe;
kernLeft = c;
kernRight = b;
layers = (
{
layerId = m01;
shapes = (
{
closed = 1;
nodes = (
(522,437,o),
(502,360,q),
(486,438,o),
(385,538,o),
(292,538,qs),
(182,538,o),
(59,390,o),
(59,264,qs),
(59,186,o),
(109,62,o),
(210,-10,o),
(286,-10,qs),
(377,-10,o),
(481,87,o),
(500,164,q),
(518,86,o),
(626,-10,o),
(723,-10,qs),
(771,-10,o),
(848,6,o),
(886,23,q),
(886,50,l),
(840,29,o),
(771,15,o),
(723,15,qs),
(620,15,o),
(512,145,o),
(513,266,q),
(906,266,l),
(906,291,ls),
(906,361,o),
(866,472,o),
(782,538,o),
(714,538,qs),
(626,538,o)
);
},
{
closed = 1;
nodes = (
(449,446,o),
(488,333,o),
(488,264,qs),
(488,192,o),
(445,79,o),
(356,15,o),
(286,15,qs),
(219,15,o),
(130,78,o),
(86,191,o),
(86,264,qs),
(86,381,o),
(193,513,o),
(292,513,qs),
(363,513,o)
);
},
{
closed = 1;
nodes = (
(880,390,o),
(879,291,q),
(514,291,l),
(523,400,o),
(630,513,o),
(714,513,qs),
(798,513,o)
);
}
);
width = 967;
}
);
note = oe;
unicode = 339;
}
{
glyphname = tcaron;
kernLeft = t;
kernRight = t;
layers = (
{
layerId = m01;
shapes = (
{
closed = 1;
nodes = (
(337,760,l),
(334,739,o),
(318,678,o),
(298,621,o),
(290,606,q),
(290,600,l),
(307,600,l),
(328,635,o),
(357,715,o),
(366,754,q),
(366,760,l)
);
},
{
closed = 1;
nodes = (
(117,82,o),
(117,143,qs),
(117,503,l),
(289,503,l),
(289,528,l),
(117,528,l),
(117,659,l),
(96,659,l),
(90,528,l),
(10,525,l),
(10,503,l),
(91,503,l),
(91,140,ls),
(91,70,o),
(142,-10,o),
(212,-10,qs),
(238,-10,o),
(275,-2,o),
(291,3,q),
(291,28,l),
(275,22,o),
(237,15,o),
(212,15,qs),
(157,15,o)
);
}
);
width = 319;
}
);
note = tcaron;
unicode = 357;
}
{
glyphname = Tbar;
kernLeft = T;
kernRight = T;
layers = (
{
layerId = m01;
shapes = (
{
closed = 1;
nodes = (
(265,355,l),
(454,355,l),
(454,380,l),
(265,380,l),
(265,689,l),
(503,689,l),
(503,714,l),
(2,714,l),
(2,689,l),
(239,689,l),
(239,380,l),
(49,380,l),
(49,355,l),
(239,355,l),
(239,0,l),
(265,0,l)
);
}
);
width = 505;
}
);
note = Tbar;
unicode = 358;
}
{
glyphname = tbar;
kernLeft = t;
kernRight = t;
layers = (
{
layerId = m01;
shapes = (
{
closed = 1;
nodes = (
(117,82,o),
(117,143,qs),
(117,285,l),
(270,285,l),
(270,310,l),
(117,310,l),
(117,503,l),
(289,503,l),
(289,528,l),
(117,528,l),
(117,659,l),
(96,659,l),
(90,528,l),
(10,525,l),
(10,503,l),
(91,503,l),
(91,310,l),
(18,310,l),
(18,285,l),
(91,285,l),
(91,140,ls),
(91,70,o),
(142,-10,o),
(212,-10,qs),
(238,-10,o),
(275,-2,o),
(291,3,q),
(291,28,l),
(275,22,o),
(237,15,o),
(212,15,qs),
(157,15,o)
);
}
);
width = 319;
}
);
note = tbar;
unicode = 359;
}
{
glyphname = Uogonek;
kernLeft = U;
kernRight = U;
layers = (
{
layerId = m01;
shapes = (
{
closed = 1;
nodes = (
(457,-34,o),
(495,12,o),
(513,30,q),
(562,61,o),
(618,171,o),
(618,252,qs),
(618,714,l),
(592,714,l),
(592,244,ls),
(592,130,o),
(463,15,o),
(356,15,qs),
(244,15,o),
(121,136,o),
(121,256,qs),
(121,714,l),
(95,714,l),
(95,254,ls),
(95,124,o),
(231,-10,o),
(355,-10,qs),
(417,-10,o),
(466,7,q),
(439,-23,o),
(406,-89,o),
(406,-126,qs),
(406,-175,o),
(453,-217,o),
(487,-217,qs),
(503,-217,o),
(529,-212,o),
(537,-209,q),
(537,-185,l),
(518,-192,o),
(489,-192,qs),
(460,-192,o),
(431,-159,o),
(431,-122,qs),
(431,-90,o)
);
}
);
width = 712;
}
);
note = Uogonek;
unicode = 370;
}
{
glyphname = longs;
layers = (
{
layerId = m01;
shapes = (
{
closed = 1;
nodes = (
(291,735,o),
(307,730,q),
(310,756,l),
(293,761,o),
(260,765,o),
(240,765,qs),
(167,765,o),
(91,667,o),
(91,585,qs),
(91,0,l),
(117,0,l),
(117,582,ls),
(117,659,o),
(178,740,o),
(240,740,qs),
(262,740,o)
);
}
);
width = 294;
}
);
note = longs;
unicode = 383;
}
{
glyphname = uni0180;
layers = (
{
layerId = m01;
shapes = (
{
closed = 1;
nodes = (
(477,65,o),
(524,190,o),
(524,266,qs),
(524,400,o),
(416,539,o),
(311,539,qs),
(235,539,o),
(132,464,o),
(115,406,q),
(113,406,l),
(114,431,o),
(115,501,o),
(115,525,qs),
(115,630,l),
(357,630,l),
(357,655,l),
(115,655,l),
(115,760,l),
(89,760,l),
(89,655,l),
(15,655,l),
(15,630,l),
(89,630,l),
(89,0,l),
(111,0,l),
(115,104,l),
(117,104,l),
(135,55,o),
(224,-10,o),
(295,-10,qs),
(376,-10,o)
);
},
{
closed = 1;
nodes = (
(115,137,o),
(115,253,qs),
(115,263,ls),
(115,380,o),
(211,514,o),
(311,514,qs),
(497,514,o),
(497,266,qs),
(497,146,o),
(394,15,o),
(295,15,qs),
(204,15,o)
);
}
);
width = 583;
}
);
note = uni0180;
unicode = 384;
}
{
glyphname = uni0181;
layers = (
{
layerId = m01;
shapes = (
{
closed = 1;
nodes = (
(450,0,o),
(565,40,o),
(631,130,o),
(631,203,qs),
(631,271,o),
(561,362,o),
(472,375,q),
(472,377,l),
(541,389,o),
(613,481,o),
(613,542,qs),
(613,628,o),
(499,714,o),
(368,714,qs),
(149,714,ls),
(79,714,o),
(10,642,o),
(10,590,qs),
(10,554,o),
(19,533,q),
(45,533,l),
(42,540,o),
(35,571,o),
(35,587,qs),
(35,634,o),
(90,689,o),
(151,689,qs),
(177,689,l),
(177,0,l),
(377,0,ls)
);
},
{
closed = 1;
nodes = (
(203,689,l),
(365,689,ls),
(481,689,o),
(586,620,o),
(586,541,qs),
(586,388,o),
(377,388,qs),
(203,388,l)
);
},
{
closed = 1;
nodes = (
(203,363,l),
(374,363,ls),
(446,363,o),
(549,334,o),
(604,264,o),
(604,202,qs),
(604,110,o),
(487,25,o),
(385,25,qs),
(203,25,l)
);
}
);
width = 687;
}
);
note = uni0181;
unicode = 385;
}
{
glyphname = uni0183;
layers = (
{
layerId = m01;
shapes = (
{
closed = 1;
nodes = (
(477,65,o),
(524,190,o),
(524,266,qs),
(524,400,o),
(416,539,o),
(311,539,qs),
(235,539,o),
(132,464,o),
(115,406,q),
(113,406,l),
(114,431,o),
(115,501,o),
(115,525,qs),
(115,735,l),
(465,735,l),
(465,760,l),
(89,760,l),
(89,0,l),
(111,0,l),
(115,104,l),
(117,104,l),
(135,55,o),
(224,-10,o),
(295,-10,qs),
(376,-10,o)
);
},
{
closed = 1;
nodes = (
(115,137,o),
(115,253,qs),
(115,263,ls),
(115,380,o),
(211,514,o),
(311,514,qs),
(497,514,o),
(497,266,qs),
(497,146,o),
(394,15,o),
(295,15,qs),
(204,15,o)
);
}
);
width = 583;
}
);
note = uni0183;
unicode = 387;
}
{
glyphname = uni0184;
layers = (
{
layerId = m01;
shapes = (
{
closed = 1;
nodes = (
(512,111,o),
(512,203,qs),
(512,275,o),
(455,358,o),
(351,393,o),
(279,393,qs),
(129,393,l),
(129,714,l),
(103,714,l),
(103,238,ls),
(103,0,o),
(315,0,qs),
(410,0,o)
);
},
{
closed = 1;
nodes = (
(129,133,o),
(129,246,qs),
(129,368,l),
(274,368,ls),
(341,368,o),
(435,339,o),
(485,267,o),
(485,203,qs),
(485,120,o),
(396,25,o),
(316,25,qs),
(222,25,o)
);
}
);
width = 579;
}
);
note = uni0184;
unicode = 388;
}
{
glyphname = uni0185;
layers = (
{
layerId = m01;
shapes = (
{
closed = 1;
nodes = (
(480,65,o),
(524,190,o),
(524,266,qs),
(524,400,o),
(416,539,o),
(311,539,qs),
(232,539,o),
(131,460,o),
(115,406,q),
(113,406,l),
(114,431,o),
(115,501,o),
(115,525,qs),
(115,760,l),
(89,760,l),
(89,252,ls),
(89,123,o),
(201,-10,o),
(304,-10,qs),
(383,-10,o)
);
},
{
closed = 1;
nodes = (
(115,253,qs),
(115,263,ls),
(115,380,o),
(211,514,o),
(311,514,qs),
(497,514,o),
(497,266,qs),
(497,146,o),
(401,15,o),
(304,15,qs),
(115,15,o)
);
}
);
width = 583;
}
);
note = uni0185;
unicode = 389;
}
{
glyphname = uni0186;
layers = (
{
layerId = m01;
shapes = (
{
closed = 1;
nodes = (
(473,92,o),
(551,267,o),
(551,376,qs),
(551,480,o),
(484,637,o),
(346,724,o),
(238,724,qs),
(182,724,o),
(79,700,o),
(39,681,q),
(49,656,l),
(92,679,o),
(192,699,o),
(237,699,qs),
(335,699,o),
(462,619,o),
(524,474,o),
(524,376,qs),
(524,273,o),
(452,109,o),
(312,15,o),
(208,15,qs),
(153,15,o),
(70,31,o),
(34,44,q),
(34,19,l),
(67,6,o),
(150,-10,o),
(206,-10,qs),
(320,-10,o)
);
}
);
width = 614;
}
);
note = uni0186;
unicode = 390;
}
{
glyphname = uni0187;
layers = (
{
layerId = m01;
shapes = (
{
closed = 1;
nodes = (
(558,809,o),
(558,762,qs),
(558,697,l),
(486,724,o),
(405,724,qs),
(298,724,o),
(145,629,o),
(63,464,o),
(63,360,qs),
(63,249,o),
(136,83,o),
(280,-10,o),
(386,-10,qs),
(445,-10,o),
(537,8,o),
(570,21,q),
(570,44,l),
(534,31,o),
(444,15,o),
(386,15,qs),
(288,15,o),
(156,101,o),
(90,257,o),
(90,360,qs),
(90,458,o),
(164,611,o),
(305,699,o),
(405,699,qs),
(446,699,o),
(530,685,o),
(573,662,q),
(583,687,l),
(583,757,ls),
(583,798,o),
(616,834,o),
(646,834,qs),
(664,834,o),
(692,827,o),
(700,823,q),
(700,849,l),
(693,852,o),
(664,858,o),
(644,858,qs),
(606,858,o)
);
}
);
width = 614;
}
);
note = uni0187;
unicode = 391;
}
{
glyphname = uni0188;
layers = (
{
layerId = m01;
shapes = (
{
closed = 1;
nodes = (
(413,6,o),
(438,16,q),
(438,41,l),
(409,29,o),
(338,15,o),
(302,15,qs),
(226,15,o),
(131,81,o),
(86,193,o),
(86,261,qs),
(86,335,o),
(143,449,o),
(247,513,o),
(319,513,qs),
(348,513,o),
(407,503,o),
(437,489,q),
(442,514,l),
(442,657,ls),
(442,708,o),
(478,746,o),
(510,746,qs),
(527,746,o),
(550,740,o),
(557,737,q),
(557,762,l),
(549,765,o),
(529,770,o),
(510,770,qs),
(468,770,o),
(417,718,o),
(417,662,qs),
(417,524,l),
(395,531,o),
(347,538,o),
(319,538,qs),
(238,538,o),
(122,467,o),
(59,342,o),
(59,261,qs),
(59,184,o),
(110,61,o),
(218,-10,o),
(302,-10,qs),
(343,-10,o)
);
}
);
width = 458;
}
);
note = uni0188;
unicode = 392;
}
{
glyphname = uni018A;
layers = (
{
layerId = m01;
shapes = (
{
closed = 1;
nodes = (
(515,0,o),
(698,185,o),
(698,364,qs),
(698,534,o),
(527,714,o),
(350,714,qs),
(149,714,ls),
(81,714,o),
(9,646,o),
(9,590,qs),
(9,556,o),
(19,533,q),
(45,533,l),
(42,540,o),
(35,571,o),
(35,587,qs),
(35,634,o),
(90,689,o),
(151,689,qs),
(173,689,l),
(173,0,l),
(327,0,ls)
);
},
{
closed = 1;
nodes = (
(199,689,l),
(340,689,ls),
(514,689,o),
(671,522,o),
(671,363,qs),
(671,25,o),
(330,25,qs),
(199,25,l)
);
}
);
width = 762;
}
);
note = uni018A;
unicode = 394;
}
{
glyphname = uni018B;
layers = (
{
layerId = m01;
shapes = (
{
closed = 1;
nodes = (
(470,714,l),
(92,714,l),
(92,690,l),
(444,690,l),
(444,409,l),
(317,409,ls),
(238,409,o),
(121,367,o),
(57,273,o),
(57,195,qs),
(57,91,o),
(184,0,o),
(303,0,qs),
(470,0,l)
);
},
{
closed = 1;
nodes = (
(84,105,o),
(84,196,qs),
(84,269,o),
(143,351,o),
(249,384,o),
(319,384,qs),
(444,384,l),
(444,25,l),
(307,25,ls),
(193,25,o)
);
}
);
width = 583;
}
);
note = uni018B;
unicode = 395;
}
{
glyphname = uni018D;
layers = (
{
layerId = m01;
shapes = (
{
closed = 1;
nodes = (
(119,475,o),
(67,371,o),
(67,307,qs),
(67,234,o),
(121,139,o),
(212,71,o),
(265,40,qs),
(311,14,o),
(374,-27,o),
(406,-72,o),
(406,-106,qs),
(406,-158,o),
(334,-212,o),
(266,-212,qs),
(217,-212,o),
(141,-183,o),
(112,-161,q),
(99,-185,l),
(130,-210,o),
(220,-237,o),
(266,-237,qs),
(344,-237,o),
(433,-168,o),
(433,-105,qs),
(433,-68,o),
(403,-18,o),
(342,25,o),
(297,51,q),
(416,87,o),
(518,218,o),
(518,307,qs),
(518,376,o),
(462,480,o),
(361,538,o),
(291,538,qs),
(219,538,o)
);
},
{
closed = 1;
nodes = (
(441,462,o),
(491,369,o),
(491,307,qs),
(491,208,o),
(376,95,o),
(272,64,q),
(219,93,o),
(139,160,o),
(94,247,o),
(94,307,qs),
(94,367,o),
(140,460,o),
(228,513,o),
(291,513,qs),
(352,513,o)
);
}
);
width = 567;
}
);
note = uni018D;
unicode = 397;
}
{
glyphname = uni018E;
layers = (
{
layerId = m01;
shapes = (
{
closed = 1;
nodes = (
(447,714,l),
(62,714,l),
(62,689,l),
(421,689,l),
(421,389,l),
(82,389,l),
(82,364,l),
(421,364,l),
(421,25,l),
(62,25,l),
(62,0,l),
(447,0,l)
);
}
);
width = 550;
}
);
note = uni018E;
unicode = 398;
}
{
glyphname = uni0191;
layers = (
{
layerId = m01;
shapes = (
{
closed = 1;
nodes = (
(258,-150,o),
(258,-78,qs),
(258,359,l),
(579,359,l),
(579,384,l),
(258,384,l),
(258,689,l),
(598,689,l),
(598,714,l),
(232,714,l),
(232,-77,ls),
(232,-142,o),
(179,-221,o),
(123,-221,qs),
(77,-221,o),
(21,-167,o),
(21,-121,qs),
(21,-98,o),
(28,-70,o),
(31,-62,q),
(4,-53,l),
(0,-66,o),
(-6,-100,o),
(-6,-120,qs),
(-6,-178,o),
(66,-245,o),
(125,-245,qs),
(196,-245,o)
);
}
);
width = 601;
}
);
note = uni0191;
unicode = 401;
}
{
glyphname = fhook;
layers = (
{
layerId = m01;
shapes = (
{
closed = 1;
nodes = (
(239,-168,o),
(239,-98,qs),
(239,503,l),
(358,503,l),
(358,528,l),
(239,528,l),
(239,603,ls),
(239,677,o),
(293,740,o),
(357,740,qs),
(376,740,o),
(417,734,o),
(435,727,q),
(439,753,l),
(420,758,o),
(382,765,o),
(357,765,qs),
(280,765,o),
(213,681,o),
(213,603,qs),
(213,528,l),
(111,525,l),
(111,503,l),
(213,503,l),
(213,-97,ls),
(213,-159,o),
(159,-221,o),
(116,-221,qs),
(68,-221,o),
(24,-167,o),
(24,-120,qs),
(24,-103,o),
(29,-81,o),
(31,-75,q),
(5,-66,l),
(2,-76,o),
(-3,-102,o),
(-3,-119,qs),
(-3,-177,o),
(57,-245,o),
(118,-245,qs),
(176,-245,o)
);
}
);
width = 374;
}
);
note = fhook;
unicode = 402;
}
{
glyphname = Gammalatin;
layers = (
{
layerId = m01;
shapes = (
{
closed = 1;
nodes = (
(385,-177,o),
(385,-128,qs),
(385,-69,o),
(338,42,o),
(304,109,q),
(574,714,l),
(544,714,l),
(343,260,ls),
(324,216,o),
(296,152,o),
(288,132,q),
(280,152,o),
(250,218,o),
(231,259,qs),
(27,714,l),
(-3,714,l),
(272,108,l),
(237,41,o),
(187,-74,o),
(187,-128,qs),
(187,-178,o),
(239,-240,o),
(285,-240,qs),
(333,-240,o)
);
},
{
closed = 1;
nodes = (
(214,-170,o),
(214,-126,qs),
(214,-77,o),
(260,28,o),
(288,83,q),
(314,28,o),
(358,-74,o),
(358,-126,qs),
(358,-169,o),
(321,-215,o),
(287,-215,qs),
(254,-215,o)
);
}
);
width = 618;
}
);
note = Gammalatin;
unicode = 404;
}
{
glyphname = uni0195;
layers = (
{
layerId = m01;
shapes = (
{
closed = 1;
nodes = (
(820,94,o),
(820,186,qs),
(820,544,l),
(794,544,l),
(794,189,ls),
(794,101,o),
(724,13,o),
(645,13,qs),
(563,13,o),
(489,101,o),
(489,194,qs),
(489,346,ls),
(489,444,o),
(395,538,o),
(309,538,qs),
(253,538,o),
(175,504,o),
(127,449,o),
(116,417,q),
(114,417,l),
(115,439,o),
(116,474,o),
(116,496,qs),
(116,760,l),
(90,760,l),
(90,0,l),
(116,0,l),
(116,302,ls),
(116,410,o),
(223,513,o),
(309,513,qs),
(382,513,o),
(463,433,o),
(463,345,qs),
(463,188,ls),
(463,92,o),
(550,-12,o),
(645,-12,qs),
(733,-12,o)
);
}
);
width = 899;
}
);
note = uni0195;
unicode = 405;
}
{
glyphname = Iotalatin;
layers = (
{
layerId = m01;
shapes = (
{
closed = 1;
nodes = (
(271,-2,o),
(285,4,q),
(285,29,l),
(268,22,o),
(234,15,o),
(212,15,qs),
(168,15,o),
(116,67,o),
(116,135,qs),
(116,714,l),
(90,714,l),
(90,126,ls),
(90,53,o),
(156,-10,o),
(208,-10,qs),
(233,-10,o)
);
}
);
width = 297;
}
);
note = Iotalatin;
unicode = 406;
}
{
glyphname = uni0197;
layers = (
{
layerId = m01;
shapes = (
{
closed = 1;
nodes = (
(61,694,l),
(129,690,l),
(129,389,l),
(36,389,l),
(36,364,l),
(129,364,l),
(129,23,l),
(61,20,l),
(61,0,l),
(223,0,l),
(223,20,l),
(155,23,l),
(155,364,l),
(247,364,l),
(247,389,l),
(155,389,l),
(155,690,l),
(223,694,l),
(223,714,l),
(61,714,l)
);
}
);
width = 283;
}
);
note = uni0197;
unicode = 407;
}
{
glyphname = uni0198;
layers = (
{
layerId = m01;
shapes = (
{
closed = 1;
nodes = (
(483,680,o),
(440,638,qs),
(179,376,ls),
(166,363,o),
(140,337,o),
(129,324,q),
(129,714,l),
(103,714,l),
(103,0,l),
(129,0,l),
(129,293,l),
(234,398,l),
(524,0,l),
(558,0,l),
(254,417,l),
(473,636,ls),
(501,663,o),
(550,695,o),
(577,695,qs),
(588,695,o),
(605,691,o),
(611,689,q),
(611,714,l),
(605,716,o),
(589,720,o),
(578,720,qs),
(542,720,o)
);
}
);
width = 618;
}
);
note = uni0198;
unicode = 408;
}
{
glyphname = uni0199;
layers = (
{
layerId = m01;
shapes = (
{
closed = 1;
nodes = (
(90,689,o),
(90,624,qs),
(90,0,l),
(116,0,l),
(116,172,l),
(216,283,l),
(428,0,l),
(459,0,l),
(234,301,l),
(439,528,l),
(405,528,l),
(172,268,ls),
(156,251,o),
(130,221,o),
(117,205,q),
(115,205,l),
(116,252,o),
(116,338,o),
(116,385,qs),
(116,621,ls),
(116,738,o),
(213,738,qs),
(226,738,o),
(246,736,o),
(253,734,q),
(253,759,l),
(246,761,o),
(225,763,o),
(214,763,qs),
(154,763,o)
);
}
);
width = 454;
}
);
note = uni0199;
unicode = 409;
}
{
glyphname = uni019A;
layers = (
{
layerId = m01;
shapes = (
{
closed = 1;
nodes = (
(117,368,l),
(195,368,l),
(195,393,l),
(117,393,l),
(117,760,l),
(91,760,l),
(91,393,l),
(12,393,l),
(12,368,l),
(91,368,l),
(91,0,l),
(117,0,l)
);
}
);
width = 207;
}
);
note = uni019A;
unicode = 410;
}
{
glyphname = uni019B;
layers = (
{
layerId = m01;
shapes = (
{
closed = 1;
nodes = (
(207,433,ls),
(215,450,o),
(228,486,o),
(235,504,q),
(237,504,l),
(242,485,o),
(255,450,o),
(263,426,qs),
(390,55,ls),
(401,24,o),
(431,-8,o),
(459,-8,qs),
(469,-8,o),
(482,-5,o),
(487,-3,q),
(487,21,l),
(483,20,o),
(470,17,o),
(462,17,qs),
(448,17,o),
(425,36,o),
(415,64,qs),
(227,613,l),
(349,648,l),
(342,672,l),
(219,637,l),
(202,687,o),
(172,743,o),
(132,766,o),
(98,766,qs),
(81,766,o),
(58,762,o),
(48,759,q),
(48,733,l),
(57,736,o),
(79,741,o),
(92,741,qs),
(132,741,o),
(172,694,o),
(193,630,q),
(76,596,l),
(83,572,l),
(201,606,l),
(224,537,l),
(-6,0,l),
(24,0,l)
);
}
);
width = 480;
}
);
note = uni019B;
unicode = 411;
}
{
glyphname = uni019C;
layers = (
{
layerId = m01;
shapes = (
{
closed = 1;
nodes = (
(453,59,o),
(472,113,q),
(474,113,l),
(490,58,o),
(570,-10,o),
(651,-10,qs),
(713,-10,o),
(788,25,o),
(831,78,o),
(841,104,q),
(843,104,l),
(847,0,l),
(868,0,l),
(868,714,l),
(842,714,l),
(842,233,ls),
(842,151,o),
(794,56,o),
(708,15,o),
(651,15,qs),
(574,15,o),
(491,95,o),
(491,198,qs),
(491,714,l),
(465,714,l),
(465,233,ls),
(465,151,o),
(419,56,o),
(334,15,o),
(274,15,qs),
(197,15,o),
(114,95,o),
(114,198,qs),
(114,714,l),
(88,714,l),
(88,197,ls),
(88,84,o),
(184,-10,o),
(274,-10,qs),
(360,-10,o)
);
}
);
width = 961;
}
);
note = uni019C;
unicode = 412;
}
{
glyphname = uni019D;
layers = (
{
layerId = m01;
shapes = (
{
closed = 1;
nodes = (
(129,-88,o),
(129,-34,qs),
(129,502,ls),
(129,542,o),
(129,612,o),
(128,655,q),
(130,655,l),
(575,0,l),
(594,0,l),
(594,714,l),
(568,714,l),
(568,211,ls),
(568,177,o),
(568,99,o),
(569,61,q),
(567,61,l),
(123,714,l),
(103,714,l),
(103,-30,ls),
(103,-72,o),
(66,-119,o),
(32,-119,qs),
(15,-119,o),
(-11,-113,o),
(-25,-109,q),
(-25,-136,l),
(-13,-140,o),
(12,-144,o),
(31,-144,qs),
(72,-144,o)
);
}
);
width = 698;
}
);
note = uni019D;
unicode = 413;
}
{
glyphname = ohorn;
kernLeft = c;
kernRight = ohorn;
layers = (
{
layerId = m01;
shapes = (
{
closed = 1;
nodes = (
(494,407,o),
(473,442,q),
(511,459,o),
(560,534,o),
(561,605,q),
(556,610,l),
(534,610,l),
(534,540,o),
(490,476,o),
(459,464,q),
(432,499,o),
(350,538,o),
(292,538,qs),
(182,538,o),
(59,390,o),
(59,264,qs),
(59,186,o),
(109,62,o),
(210,-10,o),
(286,-10,qs),
(365,-10,o),
(466,62,o),
(515,187,o),
(515,264,qs),
(515,316,o)
);
},
{
closed = 1;
nodes = (
(193,513,o),
(292,513,qs),
(363,513,o),
(449,446,o),
(488,333,o),
(488,264,qs),
(488,192,o),
(445,79,o),
(356,15,o),
(286,15,qs),
(219,15,o),
(130,78,o),
(86,191,o),
(86,264,qs),
(86,381,o)
);
}
);
width = 568;
}
);
note = ohorn;
unicode = 417;
}
{
glyphname = uni01A2;
layers = (
{
layerId = m01;
shapes = (
{
closed = 1;
nodes = (
(640,553,o),
(612,598,q),
(634,645,o),
(717,698,o),
(773,698,qs),
(849,698,o),
(936,602,o),
(936,507,qs),
(936,0,l),
(962,0,l),
(962,513,ls),
(962,616,o),
(860,723,o),
(775,723,qs),
(708,723,o),
(619,664,o),
(596,622,q),
(518,725,o),
(372,725,qs),
(275,725,o),
(136,632,o),
(63,467,o),
(63,359,qs),
(63,251,o),
(132,85,o),
(267,-10,o),
(366,-10,qs),
(467,-10,o),
(602,84,o),
(670,250,o),
(670,358,qs),
(670,432,o)
);
},
{
closed = 1;
nodes = (
(154,612,o),
(279,700,o),
(372,700,qs),
(500,700,o),
(643,521,o),
(643,358,qs),
(643,257,o),
(583,102,o),
(460,15,o),
(367,15,qs),
(275,15,o),
(151,104,o),
(90,259,o),
(90,359,qs),
(90,458,o)
);
}
);
width = 1057;
}
);
note = uni01A2;
unicode = 418;
}
{
glyphname = uni01A3;
layers = (
{
layerId = m01;
shapes = (
{
closed = 1;
nodes = (
(488,425,o),
(460,462,q),
(482,485,o),
(539,513,o),
(580,513,qs),
(640,513,o),
(702,438,o),
(702,359,qs),
(702,-240,l),
(728,-240,l),
(728,362,ls),
(728,448,o),
(653,538,o),
(580,538,qs),
(530,538,o),
(464,502,o),
(444,481,q),
(417,508,o),
(342,538,o),
(292,538,qs),
(182,538,o),
(59,390,o),
(59,264,qs),
(59,186,o),
(109,62,o),
(210,-10,o),
(286,-10,qs),
(365,-10,o),
(466,62,o),
(515,187,o),
(515,264,qs),
(515,323,o)
);
},
{
closed = 1;
nodes = (
(193,513,o),
(292,513,qs),
(363,513,o),
(449,446,o),
(488,333,o),
(488,264,qs),
(488,192,o),
(445,79,o),
(356,15,o),
(286,15,qs),
(219,15,o),
(130,78,o),
(86,191,o),
(86,264,qs),
(86,381,o)
);
}
);
width = 812;
}
);
note = uni01A3;
unicode = 419;
}
{
glyphname = uni01A4;
layers = (
{
layerId = m01;
shapes = (
{
closed = 1;
nodes = (
(199,305,l),
(326,305,ls),
(405,305,o),
(522,347,o),
(586,442,o),
(586,519,qs),
(586,623,o),
(459,714,o),
(340,714,qs),
(149,714,ls),
(79,714,o),
(10,642,o),
(10,590,qs),
(10,554,o),
(19,533,q),
(45,533,l),
(42,540,o),
(35,571,o),
(35,587,qs),
(35,634,o),
(90,689,o),
(151,689,qs),
(173,689,l),
(173,0,l),
(199,0,l)
);
},
{
closed = 1;
nodes = (
(199,689,l),
(336,689,ls),
(450,689,o),
(559,609,o),
(559,518,qs),
(559,445,o),
(500,363,o),
(394,330,o),
(324,330,qs),
(199,330,l)
);
}
);
width = 643;
}
);
note = uni01A4;
unicode = 420;
}
{
glyphname = uni01A5;
layers = (
{
layerId = m01;
shapes = (
{
closed = 1;
nodes = (
(92,691,o),
(92,625,qs),
(92,-232,l),
(118,-232,l),
(118,-15,ls),
(118,17,o),
(118,82,o),
(116,116,q),
(118,116,l),
(135,64,o),
(225,-10,o),
(304,-10,qs),
(410,-10,o),
(527,136,o),
(527,269,qs),
(527,401,o),
(419,538,o),
(314,538,qs),
(259,538,o),
(179,501,o),
(129,441,o),
(118,406,q),
(116,406,l),
(117,431,o),
(118,501,o),
(118,525,qs),
(118,622,ls),
(118,684,o),
(168,740,o),
(218,740,qs),
(238,740,o),
(270,735,o),
(281,731,q),
(281,757,l),
(271,760,o),
(239,765,o),
(218,765,qs),
(157,765,o)
);
},
{
closed = 1;
nodes = (
(500,393,o),
(500,269,qs),
(500,143,o),
(396,15,o),
(304,15,qs),
(219,15,o),
(119,135,o),
(119,262,qs),
(119,265,ls),
(119,382,o),
(218,513,o),
(314,513,qs),
(406,513,o)
);
}
);
width = 583;
}
);
note = uni01A5;
unicode = 421;
}
{
glyphname = uni01A6;
layers = (
{
layerId = m01;
shapes = (
{
closed = 1;
nodes = (
(355,227,l),
(431,247,o),
(516,346,o),
(516,425,qs),
(516,499,o),
(458,581,o),
(345,614,o),
(262,614,qs),
(129,614,l),
(129,714,l),
(103,714,l),
(103,0,l),
(129,0,l),
(129,220,l),
(327,220,l),
(518,-100,l),
(551,-100,l)
);
},
{
closed = 1;
nodes = (
(129,589,l),
(257,589,ls),
(335,589,o),
(438,560,o),
(489,488,o),
(489,424,qs),
(489,339,o),
(379,245,o),
(292,245,qs),
(129,245,l)
);
}
);
width = 577;
}
);
note = uni01A6;
unicode = 422;
}
{
glyphname = uni01A7;
layers = (
{
layerId = m01;
shapes = (
{
closed = 1;
nodes = (
(123,703,o),
(79,683,q),
(87,661,l),
(132,681,o),
(226,699,o),
(266,699,qs),
(351,699,o),
(456,633,o),
(456,553,qs),
(456,501,o),
(406,438,o),
(320,396,o),
(267,375,qs),
(206,351,o),
(107,302,o),
(50,229,o),
(50,167,qs),
(50,105,o),
(111,27,o),
(215,-10,o),
(280,-10,qs),
(349,-10,o),
(450,12,o),
(483,23,q),
(483,50,l),
(443,36,o),
(343,15,o),
(282,15,qs),
(226,15,o),
(132,46,o),
(77,114,o),
(77,169,qs),
(77,221,o),
(127,285,o),
(218,329,o),
(278,352,qs),
(336,374,o),
(429,423,o),
(483,497,o),
(483,556,qs),
(483,646,o),
(363,724,o),
(267,724,qs),
(220,724,o)
);
}
);
width = 543;
}
);
note = uni01A7;
unicode = 423;
}
{
glyphname = uni01A8;
layers = (
{
layerId = m01;
shapes = (
{
closed = 1;
nodes = (
(90,521,o),
(58,508,q),
(67,483,l),
(95,497,o),
(180,513,o),
(220,513,qs),
(292,513,o),
(371,463,o),
(371,410,qs),
(371,372,o),
(327,327,o),
(257,300,o),
(216,286,qs),
(170,271,o),
(87,235,o),
(35,177,o),
(35,127,qs),
(35,60,o),
(126,-10,o),
(225,-10,qs),
(280,-10,o),
(379,12,o),
(407,25,q),
(407,51,l),
(370,35,o),
(275,15,o),
(228,15,qs),
(137,15,o),
(62,74,o),
(62,129,qs),
(62,167,o),
(105,215,o),
(179,248,o),
(225,262,qs),
(272,277,o),
(350,310,o),
(398,366,o),
(398,412,qs),
(398,476,o),
(306,538,o),
(222,538,qs),
(175,538,o)
);
}
);
width = 458;
}
);
note = uni01A8;
unicode = 424;
}
{
glyphname = uni01AA;
layers = (
{
layerId = m01;
shapes = (
{
closed = 1;
nodes = (
(-10,701,o),
(-10,652,qs),
(-10,596,o),
(62,539,o),
(122,539,qs),
(212,539,l),
(212,-98,ls),
(212,-167,o),
(280,-237,o),
(341,-237,qs),
(376,-237,o),
(399,-227,q),
(399,-202,l),
(389,-206,o),
(360,-212,o),
(340,-212,qs),
(294,-212,o),
(238,-157,o),
(238,-91,qs),
(238,634,ls),
(238,694,o),
(173,765,o),
(115,765,qs),
(57,765,o)
);
},
{
closed = 1;
nodes = (
(212,685,o),
(212,623,qs),
(212,564,l),
(129,564,ls),
(71,564,o),
(17,611,o),
(17,653,qs),
(17,691,o),
(67,740,o),
(113,740,qs),
(160,740,o)
);
}
);
width = 351;
}
);
note = uni01AA;
unicode = 426;
}
{
glyphname = uni01AB;
layers = (
{
layerId = m01;
shapes = (
{
closed = 1;
nodes = (
(291,-183,o),
(291,-131,qs),
(291,28,l),
(275,22,o),
(237,15,o),
(212,15,qs),
(157,15,o),
(117,82,o),
(117,143,qs),
(117,503,l),
(289,503,l),
(289,528,l),
(117,528,l),
(117,659,l),
(96,659,l),
(90,528,l),
(10,525,l),
(10,503,l),
(91,503,l),
(91,140,ls),
(91,70,o),
(142,-10,o),
(212,-10,qs),
(244,-10,o),
(266,-4,q),
(266,-128,ls),
(266,-173,o),
(224,-216,o),
(189,-216,qs),
(171,-216,o),
(141,-209,o),
(129,-203,q),
(129,-229,l),
(139,-233,o),
(166,-240,o),
(187,-240,qs),
(234,-240,o)
);
}
);
width = 319;
}
);
note = uni01AB;
unicode = 427;
}
{
glyphname = uni01AC;
layers = (
{
layerId = m01;
shapes = (
{
closed = 1;
nodes = (
(265,689,l),
(503,689,l),
(503,714,l),
(154,714,ls),
(78,714,o),
(9,640,o),
(9,589,qs),
(9,570,o),
(16,540,o),
(20,531,q),
(48,531,l),
(45,538,o),
(36,569,o),
(36,588,qs),
(36,634,o),
(92,689,o),
(156,689,qs),
(239,689,l),
(239,0,l),
(265,0,l)
);
}
);
width = 493;
}
);
note = uni01AC;
unicode = 428;
}
{
glyphname = uni01AD;
layers = (
{
layerId = m01;
shapes = (
{
closed = 1;
nodes = (
(92,708,o),
(92,656,qs),
(92,528,l),
(10,525,l),
(10,503,l),
(91,503,l),
(91,140,ls),
(91,70,o),
(142,-10,o),
(212,-10,qs),
(238,-10,o),
(275,-2,o),
(291,3,q),
(291,28,l),
(275,22,o),
(237,15,o),
(212,15,qs),
(157,15,o),
(117,82,o),
(117,143,qs),
(117,503,l),
(289,503,l),
(289,528,l),
(117,528,l),
(117,653,ls),
(117,698,o),
(159,741,o),
(194,741,qs),
(212,741,o),
(242,734,o),
(254,728,q),
(254,754,l),
(244,759,o),
(217,765,o),
(196,765,qs),
(150,765,o)
);
}
);
width = 319;
}
);
note = uni01AD;
unicode = 429;
}
{
glyphname = uni01AE;
layers = (
{
layerId = m01;
shapes = (
{
closed = 1;
nodes = (
(426,-143,q),
(426,-118,l),
(416,-122,o),
(387,-128,o),
(367,-128,qs),
(321,-128,o),
(265,-73,o),
(265,-7,qs),
(265,689,l),
(503,689,l),
(503,714,l),
(2,714,l),
(2,689,l),
(239,689,l),
(239,-14,ls),
(239,-83,o),
(307,-153,o),
(368,-153,qs),
(403,-153,o)
);
}
);
width = 505;
}
);
note = uni01AE;
unicode = 430;
}
{
glyphname = Uhorn;
kernLeft = U;
kernRight = Uhorn;
layers = (
{
layerId = m01;
shapes = (
{
closed = 1;
nodes = (
(592,714,l),
(592,244,ls),
(592,130,o),
(463,15,o),
(356,15,qs),
(244,15,o),
(121,136,o),
(121,256,qs),
(121,714,l),
(95,714,l),
(95,254,ls),
(95,124,o),
(231,-10,o),
(355,-10,qs),
(433,-10,o),
(551,47,o),
(618,163,o),
(618,252,qs),
(618,585,l),
(676,599,o),
(732,679,o),
(733,755,q),
(728,760,l),
(706,760,l),
(706,710,o),
(682,650,o),
(642,618,o),
(618,610,q),
(618,714,l)
);
}
);
width = 712;
}
);
note = Uhorn;
unicode = 431;
}
{
glyphname = uhorn;
kernLeft = m;
kernRight = uhorn;
layers = (
{
layerId = m01;
shapes = (
{
closed = 1;
nodes = (
(559,610,l),
(559,541,o),
(515,477,o),
(481,465,q),
(481,528,l),
(455,528,l),
(455,226,ls),
(455,118,o),
(348,15,o),
(262,15,qs),
(188,15,o),
(108,98,o),
(108,186,qs),
(108,528,l),
(82,528,l),
(82,182,ls),
(82,88,o),
(174,-10,o),
(262,-10,qs),
(318,-10,o),
(395,25,o),
(443,81,o),
(454,111,q),
(456,111,l),
(460,0,l),
(481,0,l),
(481,440,l),
(533,455,o),
(585,535,o),
(586,605,q),
(581,610,l)
);
}
);
width = 573;
}
);
note = uhorn;
unicode = 432;
}
{
glyphname = Upsilonlatin;
layers = (
{
layerId = m01;
shapes = (
{
closed = 1;
nodes = (
(169,88,o),
(94,229,o),
(94,329,qs),
(94,420,o),
(145,553,o),
(243,652,o),
(313,691,q),
(313,714,l),
(42,714,l),
(42,689,l),
(268,689,l),
(209,654,o),
(118,557,o),
(67,422,o),
(67,329,qs),
(67,221,o),
(148,69,o),
(292,-11,o),
(387,-11,qs),
(481,-11,o),
(624,75,o),
(705,229,o),
(705,329,qs),
(705,422,o),
(652,557,o),
(561,653,o),
(503,689,q),
(730,689,l),
(730,714,l),
(460,714,l),
(460,691,l),
(524,651,o),
(622,555,o),
(678,423,o),
(678,329,qs),
(678,233,o),
(603,92,o),
(472,14,o),
(387,14,qs),
(302,14,o)
);
}
);
width = 771;
}
);
note = Upsilonlatin;
unicode = 433;
}
{
glyphname = uni01B2;
layers = (
{
layerId = m01;
shapes = (
{
closed = 1;
nodes = (
(551,47,o),
(618,163,o),
(618,252,qs),
(618,608,ls),
(618,665,o),
(560,724,o),
(515,724,qs),
(487,724,o),
(450,712,o),
(439,707,q),
(439,680,l),
(448,685,o),
(487,699,o),
(512,699,qs),
(545,699,o),
(592,656,o),
(592,607,qs),
(592,244,ls),
(592,130,o),
(463,15,o),
(356,15,qs),
(244,15,o),
(121,136,o),
(121,256,qs),
(121,714,l),
(95,714,l),
(95,254,ls),
(95,124,o),
(231,-10,o),
(355,-10,qs),
(433,-10,o)
);
}
);
width = 712;
}
);
note = uni01B2;
unicode = 434;
}
{
glyphname = uni01B3;
layers = (
{
layerId = m01;
shapes = (
{
closed = 1;
nodes = (
(267,275,l),
(447,633,ls),
(462,664,o),
(492,700,o),
(523,700,qs),
(536,700,o),
(554,695,o),
(560,692,q),
(560,717,l),
(554,720,o),
(534,725,o),
(520,725,qs),
(480,725,o),
(441,680,o),
(426,650,qs),
(253,300,l),
(30,714,l),
(0,714,l),
(241,271,l),
(241,0,l),
(267,0,l)
);
}
);
width = 565;
}
);
note = uni01B3;
unicode = 435;
}
{
glyphname = uni01B4;
layers = (
{
layerId = m01;
shapes = (
{
closed = 1;
nodes = (
(390,493,o),
(378,461,qs),
(264,168,ls),
(247,123,o),
(224,59,o),
(216,37,q),
(214,37,l),
(207,58,o),
(182,124,o),
(164,172,qs),
(27,528,l),
(0,528,l),
(201,6,l),
(160,-102,ls),
(135,-166,o),
(86,-218,o),
(48,-218,qs),
(32,-218,o),
(8,-212,o),
(-6,-207,q),
(-6,-233,l),
(21,-243,o),
(48,-243,qs),
(97,-243,o),
(156,-180,o),
(181,-115,qs),
(399,444,ls),
(412,476,o),
(443,511,o),
(474,511,qs),
(487,511,o),
(505,506,o),
(512,503,q),
(512,529,l),
(498,536,o),
(471,536,qs),
(431,536,o)
);
}
);
width = 518;
}
);
note = uni01B4;
unicode = 436;
}
{
glyphname = uni01B5;
layers = (
{
layerId = m01;
shapes = (
{
closed = 1;
nodes = (
(265,357,l),
(36,18,l),
(36,0,l),
(538,0,l),
(538,25,l),
(73,25,l),
(297,357,l),
(489,357,l),
(489,382,l),
(314,382,l),
(526,696,l),
(526,714,l),
(64,714,l),
(64,689,l),
(489,689,l),
(282,382,l),
(82,382,l),
(82,357,l)
);
}
);
width = 578;
}
);
note = uni01B5;
unicode = 437;
}
{
glyphname = uni01B6;
layers = (
{
layerId = m01;
shapes = (
{
closed = 1;
nodes = (
(68,503,l),
(377,503,l),
(225,283,l),
(59,283,l),
(59,258,l),
(208,258,l),
(41,17,l),
(41,0,l),
(412,0,l),
(412,25,l),
(77,25,l),
(238,258,l),
(413,258,l),
(413,283,l),
(256,283,l),
(415,513,l),
(415,528,l),
(68,528,l)
);
}
);
width = 456;
}
);
note = uni01B6;
unicode = 438;
}
{
glyphname = uni01B8;
layers = (
{
layerId = m01;
shapes = (
{
closed = 1;
nodes = (
(457,16,o),
(494,34,q),
(494,62,l),
(455,42,o),
(350,15,o),
(291,15,qs),
(188,15,o),
(77,109,o),
(77,196,qs),
(77,284,o),
(191,372,o),
(313,372,qs),
(352,372,l),
(352,397,l),
(108,689,l),
(485,689,l),
(485,714,l),
(73,714,l),
(73,693,l),
(320,397,l),
(50,397,o),
(50,196,qs),
(50,100,o),
(174,-10,o),
(291,-10,qs),
(355,-10,o)
);
}
);
width = 550;
}
);
note = uni01B8;
unicode = 440;
}
{
glyphname = uni01B9;
layers = (
{
layerId = m01;
shapes = (
{
closed = 1;
nodes = (
(380,-223,o),
(415,-208,q),
(415,-180,l),
(342,-215,o),
(249,-215,qs),
(154,-215,o),
(52,-114,o),
(52,-27,qs),
(52,71,o),
(178,170,o),
(309,170,qs),
(347,170,l),
(347,192,l),
(84,503,l),
(403,503,l),
(403,528,l),
(45,528,l),
(45,508,l),
(312,195,l),
(161,195,o),
(25,75,o),
(25,-29,qs),
(25,-126,o),
(142,-240,o),
(249,-240,qs),
(299,-240,o)
);
}
);
width = 437;
}
);
note = uni01B9;
unicode = 441;
}
{
glyphname = uni01BA;
layers = (
{
layerId = m01;
shapes = (
{
closed = 1;
nodes = (
(342,-225,o),
(370,-215,q),
(370,-189,l),
(331,-202,o),
(250,-215,o),
(200,-215,qs),
(57,-215,o),
(57,-125,qs),
(57,-81,o),
(114,-31,o),
(191,-24,qs),
(253,-18,o),
(340,14,o),
(386,82,o),
(386,139,qs),
(386,189,o),
(346,249,o),
(279,279,o),
(197,289,o),
(154,288,q),
(370,509,l),
(370,528,l),
(54,528,l),
(54,503,l),
(328,503,l),
(120,288,l),
(120,263,l),
(156,263,ls),
(210,263,o),
(303,247,o),
(359,195,o),
(359,139,qs),
(359,90,o),
(320,33,o),
(245,7,o),
(191,1,qs),
(107,-7,o),
(29,-67,o),
(29,-123,qs),
(29,-179,o),
(115,-240,o),
(200,-240,qs),
(256,-240,o)
);
}
);
width = 463;
}
);
note = uni01BA;
unicode = 442;
}
{
glyphname = uni01BB;
layers = (
{
layerId = m01;
shapes = (
{
closed = 1;
nodes = (
(119,735,o),
(78,704,q),
(92,683,l),
(127,709,o),
(217,747,o),
(269,747,qs),
(351,747,o),
(442,664,o),
(442,586,qs),
(442,522,o),
(395,430,o),
(353,378,q),
(107,378,l),
(107,353,l),
(333,353,l),
(59,23,l),
(59,0,l),
(491,0,l),
(491,25,l),
(95,25,l),
(95,26,l),
(364,353,l),
(488,353,l),
(488,378,l),
(384,378,l),
(423,427,o),
(469,522,o),
(469,586,qs),
(469,674,o),
(363,772,o),
(271,772,qs),
(213,772,o)
);
}
);
width = 572;
}
);
note = uni01BB;
unicode = 443;
}
{
glyphname = uni01BC;
layers = (
{
layerId = m01;
shapes = (
{
closed = 1;
nodes = (
(433,38,o),
(497,140,o),
(497,219,qs),
(497,323,o),
(365,423,o),
(259,423,qs),
(192,423,l),
(192,689,l),
(472,689,l),
(472,714,l),
(67,714,l),
(67,689,l),
(166,689,l),
(166,398,l),
(250,398,ls),
(350,398,o),
(470,314,o),
(470,219,qs),
(470,148,o),
(413,57,o),
(320,15,o),
(264,15,qs),
(204,15,o),
(124,43,o),
(91,62,q),
(91,32,l),
(114,19,o),
(199,-10,o),
(264,-10,qs),
(327,-10,o)
);
}
);
width = 563;
}
);
note = uni01BC;
unicode = 444;
}
{
glyphname = uni01BD;
layers = (
{
layerId = m01;
shapes = (
{
closed = 1;
nodes = (
(338,38,o),
(379,113,o),
(379,157,qs),
(379,222,o),
(294,304,o),
(212,304,qs),
(139,304,l),
(139,503,l),
(370,503,l),
(370,528,l),
(36,528,l),
(36,503,l),
(113,503,l),
(113,279,l),
(203,279,ls),
(282,279,o),
(352,213,o),
(352,157,qs),
(352,121,o),
(320,58,o),
(247,18,o),
(184,18,qs),
(137,18,o),
(59,41,o),
(28,57,q),
(28,27,l),
(50,15,o),
(130,-7,o),
(179,-7,qs),
(250,-7,o)
);
}
);
width = 415;
}
);
note = uni01BD;
unicode = 445;
}
{
glyphname = uni01BE;
layers = (
{
layerId = m01;
shapes = (
{
closed = 1;
nodes = (
(395,77,o),
(395,141,qs),
(395,190,o),
(349,245,o),
(280,275,o),
(245,286,qs),
(224,293,o),
(194,314,o),
(178,360,o),
(178,402,qs),
(178,503,l),
(350,503,l),
(350,528,l),
(178,528,l),
(178,659,l),
(157,659,l),
(151,528,l),
(71,525,l),
(71,503,l),
(152,503,l),
(152,397,ls),
(152,348,o),
(172,296,o),
(209,272,o),
(235,263,qs),
(267,253,o),
(328,228,o),
(368,182,o),
(368,138,qs),
(368,104,o),
(338,48,o),
(265,15,o),
(201,15,qs),
(155,15,o),
(84,31,o),
(52,44,q),
(52,15,l),
(72,7,o),
(147,-10,o),
(202,-10,qs),
(305,-10,o)
);
}
);
width = 439;
}
);
note = uni01BE;
unicode = 446;
}
{
glyphname = uni01BF;
layers = (
{
layerId = m01;
shapes = (
{
closed = 1;
nodes = (
(176,497,o),
(127,433,o),
(117,396,q),
(115,396,l),
(113,528,l),
(91,528,l),
(91,-232,l),
(117,-232,l),
(117,-5,l),
(315,-4,o),
(525,166,o),
(525,317,qs),
(525,421,o),
(416,538,o),
(320,538,qs),
(259,538,o)
);
},
{
closed = 1;
nodes = (
(498,409,o),
(498,317,qs),
(498,171,o),
(297,21,o),
(117,20,q),
(117,256,ls),
(117,334,o),
(158,449,o),
(248,513,o),
(320,513,qs),
(403,513,o)
);
}
);
width = 600;
}
);
note = uni01BF;
unicode = 447;
}
{
glyphname = uni01C0;
layers = (
{
layerId = m01;
shapes = (
{
closed = 1;
nodes = (
(192,760,l),
(166,760,l),
(166,0,l),
(192,0,l)
);
}
);
width = 358;
}
);
note = uni01C0;
unicode = 448;
}
{
glyphname = uni01C2;
layers = (
{
layerId = m01;
shapes = (
{
closed = 1;
nodes = (
(245,479,l),
(68,479,l),
(68,454,l),
(245,454,l),
(245,312,l),
(68,312,l),
(68,287,l),
(245,287,l),
(245,0,l),
(271,0,l),
(271,287,l),
(448,287,l),
(448,312,l),
(271,312,l),
(271,454,l),
(448,454,l),
(448,479,l),
(271,479,l),
(271,760,l),
(245,760,l)
);
}
);
width = 516;
}
);
note = uni01C2;
unicode = 450;
}
{
glyphname = uni01D5;
layers = (
{
layerId = m01;
shapes = (
{
closed = 1;
nodes = (
(230,958,l),
(485,958,l),
(485,982,l),
(230,982,l)
);
},
{
closed = 1;
nodes = (
(240,876,o),
(240,864,qs),
(240,851,o),
(250,833,o),
(263,833,qs),
(280,833,o),
(288,851,o),
(288,864,qs),
(288,876,o),
(280,895,o),
(263,895,qs),
(250,895,o)
);
},
{
closed = 1;
nodes = (
(425,876,o),
(425,864,qs),
(425,851,o),
(435,833,o),
(448,833,qs),
(465,833,o),
(473,851,o),
(473,864,qs),
(473,876,o),
(465,895,o),
(448,895,qs),
(435,895,o)
);
},
{
closed = 1;
nodes = (
(592,714,l),
(592,244,ls),
(592,130,o),
(463,15,o),
(356,15,qs),
(244,15,o),
(121,136,o),
(121,256,qs),
(121,714,l),
(95,714,l),
(95,254,ls),
(95,124,o),
(231,-10,o),
(355,-10,qs),
(433,-10,o),
(551,47,o),
(618,163,o),
(618,252,qs),
(618,714,l)
);
}
);
width = 712;
}
);
note = uni01D5;
unicode = 469;
}
{
glyphname = uni01D6;
layers = (
{
layerId = m01;
shapes = (
{
closed = 1;
nodes = (
(161,772,l),
(416,772,l),
(416,796,l),
(161,796,l)
);
},
{
closed = 1;
nodes = (
(171,690,o),
(171,678,qs),
(171,665,o),
(181,647,o),
(194,647,qs),
(211,647,o),
(219,665,o),
(219,678,qs),
(219,690,o),
(211,709,o),
(194,709,qs),
(181,709,o)
);
},
{
closed = 1;
nodes = (
(356,690,o),
(356,678,qs),
(356,665,o),
(366,647,o),
(379,647,qs),
(396,647,o),
(404,665,o),
(404,678,qs),
(404,690,o),
(396,709,o),
(379,709,qs),
(366,709,o)
);
},
{
closed = 1;
nodes = (
(455,226,ls),
(455,118,o),
(348,15,o),
(262,15,qs),
(188,15,o),
(108,98,o),
(108,186,qs),
(108,528,l),
(82,528,l),
(82,182,ls),
(82,88,o),
(174,-10,o),
(262,-10,qs),
(318,-10,o),
(395,25,o),
(443,81,o),
(454,111,q),
(456,111,l),
(460,0,l),
(481,0,l),
(481,528,l),
(455,528,l)
);
}
);
width = 573;
}
);
note = uni01D6;
unicode = 470;
}
{
glyphname = uni01D7;
layers = (
{
layerId = m01;
shapes = (
{
closed = 1;
nodes = (
(358,939,l),
(393,970,o),
(456,1040,o),
(481,1074,q),
(481,1081,l),
(451,1081,l),
(430,1049,o),
(366,973,o),
(337,945,q),
(337,939,l)
);
},
{
closed = 1;
nodes = (
(288,851,o),
(288,864,qs),
(288,876,o),
(280,895,o),
(263,895,qs),
(250,895,o),
(240,876,o),
(240,864,qs),
(240,851,o),
(250,833,o),
(263,833,qs),
(280,833,o)
);
},
{
closed = 1;
nodes = (
(473,851,o),
(473,864,qs),
(473,876,o),
(465,895,o),
(448,895,qs),
(435,895,o),
(425,876,o),
(425,864,qs),
(425,851,o),
(435,833,o),
(448,833,qs),
(465,833,o)
);
},
{
closed = 1;
nodes = (
(592,714,l),
(592,244,ls),
(592,130,o),
(463,15,o),
(356,15,qs),
(244,15,o),
(121,136,o),
(121,256,qs),
(121,714,l),
(95,714,l),
(95,254,ls),
(95,124,o),
(231,-10,o),
(355,-10,qs),
(433,-10,o),
(551,47,o),
(618,163,o),
(618,252,qs),
(618,714,l)
);
}
);
width = 712;
}
);
note = uni01D7;
unicode = 471;
}
{
glyphname = uni01D9;
layers = (
{
layerId = m01;
shapes = (
{
closed = 1;
nodes = (
(380,954,o),
(420,1004,o),
(464,1052,o),
(480,1066,q),
(480,1071,l),
(463,1071,l),
(435,1049,o),
(380,995,o),
(357,966,q),
(312,1021,o),
(250,1071,q),
(232,1071,l),
(232,1066,l),
(250,1052,o),
(294,1004,o),
(334,954,o),
(345,935,q),
(368,935,l)
);
},
{
closed = 1;
nodes = (
(288,851,o),
(288,864,qs),
(288,876,o),
(280,895,o),
(263,895,qs),
(250,895,o),
(240,876,o),
(240,864,qs),
(240,851,o),
(250,833,o),
(263,833,qs),
(280,833,o)
);
},
{
closed = 1;
nodes = (
(473,851,o),
(473,864,qs),
(473,876,o),
(465,895,o),
(448,895,qs),
(435,895,o),
(425,876,o),
(425,864,qs),
(425,851,o),
(435,833,o),
(448,833,qs),
(465,833,o)
);
},
{
closed = 1;
nodes = (
(592,714,l),
(592,244,ls),
(592,130,o),
(463,15,o),
(356,15,qs),
(244,15,o),
(121,136,o),
(121,256,qs),
(121,714,l),
(95,714,l),
(95,254,ls),
(95,124,o),
(231,-10,o),
(355,-10,qs),
(433,-10,o),
(551,47,o),
(618,163,o),
(618,252,qs),
(618,714,l)
);
}
);
width = 712;
}
);
note = uni01D9;
unicode = 473;
}
{
glyphname = uni01DA;
layers = (
{
layerId = m01;
shapes = (
{
closed = 1;
nodes = (
(311,768,o),
(351,818,o),
(395,866,o),
(411,880,q),
(411,885,l),
(394,885,l),
(366,863,o),
(311,809,o),
(288,780,q),
(243,835,o),
(181,885,q),
(163,885,l),
(163,880,l),
(181,866,o),
(225,818,o),
(265,768,o),
(276,749,q),
(299,749,l)
);
},
{
closed = 1;
nodes = (
(219,665,o),
(219,678,qs),
(219,690,o),
(211,709,o),
(194,709,qs),
(181,709,o),
(171,690,o),
(171,678,qs),
(171,665,o),
(181,647,o),
(194,647,qs),
(211,647,o)
);
},
{
closed = 1;
nodes = (
(404,665,o),
(404,678,qs),
(404,690,o),
(396,709,o),
(379,709,qs),
(366,709,o),
(356,690,o),
(356,678,qs),
(356,665,o),
(366,647,o),
(379,647,qs),
(396,647,o)
);
},
{
closed = 1;
nodes = (
(455,226,ls),
(455,118,o),
(348,15,o),
(262,15,qs),
(188,15,o),
(108,98,o),
(108,186,qs),
(108,528,l),
(82,528,l),
(82,182,ls),
(82,88,o),
(174,-10,o),
(262,-10,qs),
(318,-10,o),
(395,25,o),
(443,81,o),
(454,111,q),
(456,111,l),
(460,0,l),
(481,0,l),
(481,528,l),
(455,528,l)
);
}
);
width = 573;
}
);
note = uni01DA;
unicode = 474;
}
{
glyphname = uni01DB;
layers = (
{
layerId = m01;
shapes = (
{
closed = 1;
nodes = (
(236,1074,l),
(262,1040,o),
(324,970,o),
(359,939,q),
(380,939,l),
(380,945,l),
(351,973,o),
(287,1049,o),
(266,1081,q),
(236,1081,l)
);
},
{
closed = 1;
nodes = (
(240,876,o),
(240,864,qs),
(240,851,o),
(250,833,o),
(263,833,qs),
(280,833,o),
(288,851,o),
(288,864,qs),
(288,876,o),
(280,895,o),
(263,895,qs),
(250,895,o)
);
},
{
closed = 1;
nodes = (
(425,876,o),
(425,864,qs),
(425,851,o),
(435,833,o),
(448,833,qs),
(465,833,o),
(473,851,o),
(473,864,qs),
(473,876,o),
(465,895,o),
(448,895,qs),
(435,895,o)
);
},
{
closed = 1;
nodes = (
(592,714,l),
(592,244,ls),
(592,130,o),
(463,15,o),
(356,15,qs),
(244,15,o),
(121,136,o),
(121,256,qs),
(121,714,l),
(95,714,l),
(95,254,ls),
(95,124,o),
(231,-10,o),
(355,-10,qs),
(433,-10,o),
(551,47,o),
(618,163,o),
(618,252,qs),
(618,714,l)
);
}
);
width = 712;
}
);
note = uni01DB;
unicode = 475;
}
{
glyphname = uni01DE;
layers = (
{
layerId = m01;
shapes = (
{
closed = 1;
nodes = (
(168,958,l),
(423,958,l),
(423,982,l),
(168,982,l)
);
},
{
closed = 1;
nodes = (
(178,876,o),
(178,864,qs),
(178,851,o),
(188,833,o),
(201,833,qs),
(218,833,o),
(226,851,o),
(226,864,qs),
(226,876,o),
(218,895,o),
(201,895,qs),
(188,895,o)
);
},
{
closed = 1;
nodes = (
(363,876,o),
(363,864,qs),
(363,851,o),
(373,833,o),
(386,833,qs),
(403,833,o),
(411,851,o),
(411,864,qs),
(411,876,o),
(403,895,o),
(386,895,qs),
(373,895,o)
);
},
{
closed = 1;
nodes = (
(307,716,l),
(282,716,l),
(0,0,l),
(28,0,l),
(135,271,l),
(445,271,l),
(549,0,l),
(577,0,l)
);
},
{
closed = 1;
nodes = (
(144,296,l),
(260,593,ls),
(268,613,o),
(286,660,o),
(293,682,q),
(303,654,o),
(319,611,o),
(325,594,qs),
(435,296,l)
);
}
);
width = 577;
}
);
note = uni01DE;
unicode = 478;
}
{
glyphname = uni01DF;
layers = (
{
layerId = m01;
shapes = (
{
closed = 1;
nodes = (
(125,772,l),
(380,772,l),
(380,796,l),
(125,796,l)
);
},
{
closed = 1;
nodes = (
(135,690,o),
(135,678,qs),
(135,665,o),
(145,647,o),
(158,647,qs),
(175,647,o),
(183,665,o),
(183,678,qs),
(183,690,o),
(175,709,o),
(158,709,qs),
(145,709,o)
);
},
{
closed = 1;
nodes = (
(320,690,o),
(320,678,qs),
(320,665,o),
(330,647,o),
(343,647,qs),
(360,647,o),
(368,665,o),
(368,678,qs),
(368,690,o),
(360,709,o),
(343,709,qs),
(330,709,o)
);
},
{
closed = 1;
nodes = (
(137,516,o),
(97,498,q),
(106,472,l),
(149,494,o),
(224,512,o),
(264,512,qs),
(334,512,o),
(402,433,o),
(402,343,qs),
(402,300,l),
(299,294,ls),
(181,287,o),
(48,208,o),
(48,129,qs),
(48,66,o),
(129,-10,o),
(208,-10,qs),
(289,-10,o),
(379,57,o),
(400,103,q),
(402,103,l),
(406,0,l),
(428,0,l),
(428,350,ls),
(428,448,o),
(346,537,o),
(264,537,qs),
(220,537,o)
);
},
{
closed = 1;
nodes = (
(402,220,ls),
(401,129,o),
(308,15,o),
(208,15,qs),
(144,15,o),
(76,76,o),
(76,129,qs),
(76,199,o),
(199,265,o),
(301,270,qs),
(402,275,l)
);
}
);
width = 511;
}
);
note = uni01DF;
unicode = 479;
}
{
glyphname = uni01E0;
layers = (
{
layerId = m01;
shapes = (
{
closed = 1;
nodes = (
(168,928,l),
(423,928,l),
(423,952,l),
(168,952,l)
);
},
{
closed = 1;
nodes = (
(269,835,o),
(269,823,qs),
(269,810,o),
(279,792,o),
(294,792,qs),
(312,792,o),
(321,810,o),
(321,823,qs),
(321,835,o),
(312,854,o),
(294,854,qs),
(279,854,o)
);
},
{
closed = 1;
nodes = (
(307,716,l),
(282,716,l),
(0,0,l),
(28,0,l),
(135,271,l),
(445,271,l),
(549,0,l),
(577,0,l)
);
},
{
closed = 1;
nodes = (
(144,296,l),
(260,593,ls),
(268,613,o),
(286,660,o),
(293,682,q),
(303,654,o),
(319,611,o),
(325,594,qs),
(435,296,l)
);
}
);
width = 577;
}
);
note = uni01E0;
unicode = 480;
}
{
glyphname = uni01E5;
layers = (
{
layerId = m01;
shapes = (
{
closed = 1;
nodes = (
(59,387,o),
(59,256,qs),
(59,125,o),
(174,-10,o),
(276,-10,qs),
(350,-10,o),
(448,55,o),
(466,117,q),
(468,117,l),
(467,88,o),
(466,49,o),
(466,27,qs),
(466,-73,l),
(279,-73,l),
(279,-98,l),
(464,-98,l),
(454,-156,o),
(361,-215,o),
(273,-215,qs),
(217,-215,o),
(123,-190,o),
(87,-173,q),
(87,-203,l),
(123,-218,o),
(212,-240,o),
(273,-240,qs),
(375,-240,o),
(482,-165,o),
(490,-98,q),
(573,-98,l),
(573,-73,l),
(492,-73,l),
(492,528,l),
(470,528,l),
(465,437,l),
(463,437,l),
(442,481,o),
(363,538,o),
(290,538,qs),
(175,538,o)
);
},
{
closed = 1;
nodes = (
(434,456,o),
(466,357,o),
(466,294,qs),
(466,246,ls),
(466,205,o),
(450,123,o),
(409,56,o),
(335,15,o),
(276,15,qs),
(185,15,o),
(86,138,o),
(86,256,qs),
(86,377,o),
(185,513,o),
(290,513,qs),
(358,513,o)
);
}
);
width = 583;
}
);
note = uni01E5;
unicode = 485;
}
{
glyphname = uni01F6;
layers = (
{
layerId = m01;
shapes = (
{
closed = 1;
nodes = (
(129,362,l),
(539,362,l),
(539,188,ls),
(539,116,o),
(587,29,o),
(671,-10,o),
(725,-10,qs),
(774,-10,o),
(854,29,o),
(902,115,o),
(902,188,qs),
(902,528,l),
(879,528,l),
(879,192,ls),
(879,125,o),
(840,48,o),
(770,15,o),
(725,15,qs),
(679,15,o),
(607,46,o),
(565,124,o),
(565,192,qs),
(565,714,l),
(539,714,l),
(539,387,l),
(129,387,l),
(129,714,l),
(103,714,l),
(103,0,l),
(129,0,l)
);
}
);
width = 1000;
}
);
note = uni01F6;
unicode = 502;
}
{
glyphname = uni01F7;
layers = (
{
layerId = m01;
shapes = (
{
closed = 1;
nodes = (
(190,680,o),
(139,611,o),
(129,575,q),
(127,575,l),
(124,715,l),
(103,715,l),
(103,-240,l),
(126,-240,l),
(126,-2,l),
(206,19,o),
(355,96,o),
(473,212,o),
(543,369,o),
(543,469,qs),
(543,564,o),
(487,676,o),
(396,725,o),
(342,725,qs),
(278,725,o)
);
},
{
closed = 1;
nodes = (
(466,658,o),
(516,557,o),
(516,467,qs),
(516,374,o),
(453,228,o),
(344,119,o),
(203,44,o),
(126,22,q),
(126,444,ls),
(126,570,o),
(244,700,o),
(338,700,qs),
(385,700,o)
);
}
);
width = 597;
}
);
note = uni01F7;
unicode = 503;
}
{
glyphname = Aringacute;
kernLeft = A;
kernRight = A;
layers = (
{
layerId = m01;
shapes = (
{
closed = 1;
nodes = (
(300,822,l),
(338,855,o),
(401,923,o),
(426,958,q),
(426,965,l),
(396,965,l),
(375,931,o),
(311,858,o),
(279,828,q),
(279,822,l)
);
},
{
closed = 1;
nodes = (
(22,0,l),
(136,233,l),
(443,233,l),
(552,0,l),
(582,0,l),
(307,577,l),
(347,585,o),
(395,638,o),
(395,683,qs),
(395,729,o),
(340,785,o),
(293,785,qs),
(247,785,o),
(189,728,o),
(189,684,qs),
(189,637,o),
(239,583,o),
(278,578,q),
(-8,0,l)
);
},
{
closed = 1;
nodes = (
(210,643,o),
(210,683,qs),
(210,720,o),
(255,764,o),
(292,764,qs),
(330,764,o),
(374,720,o),
(374,683,qs),
(374,643,o),
(329,599,o),
(292,599,qs),
(257,599,o)
);
},
{
closed = 1;
nodes = (
(273,513,o),
(285,540,o),
(292,556,q),
(299,540,o),
(312,511,o),
(318,498,qs),
(430,258,l),
(148,258,l),
(266,499,ls)
);
}
);
width = 576;
}
);
note = Aringacute;
unicode = 506;
}
{
glyphname = aringacute;
kernLeft = a;
kernRight = a;
layers = (
{
layerId = m01;
shapes = (
{
closed = 1;
nodes = (
(343,950,l),
(322,917,o),
(252,841,o),
(223,812,q),
(223,806,l),
(244,806,l),
(279,838,o),
(348,909,o),
(373,943,q),
(373,950,l)
);
},
{
closed = 1;
nodes = (
(165,718,o),
(165,675,qs),
(165,630,o),
(226,575,o),
(266,575,qs),
(307,575,o),
(366,631,o),
(366,675,qs),
(366,716,o),
(307,775,o),
(266,775,qs),
(225,775,o)
);
},
{
closed = 1;
nodes = (
(342,707,o),
(342,675,qs),
(342,644,o),
(300,599,o),
(266,599,qs),
(232,599,o),
(189,644,o),
(189,675,qs),
(189,707,o),
(233,751,o),
(266,751,qs),
(297,751,o)
);
},
{
closed = 1;
nodes = (
(137,516,o),
(97,498,q),
(106,472,l),
(149,494,o),
(224,512,o),
(264,512,qs),
(334,512,o),
(402,433,o),
(402,343,qs),
(402,300,l),
(299,294,ls),
(181,287,o),
(48,208,o),
(48,129,qs),
(48,66,o),
(129,-10,o),
(208,-10,qs),
(289,-10,o),
(379,57,o),
(400,103,q),
(402,103,l),
(406,0,l),
(428,0,l),
(428,350,ls),
(428,448,o),
(346,537,o),
(264,537,qs),
(220,537,o)
);
},
{
closed = 1;
nodes = (
(402,220,ls),
(401,129,o),
(308,15,o),
(208,15,qs),
(144,15,o),
(76,76,o),
(76,129,qs),
(76,199,o),
(199,265,o),
(301,270,qs),
(402,275,l)
);
}
);
width = 511;
}
);
note = aringacute;
unicode = 507;
}
{
glyphname = uni021C;
layers = (
{
layerId = m01;
shapes = (
{
closed = 1;
nodes = (
(198,-141,o),
(393,-49,o),
(485,72,o),
(485,153,qs),
(485,238,o),
(404,335,o),
(342,363,q),
(402,391,o),
(472,475,o),
(472,544,qs),
(472,607,o),
(416,686,o),
(322,724,o),
(265,724,qs),
(199,724,o),
(100,684,o),
(51,649,q),
(66,629,l),
(108,659,o),
(204,699,o),
(265,699,qs),
(306,699,o),
(389,671,o),
(445,604,o),
(445,544,qs),
(445,477,o),
(375,400,o),
(247,353,o),
(159,331,q),
(165,307,l),
(207,318,o),
(282,338,o),
(315,351,q),
(385,319,o),
(458,226,o),
(458,152,qs),
(458,83,o),
(375,-27,o),
(192,-116,o),
(42,-154,q),
(42,-180,l)
);
}
);
width = 542;
}
);
note = uni021C;
unicode = 540;
}
{
glyphname = uni021D;
layers = (
{
layerId = m01;
shapes = (
{
closed = 1;
nodes = (
(144,-215,o),
(316,-147,o),
(413,-40,o),
(413,44,qs),
(413,93,o),
(378,163,o),
(321,209,o),
(288,222,q),
(340,246,o),
(398,324,o),
(398,380,qs),
(398,457,o),
(292,539,o),
(210,539,qs),
(164,539,o),
(82,515,o),
(47,497,q),
(57,475,l),
(89,492,o),
(169,514,o),
(210,514,qs),
(250,514,o),
(324,488,o),
(371,429,o),
(371,380,qs),
(371,328,o),
(318,261,o),
(213,215,o),
(134,194,q),
(140,171,l),
(210,189,o),
(262,210,q),
(321,185,o),
(386,105,o),
(386,43,qs),
(386,-29,o),
(298,-125,o),
(138,-189,o),
(30,-215,q),
(30,-241,l)
);
}
);
width = 465;
}
);
note = uni021D;
unicode = 541;
}
{
glyphname = uni0220;
layers = (
{
layerId = m01;
shapes = (
{
closed = 1;
nodes = (
(189,686,o),
(139,625,o),
(128,588,q),
(126,588,l),
(124,714,l),
(103,714,l),
(103,0,l),
(129,0,l),
(129,468,ls),
(129,699,o),
(342,699,qs),
(437,699,o),
(533,598,o),
(533,477,qs),
(533,-240,l),
(559,-240,l),
(559,482,ls),
(559,607,o),
(450,724,o),
(342,724,qs),
(276,724,o)
);
}
);
width = 653;
}
);
note = uni0220;
unicode = 544;
}
{
glyphname = uni0221;
layers = (
{
layerId = m01;
shapes = (
{
closed = 1;
nodes = (
(523,-76,o),
(531,-12,o),
(535,6,q),
(547,4,o),
(624,0,o),
(672,0,qs),
(758,0,o),
(831,65,o),
(831,116,qs),
(831,164,o),
(761,213,o),
(708,213,qs),
(662,213,o),
(596,179,o),
(551,126,o),
(525,67,o),
(517,41,q),
(505,57,o),
(494,115,o),
(494,152,qs),
(494,760,l),
(468,760,l),
(468,543,ls),
(468,512,o),
(469,448,o),
(470,414,q),
(468,414,l),
(452,467,o),
(363,538,o),
(291,538,qs),
(179,538,o),
(59,391,o),
(59,254,qs),
(59,126,o),
(169,-10,o),
(283,-10,qs),
(336,-10,o),
(409,24,o),
(456,79,o),
(468,110,q),
(469,110,l),
(474,68,o),
(494,22,o),
(510,11,q),
(505,-13,o),
(498,-75,o),
(497,-95,q),
(522,-97,l)
);
},
{
closed = 1;
nodes = (
(86,134,o),
(86,254,qs),
(86,384,o),
(192,513,o),
(291,513,qs),
(380,513,o),
(468,386,o),
(468,266,qs),
(468,263,ls),
(468,144,o),
(383,15,o),
(283,15,qs),
(183,15,o)
);
},
{
closed = 1;
nodes = (
(558,29,o),
(540,31,q),
(551,69,o),
(588,141,o),
(654,189,o),
(707,189,qs),
(805,189,o),
(805,115,qs),
(805,75,o),
(748,25,o),
(670,25,qs),
(628,25,o)
);
}
);
width = 845;
}
);
note = uni0221;
unicode = 545;
}
{
glyphname = uni0222;
layers = (
{
layerId = m01;
shapes = (
{
closed = 1;
nodes = (
(583,105,o),
(584,218,qs),
(585,289,o),
(535,380,o),
(458,428,o),
(416,433,q),
(456,441,o),
(517,481,o),
(551,562,o),
(551,632,qs),
(551,734,l),
(525,734,l),
(525,639,ls),
(525,562,o),
(484,479,o),
(392,447,o),
(315,447,qs),
(239,447,o),
(151,479,o),
(114,559,o),
(114,632,qs),
(114,734,l),
(88,734,l),
(88,629,ls),
(88,527,o),
(158,442,o),
(223,433,q),
(184,427,o),
(106,379,o),
(54,290,o),
(54,221,qs),
(54,111,o),
(193,-12,o),
(321,-12,qs),
(448,-12,o)
);
},
{
closed = 1;
nodes = (
(81,122,o),
(81,221,qs),
(81,319,o),
(200,422,o),
(315,422,qs),
(443,422,o),
(557,321,o),
(557,218,qs),
(557,119,o),
(435,13,o),
(321,13,qs),
(207,13,o)
);
}
);
width = 637;
}
);
note = uni0222;
unicode = 546;
}
{
glyphname = uni0223;
layers = (
{
layerId = m01;
shapes = (
{
closed = 1;
nodes = (
(527,106,o),
(528,224,qs),
(529,299,o),
(485,393,o),
(416,442,o),
(379,447,q),
(414,455,o),
(469,494,o),
(501,572,o),
(501,638,qs),
(501,734,l),
(475,734,l),
(475,645,ls),
(475,569,o),
(437,490,o),
(357,461,o),
(295,461,qs),
(234,461,o),
(158,492,o),
(124,569,o),
(124,638,qs),
(124,734,l),
(98,734,l),
(98,635,ls),
(98,568,o),
(127,490,o),
(182,453,o),
(220,447,q),
(186,441,o),
(116,392,o),
(70,300,o),
(70,227,qs),
(70,112,o),
(195,-12,o),
(301,-12,qs),
(405,-12,o)
);
},
{
closed = 1;
nodes = (
(97,124,o),
(97,227,qs),
(97,331,o),
(203,436,o),
(295,436,qs),
(401,436,o),
(501,333,o),
(501,224,qs),
(501,121,o),
(393,13,o),
(301,13,qs),
(210,13,o)
);
}
);
width = 596;
}
);
note = uni0223;
unicode = 547;
}
{
glyphname = uni0224;
layers = (
{
layerId = m01;
shapes = (
{
closed = 1;
nodes = (
(538,-84,qs),
(538,25,l),
(73,25,l),
(526,696,l),
(526,714,l),
(64,714,l),
(64,689,l),
(489,689,l),
(36,18,l),
(36,0,l),
(512,0,l),
(512,-81,ls),
(512,-144,o),
(467,-144,qs),
(456,-144,o),
(433,-139,o),
(425,-135,q),
(425,-160,l),
(441,-169,o),
(467,-169,qs),
(538,-169,o)
);
}
);
width = 578;
}
);
note = uni0224;
unicode = 548;
}
{
glyphname = uni022A;
layers = (
{
layerId = m01;
shapes = (
{
closed = 1;
nodes = (
(251,958,l),
(506,958,l),
(506,982,l),
(251,982,l)
);
},
{
closed = 1;
nodes = (
(261,876,o),
(261,864,qs),
(261,851,o),
(271,833,o),
(284,833,qs),
(301,833,o),
(309,851,o),
(309,864,qs),
(309,876,o),
(301,895,o),
(284,895,qs),
(271,895,o)
);
},
{
closed = 1;
nodes = (
(446,876,o),
(446,864,qs),
(446,851,o),
(456,833,o),
(469,833,qs),
(486,833,o),
(494,851,o),
(494,864,qs),
(494,876,o),
(486,895,o),
(469,895,qs),
(456,895,o)
);
},
{
closed = 1;
nodes = (
(530,725,o),
(382,725,qs),
(280,725,o),
(137,632,o),
(63,467,o),
(63,359,qs),
(63,251,o),
(133,85,o),
(272,-10,o),
(376,-10,qs),
(482,-10,o),
(621,84,o),
(690,250,o),
(690,358,qs),
(690,532,o)
);
},
{
closed = 1;
nodes = (
(154,612,o),
(284,700,o),
(382,700,qs),
(517,700,o),
(663,521,o),
(663,358,qs),
(663,257,o),
(602,102,o),
(475,15,o),
(377,15,qs),
(280,15,o),
(152,104,o),
(90,259,o),
(90,359,qs),
(90,458,o)
);
}
);
width = 754;
}
);
note = uni022A;
unicode = 554;
}
{
glyphname = uni022B;
layers = (
{
layerId = m01;
shapes = (
{
closed = 1;
nodes = (
(161,772,l),
(416,772,l),
(416,796,l),
(161,796,l)
);
},
{
closed = 1;
nodes = (
(171,690,o),
(171,678,qs),
(171,665,o),
(181,647,o),
(194,647,qs),
(211,647,o),
(219,665,o),
(219,678,qs),
(219,690,o),
(211,709,o),
(194,709,qs),
(181,709,o)
);
},
{
closed = 1;
nodes = (
(356,690,o),
(356,678,qs),
(356,665,o),
(366,647,o),
(379,647,qs),
(396,647,o),
(404,665,o),
(404,678,qs),
(404,690,o),
(396,709,o),
(379,709,qs),
(366,709,o)
);
},
{
closed = 1;
nodes = (
(470,465,o),
(372,538,o),
(292,538,qs),
(182,538,o),
(59,390,o),
(59,264,qs),
(59,186,o),
(109,62,o),
(210,-10,o),
(286,-10,qs),
(365,-10,o),
(466,62,o),
(515,187,o),
(515,264,qs),
(515,341,o)
);
},
{
closed = 1;
nodes = (
(193,513,o),
(292,513,qs),
(363,513,o),
(449,446,o),
(488,333,o),
(488,264,qs),
(488,192,o),
(445,79,o),
(356,15,o),
(286,15,qs),
(219,15,o),
(130,78,o),
(86,191,o),
(86,264,qs),
(86,381,o)
);
}
);
width = 575;
}
);
note = uni022B;
unicode = 555;
}
{
glyphname = uni022C;
layers = (
{
layerId = m01;
shapes = (
{
closed = 1;
nodes = (
(506,982,l),
(251,982,l),
(251,958,l),
(506,958,l)
);
},
{
closed = 1;
nodes = (
(245,833,o),
(282,862,o),
(302,862,qs),
(324,862,o),
(356,839,o),
(387,810,o),
(424,787,o),
(449,787,qs),
(487,787,o),
(536,837,o),
(540,886,q),
(515,886,l),
(511,840,o),
(472,811,o),
(450,811,qs),
(430,811,o),
(397,834,o),
(366,863,o),
(329,886,o),
(304,886,qs),
(266,886,o),
(219,838,o),
(215,788,q),
(240,788,l)
);
},
{
closed = 1;
nodes = (
(530,725,o),
(382,725,qs),
(280,725,o),
(137,632,o),
(63,467,o),
(63,359,qs),
(63,251,o),
(133,85,o),
(272,-10,o),
(376,-10,qs),
(482,-10,o),
(621,84,o),
(690,250,o),
(690,358,qs),
(690,532,o)
);
},
{
closed = 1;
nodes = (
(154,612,o),
(284,700,o),
(382,700,qs),
(517,700,o),
(663,521,o),
(663,358,qs),
(663,257,o),
(602,102,o),
(475,15,o),
(377,15,qs),
(280,15,o),
(152,104,o),
(90,259,o),
(90,359,qs),
(90,458,o)
);
}
);
width = 754;
}
);
note = uni022C;
unicode = 556;
}
{
glyphname = uni0230;
layers = (
{
layerId = m01;
shapes = (
{
closed = 1;
nodes = (
(251,928,l),
(506,928,l),
(506,952,l),
(251,952,l)
);
},
{
closed = 1;
nodes = (
(352,835,o),
(352,823,qs),
(352,810,o),
(362,792,o),
(377,792,qs),
(395,792,o),
(404,810,o),
(404,823,qs),
(404,835,o),
(395,854,o),
(377,854,qs),
(362,854,o)
);
},
{
closed = 1;
nodes = (
(530,725,o),
(382,725,qs),
(280,725,o),
(137,632,o),
(63,467,o),
(63,359,qs),
(63,251,o),
(133,85,o),
(272,-10,o),
(376,-10,qs),
(482,-10,o),
(621,84,o),
(690,250,o),
(690,358,qs),
(690,532,o)
);
},
{
closed = 1;
nodes = (
(154,612,o),
(284,700,o),
(382,700,qs),
(517,700,o),
(663,521,o),
(663,358,qs),
(663,257,o),
(602,102,o),
(475,15,o),
(377,15,qs),
(280,15,o),
(152,104,o),
(90,259,o),
(90,359,qs),
(90,458,o)
);
}
);
width = 754;
}
);
note = uni0230;
unicode = 560;
}
{
glyphname = uni0234;
layers = (
{
layerId = m01;
shapes = (
{
closed = 1;
nodes = (
(58,10,o),
(85,71,o),
(99,88,q),
(111,43,o),
(167,-10,o),
(215,-10,qs),
(257,-10,o),
(324,42,o),
(324,89,qs),
(324,133,o),
(268,185,o),
(219,185,qs),
(184,185,o),
(133,161,o),
(117,147,q),
(117,760,l),
(91,760,l),
(91,189,ls),
(91,173,o),
(93,135,o),
(94,121,q),
(72,96,o),
(36,22,o),
(25,-15,q),
(50,-19,l)
);
},
{
closed = 1;
nodes = (
(124,74,o),
(120,114,q),
(137,135,o),
(187,160,o),
(218,160,qs),
(256,160,o),
(297,122,o),
(297,89,qs),
(297,57,o),
(252,15,o),
(215,15,qs),
(172,15,o)
);
}
);
width = 341;
}
);
note = uni0234;
unicode = 564;
}
{
glyphname = uni0235;
layers = (
{
layerId = m01;
shapes = (
{
closed = 1;
nodes = (
(430,10,o),
(457,71,o),
(471,88,q),
(483,43,o),
(539,-10,o),
(587,-10,qs),
(629,-10,o),
(696,42,o),
(696,89,qs),
(696,133,o),
(638,185,o),
(591,185,qs),
(556,185,o),
(505,161,o),
(489,147,q),
(489,346,ls),
(489,444,o),
(395,538,o),
(309,538,qs),
(253,538,o),
(176,503,o),
(129,448,o),
(117,417,q),
(115,417,l),
(111,528,l),
(90,528,l),
(90,0,l),
(116,0,l),
(116,302,ls),
(116,410,o),
(223,513,o),
(309,513,qs),
(382,513,o),
(463,433,o),
(463,345,qs),
(463,189,ls),
(463,173,o),
(465,135,o),
(466,121,q),
(444,96,o),
(408,22,o),
(397,-15,q),
(422,-19,l)
);
},
{
closed = 1;
nodes = (
(496,74,o),
(492,114,q),
(509,135,o),
(559,160,o),
(590,160,qs),
(628,160,o),
(669,122,o),
(669,89,qs),
(669,57,o),
(624,15,o),
(587,15,qs),
(544,15,o)
);
}
);
width = 715;
}
);
note = uni0235;
unicode = 565;
}
{
glyphname = uni0236;
layers = (
{
layerId = m01;
shapes = (
{
closed = 1;
nodes = (
(58,10,o),
(85,71,o),
(99,88,q),
(111,43,o),
(167,-10,o),
(215,-10,qs),
(257,-10,o),
(324,42,o),
(324,89,qs),
(324,133,o),
(266,185,o),
(219,185,qs),
(184,185,o),
(133,161,o),
(117,147,q),
(117,503,l),
(289,503,l),
(289,528,l),
(117,528,l),
(117,659,l),
(96,659,l),
(90,528,l),
(10,525,l),
(10,503,l),
(91,503,l),
(91,189,ls),
(91,173,o),
(93,135,o),
(94,121,q),
(72,96,o),
(36,22,o),
(25,-15,q),
(50,-19,l)
);
},
{
closed = 1;
nodes = (
(124,74,o),
(120,114,q),
(137,135,o),
(187,160,o),
(218,160,qs),
(256,160,o),
(297,122,o),
(297,89,qs),
(297,57,o),
(252,15,o),
(215,15,qs),
(172,15,o)
);
}
);
width = 342;
}
);
note = uni0236;
unicode = 566;
}
{
glyphname = uni0238;
layers = (
{
layerId = m01;
shapes = (
{
closed = 1;
nodes = (
(481,153,q),
(518,-10,o),
(683,-10,qs),
(762,-10,o),
(859,63,o),
(903,186,o),
(903,262,qs),
(903,396,o),
(790,539,o),
(680,539,qs),
(601,539,o),
(510,460,o),
(494,406,q),
(492,406,l),
(493,430,o),
(494,501,o),
(494,525,qs),
(494,760,l),
(468,760,l),
(468,525,ls),
(468,501,o),
(469,430,o),
(470,406,q),
(468,406,l),
(452,460,o),
(361,539,o),
(282,539,qs),
(172,539,o),
(59,396,o),
(59,262,qs),
(59,186,o),
(103,63,o),
(200,-10,o),
(279,-10,qs),
(444,-10,o)
);
},
{
closed = 1;
nodes = (
(86,142,o),
(86,262,qs),
(86,385,o),
(184,514,o),
(282,514,qs),
(377,514,o),
(468,385,o),
(468,263,qs),
(468,141,o),
(377,15,o),
(279,15,qs),
(182,15,o)
);
},
{
closed = 1;
nodes = (
(494,263,qs),
(494,385,o),
(586,514,o),
(680,514,qs),
(778,514,o),
(876,385,o),
(876,262,qs),
(876,142,o),
(780,15,o),
(683,15,qs),
(494,15,o)
);
}
);
width = 962;
}
);
note = uni0238;
unicode = 568;
}
{
glyphname = uni0239;
layers = (
{
layerId = m01;
shapes = (
{
closed = 1;
nodes = (
(481,376,q),
(444,539,o),
(279,539,qs),
(200,539,o),
(103,466,o),
(59,343,o),
(59,267,qs),
(59,134,o),
(172,-10,o),
(282,-10,qs),
(361,-10,o),
(452,69,o),
(468,123,q),
(470,123,l),
(469,99,o),
(468,28,o),
(468,4,qs),
(468,-231,l),
(494,-231,l),
(494,4,ls),
(494,28,o),
(493,99,o),
(492,123,q),
(494,123,l),
(510,69,o),
(601,-10,o),
(680,-10,qs),
(790,-10,o),
(903,134,o),
(903,267,qs),
(903,343,o),
(859,466,o),
(762,539,o),
(683,539,qs),
(518,539,o)
);
},
{
closed = 1;
nodes = (
(468,266,qs),
(468,145,o),
(377,15,o),
(282,15,qs),
(184,15,o),
(86,144,o),
(86,267,qs),
(86,387,o),
(182,514,o),
(279,514,qs),
(468,514,o)
);
},
{
closed = 1;
nodes = (
(876,387,o),
(876,267,qs),
(876,144,o),
(778,15,o),
(680,15,qs),
(586,15,o),
(494,145,o),
(494,266,qs),
(494,388,o),
(586,514,o),
(683,514,qs),
(780,514,o)
);
}
);
width = 962;
}
);
note = uni0239;
unicode = 569;
}
{
glyphname = uni023A;
layers = (
{
layerId = m01;
shapes = (
{
closed = 1;
nodes = (
(390,496,l),
(482,760,l),
(456,760,l),
(377,531,l),
(307,716,l),
(282,716,l),
(0,0,l),
(28,0,l),
(135,271,l),
(286,271,l),
(166,-75,l),
(192,-75,l),
(312,271,l),
(445,271,l),
(549,0,l),
(577,0,l)
);
},
{
closed = 1;
nodes = (
(295,296,l),
(144,296,l),
(260,593,ls),
(268,613,o),
(286,660,o),
(293,682,q),
(303,654,o),
(319,611,o),
(325,594,qs),
(363,492,l)
);
},
{
closed = 1;
nodes = (
(376,455,l),
(435,296,l),
(321,296,l)
);
}
);
width = 577;
}
);
note = uni023A;
unicode = 570;
}
{
glyphname = uni023B;
layers = (
{
layerId = m01;
shapes = (
{
closed = 1;
nodes = (
(491,716,l),
(450,724,o),
(405,724,qs),
(298,724,o),
(145,629,o),
(63,464,o),
(63,360,qs),
(63,235,o),
(156,55,o),
(248,16,q),
(216,-75,l),
(242,-75,l),
(271,7,l),
(323,-10,o),
(386,-10,qs),
(445,-10,o),
(537,8,o),
(570,21,q),
(570,44,l),
(534,31,o),
(444,15,o),
(386,15,qs),
(327,15,o),
(279,31,q),
(507,688,l),
(541,679,o),
(573,662,q),
(583,687,l),
(550,702,o),
(515,711,q),
(532,760,l),
(506,760,l)
);
},
{
closed = 1;
nodes = (
(463,696,o),
(483,693,q),
(256,40,l),
(173,77,o),
(90,244,o),
(90,360,qs),
(90,458,o),
(164,611,o),
(305,699,o),
(405,699,qs),
(424,699,o)
);
}
);
width = 614;
}
);
note = uni023B;
unicode = 571;
}
{
glyphname = uni023C;
layers = (
{
layerId = m01;
shapes = (
{
closed = 1;
nodes = (
(413,6,o),
(438,16,q),
(438,41,l),
(409,29,o),
(338,15,o),
(302,15,qs),
(258,15,o),
(222,27,q),
(388,505,l),
(413,500,o),
(437,489,q),
(442,514,l),
(419,524,o),
(396,529,q),
(451,687,l),
(425,687,l),
(372,534,l),
(347,538,o),
(319,538,qs),
(238,538,o),
(122,467,o),
(59,342,o),
(59,261,qs),
(59,175,o),
(123,42,o),
(190,12,q),
(135,-148,l),
(161,-148,l),
(213,3,l),
(253,-10,o),
(302,-10,qs),
(343,-10,o)
);
},
{
closed = 1;
nodes = (
(143,449,o),
(247,513,o),
(319,513,qs),
(342,513,o),
(364,510,q),
(199,37,l),
(140,66,o),
(86,186,o),
(86,261,qs),
(86,335,o)
);
}
);
width = 472;
}
);
note = uni023C;
unicode = 572;
}
{
glyphname = uni023D;
layers = (
{
layerId = m01;
shapes = (
{
closed = 1;
nodes = (
(486,25,l),
(129,25,l),
(129,330,l),
(327,330,l),
(327,355,l),
(129,355,l),
(129,714,l),
(103,714,l),
(103,355,l),
(7,355,l),
(7,330,l),
(103,330,l),
(103,0,l),
(486,0,l)
);
}
);
width = 506;
}
);
note = uni023D;
unicode = 573;
}
{
glyphname = uni023E;
layers = (
{
layerId = m01;
shapes = (
{
closed = 1;
nodes = (
(446,689,l),
(503,689,l),
(503,714,l),
(459,714,l),
(484,760,l),
(456,760,l),
(431,714,l),
(2,714,l),
(2,689,l),
(239,689,l),
(239,356,l),
(8,-75,l),
(36,-75,l),
(239,303,l),
(239,0,l),
(265,0,l),
(265,352,l)
);
},
{
closed = 1;
nodes = (
(265,404,l),
(265,689,l),
(418,689,l)
);
}
);
width = 505;
}
);
note = uni023E;
unicode = 574;
}
{
glyphname = uni023F;
layers = (
{
layerId = m01;
shapes = (
{
closed = 1;
nodes = (
(399,-230,o),
(410,-226,q),
(410,-201,l),
(398,-206,o),
(360,-215,o),
(337,-215,qs),
(297,-215,o),
(257,-189,o),
(237,-132,o),
(226,-86,qs),
(220,-60,o),
(204,-20,o),
(188,-10,q),
(289,-12,o),
(411,55,o),
(411,134,qs),
(411,185,o),
(359,240,o),
(277,272,o),
(233,286,qs),
(193,299,o),
(124,323,o),
(83,366,o),
(83,407,qs),
(83,460,o),
(166,513,o),
(238,513,qs),
(278,513,o),
(359,497,o),
(387,483,q),
(398,508,l),
(367,521,o),
(285,538,o),
(238,538,qs),
(154,538,o),
(56,469,o),
(56,407,qs),
(56,358,o),
(101,305,o),
(178,276,o),
(224,262,qs),
(268,249,o),
(341,220,o),
(384,173,o),
(384,134,qs),
(384,79,o),
(304,15,o),
(213,15,qs),
(119,15,o),
(39,54,q),
(39,25,l),
(52,19,o),
(96,5,o),
(116,0,qs),
(157,-10,o),
(192,-53,o),
(202,-97,qs),
(213,-144,o),
(239,-208,o),
(288,-240,o),
(332,-240,qs),
(360,-240,o)
);
}
);
width = 458;
}
);
note = uni023F;
unicode = 575;
}
{
glyphname = uni0240;
layers = (
{
layerId = m01;
shapes = (
{
closed = 1;
nodes = (
(428,-230,o),
(441,-226,q),
(441,-201,l),
(428,-206,o),
(384,-215,o),
(358,-215,qs),
(315,-215,o),
(264,-188,o),
(231,-131,o),
(214,-86,qs),
(192,-26,o),
(123,18,o),
(73,20,q),
(415,513,l),
(415,528,l),
(68,528,l),
(68,503,l),
(377,503,l),
(41,17,l),
(41,0,l),
(47,0,ls),
(102,0,o),
(169,-40,o),
(190,-97,qs),
(208,-144,o),
(246,-208,o),
(305,-240,o),
(354,-240,qs),
(386,-240,o)
);
}
);
width = 456;
}
);
note = uni0240;
unicode = 576;
}
{
glyphname = Glottalstopcased;
layers = (
{
layerId = m01;
shapes = (
{
closed = 1;
nodes = (
(43,698,o),
(9,681,q),
(19,658,l),
(48,672,o),
(125,698,o),
(178,698,qs),
(256,698,o),
(346,610,o),
(346,526,qs),
(346,473,o),
(314,399,o),
(259,349,o),
(190,314,o),
(154,299,q),
(154,0,l),
(180,0,l),
(180,283,l),
(212,297,o),
(280,334,o),
(338,389,o),
(373,470,o),
(373,528,qs),
(373,620,o),
(270,723,o),
(179,723,qs),
(122,723,o)
);
}
);
width = 397;
}
);
note = Glottalstopcased;
unicode = 577;
}
{
glyphname = glottalstopcased;
layers = (
{
layerId = m01;
shapes = (
{
closed = 1;
nodes = (
(43,511,o),
(9,494,q),
(19,471,l),
(48,485,o),
(125,511,o),
(178,511,qs),
(256,511,o),
(346,425,o),
(346,347,qs),
(346,282,o),
(290,201,o),
(202,152,o),
(154,134,q),
(154,0,l),
(180,0,l),
(180,118,l),
(212,131,o),
(280,167,o),
(338,220,o),
(373,297,o),
(373,349,qs),
(373,435,o),
(270,536,o),
(179,536,qs),
(122,536,o)
);
}
);
width = 391;
}
);
note = glottalstopcased;
unicode = 578;
}
{
glyphname = uni0243;
layers = (
{
layerId = m01;
shapes = (
{
closed = 1;
nodes = (
(376,0,o),
(491,40,o),
(557,130,o),
(557,203,qs),
(557,271,o),
(487,362,o),
(398,375,q),
(398,377,l),
(467,389,o),
(539,481,o),
(539,542,qs),
(539,628,o),
(425,714,o),
(294,714,qs),
(103,714,l),
(103,211,l),
(17,211,l),
(17,186,l),
(103,186,l),
(103,0,l),
(303,0,ls)
);
},
{
closed = 1;
nodes = (
(129,689,l),
(291,689,ls),
(407,689,o),
(512,620,o),
(512,541,qs),
(512,388,o),
(303,388,qs),
(129,388,l)
);
},
{
closed = 1;
nodes = (
(129,186,l),
(283,186,l),
(283,211,l),
(129,211,l),
(129,363,l),
(300,363,ls),
(372,363,o),
(475,334,o),
(530,264,o),
(530,202,qs),
(530,110,o),
(413,25,o),
(311,25,qs),
(129,25,l)
);
}
);
width = 613;
}
);
note = uni0243;
unicode = 579;
}
{
glyphname = uni0244;
layers = (
{
layerId = m01;
shapes = (
{
closed = 1;
nodes = (
(95,254,ls),
(95,124,o),
(231,-10,o),
(355,-10,qs),
(433,-10,o),
(551,47,o),
(618,163,o),
(618,252,qs),
(618,386,l),
(698,386,l),
(698,411,l),
(618,411,l),
(618,714,l),
(592,714,l),
(592,411,l),
(121,411,l),
(121,714,l),
(95,714,l),
(95,411,l),
(13,411,l),
(13,386,l),
(95,386,l)
);
},
{
closed = 1;
nodes = (
(592,386,l),
(592,244,ls),
(592,130,o),
(463,15,o),
(356,15,qs),
(244,15,o),
(121,136,o),
(121,256,qs),
(121,386,l)
);
}
);
width = 712;
}
);
note = uni0244;
unicode = 580;
}
{
glyphname = uni0246;
layers = (
{
layerId = m01;
shapes = (
{
closed = 1;
nodes = (
(212,25,l),
(329,364,l),
(468,364,l),
(468,389,l),
(338,389,l),
(442,689,l),
(488,689,l),
(488,714,l),
(451,714,l),
(467,760,l),
(441,760,l),
(425,714,l),
(103,714,l),
(103,0,l),
(177,0,l),
(151,-75,l),
(177,-75,l),
(203,0,l),
(488,0,l),
(488,25,l)
);
},
{
closed = 1;
nodes = (
(416,689,l),
(312,389,l),
(129,389,l),
(129,689,l)
);
},
{
closed = 1;
nodes = (
(303,364,l),
(186,25,l),
(129,25,l),
(129,364,l)
);
}
);
width = 550;
}
);
note = uni0246;
unicode = 582;
}
{
glyphname = uni0247;
layers = (
{
layerId = m01;
shapes = (
{
closed = 1;
nodes = (
(109,461,o),
(59,334,o),
(59,259,qs),
(59,176,o),
(116,48,o),
(177,16,q),
(116,-159,l),
(142,-159,l),
(199,6,l),
(242,-10,o),
(296,-10,qs),
(344,-10,o),
(421,6,o),
(459,23,q),
(459,50,l),
(413,29,o),
(344,15,o),
(296,15,qs),
(247,15,o),
(208,30,q),
(290,266,l),
(479,266,l),
(479,291,ls),
(479,368,o),
(430,489,o),
(377,517,q),
(432,676,l),
(406,676,l),
(354,527,l),
(324,538,o),
(287,538,qs),
(210,538,o)
);
},
{
closed = 1;
nodes = (
(346,503,q),
(272,291,l),
(87,291,l),
(96,400,o),
(203,513,o),
(287,513,qs),
(319,513,o)
);
},
{
closed = 1;
nodes = (
(368,492,l),
(411,467,o),
(453,362,o),
(452,291,q),
(298,291,l)
);
},
{
closed = 1;
nodes = (
(186,41,l),
(84,99,o),
(86,266,q),
(264,266,l)
);
}
);
width = 540;
}
);
note = uni0247;
unicode = 583;
}
{
glyphname = uni0248;
layers = (
{
layerId = m01;
shapes = (
{
closed = 1;
nodes = (
(132,-89,o),
(132,-7,qs),
(132,332,l),
(229,332,l),
(229,357,l),
(132,357,l),
(132,714,l),
(106,714,l),
(106,357,l),
(10,357,l),
(10,332,l),
(106,332,l),
(106,-10,ls),
(106,-72,o),
(51,-148,o),
(-22,-148,qs),
(-66,-148,o),
(-97,-135,q),
(-97,-161,l),
(-84,-166,o),
(-46,-174,o),
(-21,-174,qs),
(62,-174,o)
);
}
);
width = 231;
}
);
note = uni0248;
unicode = 584;
}
{
glyphname = uni0249;
layers = (
{
layerId = m01;
shapes = (
{
closed = 1;
nodes = (
(130,677,o),
(130,690,qs),
(130,702,o),
(121,721,o),
(103,721,qs),
(88,721,o),
(78,702,o),
(78,690,qs),
(78,677,o),
(88,659,o),
(103,659,qs),
(121,659,o)
);
},
{
closed = 1;
nodes = (
(116,-181,o),
(116,-120,qs),
(116,251,l),
(203,251,l),
(203,276,l),
(116,276,l),
(116,528,l),
(90,528,l),
(90,276,l),
(7,276,l),
(7,251,l),
(90,251,l),
(90,-116,ls),
(90,-162,o),
(51,-215,o),
(11,-215,qs),
(-4,-215,o),
(-35,-211,o),
(-50,-204,q),
(-50,-230,l),
(-38,-234,o),
(-8,-240,o),
(11,-240,qs),
(54,-240,o)
);
}
);
width = 207;
}
);
note = uni0249;
unicode = 585;
}
{
glyphname = uni024A;
layers = (
{
layerId = m01;
shapes = (
{
closed = 1;
nodes = (
(133,631,o),
(65,468,o),
(65,360,qs),
(65,252,o),
(130,85,o),
(264,-10,o),
(368,-10,qs),
(440,-10,o),
(543,38,o),
(610,120,o),
(625,170,q),
(627,170,l),
(626,145,o),
(625,80,o),
(625,56,qs),
(625,-125,ls),
(625,-243,o),
(729,-243,qs),
(746,-243,o),
(774,-237,o),
(784,-233,q),
(784,-208,l),
(772,-212,o),
(748,-218,o),
(731,-218,qs),
(691,-218,o),
(651,-170,o),
(651,-118,qs),
(651,714,l),
(627,714,l),
(626,548,l),
(624,548,l),
(610,596,o),
(543,675,o),
(440,722,o),
(371,722,qs),
(269,722,o)
);
},
{
closed = 1;
nodes = (
(555,640,o),
(625,517,o),
(625,418,qs),
(625,302,ls),
(625,204,o),
(556,76,o),
(440,15,o),
(370,15,qs),
(272,15,o),
(149,104,o),
(92,259,o),
(92,359,qs),
(92,458,o),
(151,610,o),
(274,697,o),
(370,697,qs),
(439,697,o)
);
}
);
width = 733;
}
);
note = uni024A;
unicode = 586;
}
{
glyphname = uni024B;
layers = (
{
layerId = m01;
shapes = (
{
closed = 1;
nodes = (
(103,463,o),
(56,338,o),
(56,262,qs),
(56,129,o),
(164,-11,o),
(269,-11,qs),
(345,-11,o),
(449,64,o),
(465,122,q),
(467,122,l),
(466,97,o),
(465,27,o),
(465,3,qs),
(465,-125,ls),
(465,-243,o),
(569,-243,qs),
(586,-243,o),
(614,-237,o),
(624,-233,q),
(624,-208,l),
(612,-212,o),
(588,-218,o),
(571,-218,qs),
(531,-218,o),
(491,-170,o),
(491,-118,qs),
(491,528,l),
(469,528,l),
(465,424,l),
(463,424,l),
(446,471,o),
(356,538,o),
(285,538,qs),
(205,538,o)
);
},
{
closed = 1;
nodes = (
(465,391,o),
(465,275,qs),
(465,265,ls),
(465,148,o),
(370,14,o),
(269,14,qs),
(83,14,o),
(83,262,qs),
(83,382,o),
(186,513,o),
(285,513,qs),
(376,513,o)
);
}
);
width = 583;
}
);
note = uni024B;
unicode = 587;
}
{
glyphname = uni024D;
layers = (
{
layerId = m01;
shapes = (
{
closed = 1;
nodes = (
(117,297,ls),
(117,395,o),
(195,511,o),
(278,511,qs),
(301,511,o),
(334,506,o),
(353,501,q),
(359,525,l),
(341,530,o),
(302,536,o),
(278,536,qs),
(214,536,o),
(133,473,o),
(119,427,q),
(117,427,l),
(115,528,l),
(91,528,l),
(91,289,l),
(15,289,l),
(15,264,l),
(91,264,l),
(91,0,l),
(117,0,l),
(117,264,l),
(261,264,l),
(261,289,l),
(117,289,l)
);
}
);
width = 375;
}
);
note = uni024D;
unicode = 589;
}
{
glyphname = uni024E;
layers = (
{
layerId = m01;
shapes = (
{
closed = 1;
nodes = (
(505,714,l),
(475,714,l),
(404,581,l),
(102,581,l),
(30,714,l),
(0,714,l),
(72,581,l),
(10,581,l),
(10,556,l),
(86,556,l),
(241,271,l),
(241,0,l),
(267,0,l),
(267,275,l),
(419,556,l),
(492,556,l),
(492,581,l),
(433,581,l)
);
},
{
closed = 1;
nodes = (
(390,556,l),
(253,301,l),
(115,556,l)
);
}
);
width = 505;
}
);
note = uni024E;
unicode = 590;
}
{
glyphname = uni024F;
layers = (
{
layerId = m01;
shapes = (
{
closed = 1;
nodes = (
(0,340,l),
(0,315,l),
(82,315,l),
(201,6,l),
(160,-102,ls),
(135,-166,o),
(86,-218,o),
(48,-218,qs),
(32,-218,o),
(8,-212,o),
(-6,-207,q),
(-6,-233,l),
(21,-243,o),
(48,-243,qs),
(97,-243,o),
(156,-180,o),
(181,-115,qs),
(348,315,l),
(426,315,l),
(426,340,l),
(357,340,l),
(430,528,l),
(403,528,l),
(330,340,l),
(99,340,l),
(27,528,l),
(0,528,l),
(72,340,l)
);
},
{
closed = 1;
nodes = (
(182,124,o),
(164,172,qs),
(109,315,l),
(321,315,l),
(264,168,ls),
(247,123,o),
(224,59,o),
(216,37,q),
(214,37,l),
(207,58,o)
);
}
);
width = 428;
}
);
note = uni024F;
unicode = 591;
}
{
glyphname = uni0250;
layers = (
{
layerId = m01;
shapes = (
{
closed = 1;
nodes = (
(374,12,o),
(414,30,q),
(405,56,l),
(362,34,o),
(287,16,o),
(247,16,qs),
(177,16,o),
(109,95,o),
(109,185,qs),
(109,228,l),
(212,234,ls),
(330,241,o),
(463,320,o),
(463,399,qs),
(463,462,o),
(383,538,o),
(303,538,qs),
(222,538,o),
(132,471,o),
(111,425,q),
(109,425,l),
(105,528,l),
(83,528,l),
(83,178,ls),
(83,81,o),
(165,-9,o),
(247,-9,qs),
(291,-9,o)
);
},
{
closed = 1;
nodes = (
(109,308,ls),
(111,399,o),
(203,513,o),
(303,513,qs),
(367,513,o),
(435,452,o),
(435,399,qs),
(435,329,o),
(312,263,o),
(210,258,qs),
(109,253,l)
);
}
);
width = 511;
}
);
note = uni0250;
unicode = 592;
}
{
glyphname = uni0251;
layers = (
{
layerId = m01;
shapes = (
{
closed = 1;
nodes = (
(448,64,o),
(466,117,q),
(468,117,l),
(468,49,o),
(499,-10,o),
(544,-10,qs),
(566,-10,o),
(582,-3,q),
(582,21,l),
(566,15,o),
(545,15,qs),
(519,15,o),
(494,59,o),
(494,119,qs),
(494,528,l),
(470,528,l),
(468,410,l),
(466,410,l),
(450,465,o),
(359,538,o),
(282,538,qs),
(174,538,o),
(59,395,o),
(59,258,qs),
(59,129,o),
(168,-10,o),
(274,-10,qs),
(357,-10,o)
);
},
{
closed = 1;
nodes = (
(86,139,o),
(86,258,qs),
(86,388,o),
(188,513,o),
(282,513,qs),
(374,513,o),
(467,386,o),
(467,266,qs),
(467,263,ls),
(467,146,o),
(376,15,o),
(274,15,qs),
(182,15,o)
);
}
);
width = 583;
}
);
note = uni0251;
unicode = 593;
}
{
glyphname = uni0252;
layers = (
{
layerId = m01;
shapes = (
{
closed = 1;
nodes = (
(135,464,o),
(117,411,q),
(115,411,l),
(115,479,o),
(84,538,o),
(39,538,qs),
(17,538,o),
(1,531,q),
(1,507,l),
(18,513,o),
(38,513,qs),
(64,513,o),
(89,469,o),
(89,409,qs),
(89,0,l),
(113,0,l),
(115,118,l),
(117,118,l),
(133,63,o),
(225,-10,o),
(301,-10,qs),
(409,-10,o),
(524,133,o),
(524,270,qs),
(524,399,o),
(415,538,o),
(309,538,qs),
(227,538,o)
);
},
{
closed = 1;
nodes = (
(497,389,o),
(497,270,qs),
(497,140,o),
(396,15,o),
(301,15,qs),
(209,15,o),
(116,142,o),
(116,262,qs),
(116,265,ls),
(116,382,o),
(207,513,o),
(309,513,qs),
(401,513,o)
);
}
);
width = 583;
}
);
note = uni0252;
unicode = 594;
}
{
glyphname = uni0253;
layers = (
{
layerId = m01;
shapes = (
{
closed = 1;
nodes = (
(89,686,o),
(89,615,qs),
(89,0,l),
(111,0,l),
(115,104,l),
(117,104,l),
(135,55,o),
(224,-10,o),
(295,-10,qs),
(376,-10,o),
(477,65,o),
(524,190,o),
(524,266,qs),
(524,400,o),
(416,539,o),
(311,539,qs),
(235,539,o),
(132,464,o),
(115,406,q),
(113,406,l),
(114,431,o),
(115,489,o),
(115,513,qs),
(115,612,ls),
(115,678,o),
(172,740,o),
(228,740,qs),
(258,740,o),
(280,734,q),
(280,760,l),
(267,762,o),
(242,765,o),
(228,765,qs),
(161,765,o)
);
},
{
closed = 1;
nodes = (
(497,266,qs),
(497,146,o),
(394,15,o),
(295,15,qs),
(115,15,o),
(115,263,qs),
(115,380,o),
(211,514,o),
(311,514,qs),
(497,514,o)
);
}
);
width = 583;
}
);
note = uni0253;
unicode = 595;
}
{
glyphname = uni0254;
layers = (
{
layerId = m01;
shapes = (
{
closed = 1;
nodes = (
(61,522,o),
(33,510,q),
(38,485,l),
(68,499,o),
(146,513,o),
(174,513,qs),
(284,513,o),
(387,382,o),
(387,271,qs),
(387,203,o),
(344,86,o),
(247,15,o),
(167,15,qs),
(131,15,o),
(59,29,o),
(30,41,q),
(30,14,l),
(55,4,o),
(124,-10,o),
(165,-10,qs),
(254,-10,o),
(363,66,o),
(414,195,o),
(414,272,qs),
(414,393,o),
(301,538,o),
(177,538,qs),
(141,538,o)
);
}
);
width = 473;
}
);
note = uni0254;
unicode = 596;
}
{
glyphname = uni0255;
layers = (
{
layerId = m01;
shapes = (
{
closed = 1;
nodes = (
(122,467,o),
(59,342,o),
(59,261,qs),
(59,207,o),
(85,113,o),
(110,77,q),
(81,26,o),
(67,-32,q),
(92,-38,l),
(99,-12,o),
(116,36,o),
(128,56,q),
(158,25,o),
(244,-10,o),
(302,-10,qs),
(379,-10,o),
(455,53,o),
(455,100,qs),
(455,145,o),
(384,201,o),
(325,201,qs),
(259,201,o),
(158,144,o),
(126,101,q),
(105,133,o),
(86,215,o),
(86,261,qs),
(86,335,o),
(143,449,o),
(247,513,o),
(319,513,qs),
(348,513,o),
(407,503,o),
(437,489,q),
(442,514,l),
(414,526,o),
(355,538,o),
(319,538,qs),
(238,538,o)
);
},
{
closed = 1;
nodes = (
(428,133,o),
(428,98,qs),
(428,65,o),
(367,15,o),
(302,15,qs),
(249,15,o),
(168,50,o),
(142,80,q),
(172,123,o),
(266,176,o),
(323,176,qs),
(373,176,o)
);
}
);
width = 494;
}
);
note = uni0255;
unicode = 597;
}
{
glyphname = uni0256;
layers = (
{
layerId = m01;
shapes = (
{
closed = 1;
nodes = (
(644,-231,o),
(654,-227,q),
(654,-202,l),
(644,-206,o),
(614,-212,o),
(594,-212,qs),
(548,-212,o),
(492,-157,o),
(492,-91,qs),
(492,760,l),
(466,760,l),
(466,543,ls),
(466,512,o),
(467,446,o),
(468,412,q),
(466,412,l),
(450,465,o),
(359,538,o),
(280,538,qs),
(174,538,o),
(57,393,o),
(57,259,qs),
(57,127,o),
(165,-10,o),
(270,-10,qs),
(325,-10,o),
(405,27,o),
(455,87,o),
(466,122,q),
(468,122,l),
(467,97,o),
(466,27,o),
(466,3,qs),
(466,-98,ls),
(466,-167,o),
(532,-237,o),
(593,-237,qs),
(611,-237,o)
);
},
{
closed = 1;
nodes = (
(84,135,o),
(84,259,qs),
(84,385,o),
(188,513,o),
(280,513,qs),
(366,513,o),
(465,394,o),
(465,266,qs),
(465,263,ls),
(465,146,o),
(366,15,o),
(270,15,qs),
(179,15,o)
);
}
);
width = 583;
}
);
note = uni0256;
unicode = 598;
}
{
glyphname = uni0257;
layers = (
{
layerId = m01;
shapes = (
{
closed = 1;
nodes = (
(450,63,o),
(468,113,q),
(470,113,l),
(472,0,l),
(494,0,l),
(494,640,ls),
(494,687,o),
(533,739,o),
(573,739,qs),
(588,739,o),
(619,735,o),
(634,728,q),
(634,754,l),
(622,759,o),
(592,764,o),
(573,764,qs),
(530,764,o),
(468,705,o),
(468,644,qs),
(468,543,ls),
(468,512,o),
(469,448,o),
(470,414,q),
(468,414,l),
(452,467,o),
(363,538,o),
(291,538,qs),
(179,538,o),
(59,391,o),
(59,254,qs),
(59,126,o),
(169,-10,o),
(283,-10,qs),
(362,-10,o)
);
},
{
closed = 1;
nodes = (
(86,134,o),
(86,254,qs),
(86,384,o),
(192,513,o),
(291,513,qs),
(380,513,o),
(468,386,o),
(468,266,qs),
(468,263,ls),
(468,146,o),
(383,15,o),
(283,15,qs),
(183,15,o)
);
}
);
width = 583;
}
);
note = uni0257;
unicode = 599;
}
{
glyphname = uni0258;
layers = (
{
layerId = m01;
shapes = (
{
closed = 1;
nodes = (
(101,472,o),
(61,361,o),
(61,291,qs),
(61,266,l),
(454,266,l),
(456,145,o),
(347,15,o),
(244,15,qs),
(196,15,o),
(128,29,o),
(81,50,q),
(81,23,l),
(119,6,o),
(196,-10,o),
(244,-10,qs),
(327,-10,o),
(432,60,o),
(481,182,o),
(481,259,qs),
(481,334,o),
(431,461,o),
(330,538,o),
(253,538,qs),
(186,538,o)
);
},
{
closed = 1;
nodes = (
(444,400,o),
(453,291,q),
(88,291,l),
(87,390,o),
(169,513,o),
(253,513,qs),
(337,513,o)
);
}
);
width = 540;
}
);
note = uni0258;
unicode = 600;
}
{
glyphname = uni0259;
layers = (
{
layerId = m01;
shapes = (
{
closed = 1;
nodes = (
(119,522,o),
(81,505,q),
(81,478,l),
(128,499,o),
(196,513,o),
(244,513,qs),
(347,513,o),
(456,383,o),
(454,262,q),
(61,262,l),
(61,237,ls),
(61,168,o),
(101,56,o),
(186,-10,o),
(253,-10,qs),
(330,-10,o),
(431,67,o),
(481,195,o),
(481,269,qs),
(481,347,o),
(432,468,o),
(327,538,o),
(244,538,qs),
(196,538,o)
);
},
{
closed = 1;
nodes = (
(444,128,o),
(337,15,o),
(253,15,qs),
(169,15,o),
(87,138,o),
(88,237,q),
(453,237,l)
);
}
);
width = 540;
}
);
note = uni0259;
unicode = 601;
}
{
glyphname = uni025A;
layers = (
{
layerId = m01;
shapes = (
{
closed = 1;
nodes = (
(436,70,o),
(478,210,o),
(478,298,q),
(547,318,l),
(556,280,o),
(581,215,o),
(628,177,o),
(669,177,qs),
(688,177,o),
(724,186,o),
(742,191,q),
(729,217,l),
(716,213,o),
(687,205,o),
(666,205,qs),
(630,205,o),
(593,251,o),
(579,304,qs),
(567,349,l),
(476,324,l),
(464,419,o),
(352,538,o),
(243,538,qs),
(197,538,o),
(118,520,o),
(81,506,q),
(81,480,l),
(117,494,o),
(198,513,o),
(240,513,qs),
(313,513,o),
(401,457,o),
(444,368,o),
(449,318,q),
(59,218,l),
(59,112,o),
(151,-10,o),
(249,-10,qs),
(337,-10,o)
);
},
{
closed = 1;
nodes = (
(116,70,o),
(87,155,o),
(86,199,q),
(451,292,l),
(451,153,o),
(355,16,o),
(251,16,qs),
(187,16,o)
);
}
);
width = 742;
}
);
note = uni025A;
unicode = 602;
}
{
glyphname = uni025B;
layers = (
{
layerId = m01;
shapes = (
{
closed = 1;
nodes = (
(175,294,o),
(92,349,o),
(92,401,qs),
(92,455,o),
(169,513,o),
(243,513,qs),
(283,513,o),
(358,497,o),
(387,484,q),
(396,508,l),
(360,522,o),
(291,538,o),
(242,538,qs),
(196,538,o),
(115,511,o),
(65,451,o),
(65,401,qs),
(65,361,o),
(107,300,o),
(164,283,q),
(164,281,l),
(104,266,o),
(47,191,o),
(47,138,qs),
(47,72,o),
(141,-10,o),
(238,-10,qs),
(288,-10,o),
(371,9,o),
(397,20,q),
(397,45,l),
(360,31,o),
(283,15,o),
(238,15,qs),
(153,15,o),
(74,86,o),
(74,138,qs),
(74,207,o),
(170,269,o),
(256,269,qs),
(316,269,l),
(316,294,l),
(262,294,ls)
);
}
);
width = 435;
}
);
note = uni025B;
unicode = 603;
}
{
glyphname = uni025D;
layers = (
{
layerId = m01;
shapes = (
{
closed = 1;
nodes = (
(78,516,o),
(44,499,q),
(54,475,l),
(88,492,o),
(157,513,o),
(200,513,qs),
(263,513,o),
(329,457,o),
(329,404,qs),
(329,349,o),
(253,294,o),
(188,294,qs),
(117,294,l),
(117,269,l),
(188,269,ls),
(265,269,o),
(349,216,o),
(349,151,qs),
(349,86,o),
(259,15,o),
(188,15,qs),
(145,15,o),
(68,34,o),
(31,55,q),
(31,25,l),
(57,11,o),
(137,-10,o),
(188,-10,qs),
(242,-10,o),
(327,27,o),
(376,98,o),
(376,150,qs),
(376,197,o),
(327,271,o),
(267,283,q),
(267,285,l),
(310,298,o),
(356,360,o),
(356,404,qs),
(356,422,o),
(353,438,q),
(398,452,l),
(407,414,o),
(432,349,o),
(479,311,o),
(520,311,qs),
(539,311,o),
(575,320,o),
(593,325,q),
(580,351,l),
(567,347,o),
(538,339,o),
(517,339,qs),
(481,339,o),
(444,385,o),
(430,438,qs),
(418,483,l),
(346,460,l),
(315,538,o),
(200,538,qs),
(151,538,o)
);
}
);
width = 593;
}
);
note = uni025D;
unicode = 605;
}
{
glyphname = uni025E;
layers = (
{
layerId = m01;
shapes = (
{
closed = 1;
nodes = (
(111,468,o),
(59,342,o),
(59,259,qs),
(59,135,o),
(164,-10,o),
(278,-10,qs),
(378,-10,o),
(477,79,o),
(477,148,qs),
(477,203,o),
(420,267,o),
(360,282,q),
(360,284,l),
(410,295,o),
(459,359,o),
(459,404,qs),
(459,467,o),
(369,538,o),
(295,538,qs),
(216,538,o)
);
},
{
closed = 1;
nodes = (
(432,454,o),
(432,404,qs),
(432,347,o),
(349,294,o),
(262,294,qs),
(228,294,l),
(228,269,l),
(268,269,ls),
(354,269,o),
(450,214,o),
(450,148,qs),
(450,93,o),
(367,15,o),
(280,15,qs),
(179,15,o),
(86,143,o),
(86,259,qs),
(86,335,o),
(131,449,o),
(223,513,o),
(295,513,qs),
(359,513,o)
);
}
);
width = 524;
}
);
note = uni025E;
unicode = 606;
}
{
glyphname = uni0260;
layers = (
{
layerId = m01;
shapes = (
{
closed = 1;
nodes = (
(466,705,o),
(466,644,qs),
(466,523,ls),
(466,496,o),
(466,456,o),
(467,434,q),
(465,434,l),
(444,478,o),
(363,538,o),
(290,538,qs),
(175,538,o),
(59,387,o),
(59,256,qs),
(59,125,o),
(174,-10,o),
(276,-10,qs),
(350,-10,o),
(448,55,o),
(466,117,q),
(468,117,l),
(467,88,o),
(466,46,o),
(466,17,qs),
(466,-25,ls),
(466,-111,o),
(379,-215,o),
(273,-215,qs),
(217,-215,o),
(123,-190,o),
(87,-173,q),
(87,-203,l),
(123,-218,o),
(212,-240,o),
(273,-240,qs),
(353,-240,o),
(449,-185,o),
(492,-88,o),
(492,-25,qs),
(492,640,ls),
(492,687,o),
(531,739,o),
(571,739,qs),
(586,739,o),
(617,735,o),
(632,728,q),
(632,754,l),
(620,759,o),
(590,764,o),
(571,764,qs),
(528,764,o)
);
},
{
closed = 1;
nodes = (
(434,456,o),
(466,357,o),
(466,294,qs),
(466,246,ls),
(466,205,o),
(450,123,o),
(409,56,o),
(335,15,o),
(276,15,qs),
(185,15,o),
(86,138,o),
(86,256,qs),
(86,377,o),
(185,513,o),
(290,513,qs),
(358,513,o)
);
}
);
width = 583;
}
);
note = uni0260;
unicode = 608;
}
{
glyphname = uni0262;
layers = (
{
layerId = m01;
shapes = (
{
closed = 1;
nodes = (
(120,467,o),
(51,342,o),
(51,265,qs),
(51,182,o),
(117,59,o),
(239,-8,o),
(324,-8,qs),
(375,-8,o),
(459,11,o),
(497,27,q),
(497,259,l),
(304,259,l),
(304,234,l),
(471,234,l),
(471,43,l),
(445,33,o),
(372,17,o),
(330,17,qs),
(208,17,o),
(78,151,o),
(78,266,qs),
(78,340,o),
(142,452,o),
(258,515,o),
(334,515,qs),
(378,515,o),
(452,496,o),
(483,479,q),
(493,505,l),
(460,521,o),
(383,540,o),
(337,540,qs),
(248,540,o)
);
}
);
width = 573;
}
);
note = uni0262;
unicode = 610;
}
{
glyphname = uni0263;
layers = (
{
layerId = m01;
shapes = (
{
closed = 1;
nodes = (
(312,-183,o),
(312,-139,qs),
(312,-85,o),
(269,15,o),
(239,76,q),
(443,528,l),
(413,528,l),
(273,215,ls),
(257,178,o),
(231,119,o),
(224,101,q),
(222,101,l),
(214,119,o),
(187,180,o),
(171,214,qs),
(30,528,l),
(0,528,l),
(206,75,l),
(175,15,o),
(130,-89,o),
(130,-139,qs),
(130,-184,o),
(178,-240,o),
(220,-240,qs),
(264,-240,o)
);
},
{
closed = 1;
nodes = (
(157,-177,o),
(157,-137,qs),
(157,-93,o),
(198,2,o),
(223,53,q),
(246,2,o),
(285,-90,o),
(285,-137,qs),
(285,-215,o),
(222,-215,qs),
(192,-215,o)
);
}
);
width = 430;
}
);
note = uni0263;
unicode = 611;
}
{
glyphname = uni0264;
layers = (
{
layerId = m01;
shapes = (
{
closed = 1;
nodes = (
(385,501,o),
(359,458,qs),
(286,336,ls),
(273,315,o),
(260,292,o),
(255,280,q),
(254,280,l),
(249,292,o),
(234,316,o),
(223,335,qs),
(152,457,ls),
(127,501,o),
(83,536,o),
(48,536,qs),
(32,536,o),
(4,528,o),
(-3,523,q),
(-3,497,l),
(2,501,o),
(28,511,o),
(45,511,qs),
(74,511,o),
(109,477,o),
(130,441,qs),
(237,259,l),
(209,215,o),
(167,134,o),
(167,85,qs),
(167,42,o),
(210,-9,o),
(250,-9,qs),
(292,-9,o),
(336,43,o),
(336,88,qs),
(336,135,o),
(299,215,o),
(271,259,q),
(377,438,ls),
(398,473,o),
(435,511,o),
(464,511,qs),
(493,511,o),
(510,499,q),
(510,526,l),
(503,530,o),
(481,536,o),
(464,536,qs),
(430,536,o)
);
},
{
closed = 1;
nodes = (
(309,124,o),
(309,86,qs),
(309,49,o),
(274,16,o),
(250,16,qs),
(225,16,o),
(194,49,o),
(194,87,qs),
(194,125,o),
(226,196,o),
(254,236,q),
(280,193,o)
);
}
);
width = 506;
}
);
note = uni0264;
unicode = 612;
}
{
glyphname = uni0265;
layers = (
{
layerId = m01;
shapes = (
{
closed = 1;
nodes = (
(483,-232,l),
(483,528,l),
(457,528,l),
(457,226,ls),
(457,118,o),
(350,15,o),
(264,15,qs),
(191,15,o),
(110,95,o),
(110,183,qs),
(110,528,l),
(84,528,l),
(84,182,ls),
(84,84,o),
(179,-10,o),
(264,-10,qs),
(320,-10,o),
(398,24,o),
(447,80,o),
(457,111,q),
(459,111,l),
(458,89,o),
(457,55,o),
(457,32,qs),
(457,-232,l)
);
}
);
width = 573;
}
);
note = uni0265;
unicode = 613;
}
{
glyphname = uni0267;
layers = (
{
layerId = m01;
shapes = (
{
closed = 1;
nodes = (
(90,705,o),
(90,644,qs),
(90,0,l),
(116,0,l),
(116,302,ls),
(116,410,o),
(223,513,o),
(309,513,qs),
(382,513,o),
(463,433,o),
(463,345,qs),
(463,-116,ls),
(463,-162,o),
(424,-215,o),
(384,-215,qs),
(369,-215,o),
(338,-211,o),
(323,-204,q),
(323,-230,l),
(335,-234,o),
(365,-240,o),
(384,-240,qs),
(427,-240,o),
(489,-181,o),
(489,-120,qs),
(489,346,ls),
(489,444,o),
(395,538,o),
(309,538,qs),
(253,538,o),
(175,504,o),
(127,449,o),
(116,417,q),
(114,417,l),
(115,439,o),
(116,474,o),
(116,496,qs),
(116,640,ls),
(116,687,o),
(155,739,o),
(195,739,qs),
(210,739,o),
(241,735,o),
(256,728,q),
(256,754,l),
(244,759,o),
(214,764,o),
(195,764,qs),
(152,764,o)
);
}
);
width = 589;
}
);
note = uni0267;
unicode = 615;
}
{
glyphname = uni0268;
layers = (
{
layerId = m01;
shapes = (
{
closed = 1;
nodes = (
(78,702,o),
(78,690,qs),
(78,677,o),
(88,659,o),
(103,659,qs),
(121,659,o),
(130,677,o),
(130,690,qs),
(130,702,o),
(121,721,o),
(103,721,qs),
(88,721,o)
);
},
{
closed = 1;
nodes = (
(116,528,l),
(90,528,l),
(90,295,l),
(10,295,l),
(10,270,l),
(90,270,l),
(90,0,l),
(116,0,l),
(116,270,l),
(197,270,l),
(197,295,l),
(116,295,l)
);
}
);
width = 207;
}
);
note = uni0268;
unicode = 616;
}
{
glyphname = iotaserifed;
layers = (
{
layerId = m01;
shapes = (
{
closed = 1;
nodes = (
(64,508,l),
(134,504,l),
(134,24,l),
(64,20,l),
(64,0,l),
(230,0,l),
(230,20,l),
(160,24,l),
(160,504,l),
(230,508,l),
(230,528,l),
(64,528,l)
);
}
);
width = 294;
}
);
note = iotaserifed;
unicode = 618;
}
{
glyphname = uni026B;
layers = (
{
layerId = m01;
shapes = (
{
closed = 1;
nodes = (
(117,0,l),
(117,366,l),
(129,357,o),
(157,345,o),
(175,345,qs),
(213,345,o),
(262,395,o),
(266,444,q),
(241,444,l),
(237,398,o),
(198,369,o),
(176,369,qs),
(159,369,o),
(131,387,o),
(117,398,q),
(117,760,l),
(91,760,l),
(91,420,l),
(78,430,o),
(49,444,o),
(30,444,qs),
(-8,444,o),
(-55,396,o),
(-59,346,q),
(-34,346,l),
(-29,391,o),
(8,420,o),
(28,420,qs),
(48,420,o),
(77,401,o),
(91,389,q),
(91,0,l)
);
}
);
width = 207;
}
);
note = uni026B;
unicode = 619;
}
{
glyphname = uni026C;
layers = (
{
layerId = m01;
shapes = (
{
closed = 1;
nodes = (
(163,318,l),
(249,318,l),
(249,343,l),
(163,343,l),
(163,760,l),
(137,760,l),
(137,424,l),
(127,444,o),
(91,466,o),
(65,466,qs),
(29,466,o),
(-14,427,o),
(-14,395,qs),
(-14,355,o),
(38,318,o),
(78,318,qs),
(137,318,l),
(137,0,l),
(163,0,l)
);
},
{
closed = 1;
nodes = (
(12,396,qs),
(12,416,o),
(39,442,o),
(66,442,qs),
(105,442,o),
(136,384,o),
(137,350,qs),
(137,343,l),
(82,343,ls),
(12,343,o)
);
}
);
width = 259;
}
);
note = uni026C;
unicode = 620;
}
{
glyphname = uni026D;
layers = (
{
layerId = m01;
shapes = (
{
closed = 1;
nodes = (
(248,-235,o),
(256,-233,q),
(256,-207,l),
(247,-210,o),
(221,-215,o),
(207,-215,qs),
(163,-215,o),
(117,-166,o),
(117,-105,qs),
(117,760,l),
(91,760,l),
(91,-114,ls),
(91,-240,o),
(205,-240,qs),
(222,-240,o)
);
}
);
width = 207;
}
);
note = uni026D;
unicode = 621;
}
{
glyphname = uni026E;
layers = (
{
layerId = m01;
shapes = (
{
closed = 1;
nodes = (
(526,-115,o),
(526,-14,qs),
(526,86,o),
(394,195,o),
(239,195,q),
(511,508,l),
(511,528,l),
(117,528,l),
(117,760,l),
(91,760,l),
(91,0,l),
(117,0,l),
(117,503,l),
(470,503,l),
(204,192,l),
(204,170,l),
(242,170,ls),
(376,170,o),
(499,80,o),
(499,-14,qs),
(499,-105,o),
(395,-215,o),
(300,-215,qs),
(254,-215,o),
(172,-195,o),
(136,-178,q),
(136,-208,l),
(171,-223,o),
(250,-240,o),
(300,-240,qs),
(407,-240,o)
);
}
);
width = 557;
}
);
note = uni026E;
unicode = 622;
}
{
glyphname = uni026F;
layers = (
{
layerId = m01;
shapes = (
{
closed = 1;
nodes = (
(398,50,o),
(417,99,q),
(419,99,l),
(433,46,o),
(510,-10,o),
(565,-10,qs),
(616,-10,o),
(684,23,o),
(725,72,o),
(735,96,q),
(737,96,l),
(741,0,l),
(762,0,l),
(762,528,l),
(736,528,l),
(736,203,ls),
(736,136,o),
(689,53,o),
(612,15,o),
(565,15,qs),
(510,15,o),
(435,88,o),
(435,168,qs),
(435,528,l),
(409,528,l),
(409,203,ls),
(409,103,o),
(313,15,o),
(238,15,qs),
(183,15,o),
(108,88,o),
(108,168,qs),
(108,528,l),
(82,528,l),
(82,167,ls),
(82,76,o),
(171,-10,o),
(238,-10,qs),
(309,-10,o)
);
}
);
width = 852;
}
);
note = uni026F;
unicode = 623;
}
{
glyphname = uni0270;
layers = (
{
layerId = m01;
shapes = (
{
closed = 1;
nodes = (
(736,203,ls),
(736,136,o),
(689,53,o),
(612,15,o),
(565,15,qs),
(510,15,o),
(435,88,o),
(435,168,qs),
(435,528,l),
(409,528,l),
(409,203,ls),
(409,103,o),
(313,15,o),
(238,15,qs),
(183,15,o),
(108,88,o),
(108,168,qs),
(108,528,l),
(82,528,l),
(82,167,ls),
(82,76,o),
(171,-10,o),
(238,-10,qs),
(305,-10,o),
(396,46,o),
(415,98,q),
(417,98,l),
(434,45,o),
(513,-10,o),
(565,-10,qs),
(616,-10,o),
(683,21,o),
(724,69,o),
(734,93,q),
(736,93,l),
(736,-240,l),
(762,-240,l),
(762,528,l),
(736,528,l)
);
}
);
width = 852;
}
);
note = uni0270;
unicode = 624;
}
{
glyphname = uni0271;
layers = (
{
layerId = m01;
shapes = (
{
closed = 1;
nodes = (
(458,481,o),
(437,431,q),
(432,431,l),
(416,485,o),
(340,538,o),
(287,538,qs),
(236,538,o),
(168,505,o),
(128,457,o),
(117,432,q),
(115,432,l),
(111,528,l),
(90,528,l),
(90,0,l),
(116,0,l),
(116,325,ls),
(116,392,o),
(163,475,o),
(241,513,o),
(287,513,qs),
(342,513,o),
(417,440,o),
(417,360,qs),
(417,0,l),
(443,0,l),
(443,325,ls),
(443,426,o),
(539,513,o),
(614,513,qs),
(669,513,o),
(744,440,o),
(744,360,qs),
(744,-116,ls),
(744,-162,o),
(705,-215,o),
(665,-215,qs),
(650,-215,o),
(619,-211,o),
(604,-204,q),
(604,-230,l),
(616,-234,o),
(646,-240,o),
(665,-240,qs),
(708,-240,o),
(770,-181,o),
(770,-120,qs),
(770,361,ls),
(770,452,o),
(682,538,o),
(614,538,qs),
(547,538,o)
);
}
);
width = 852;
}
);
note = uni0271;
unicode = 625;
}
{
glyphname = uni0272;
layers = (
{
layerId = m01;
shapes = (
{
closed = 1;
nodes = (
(176,503,o),
(129,448,o),
(117,417,q),
(115,417,l),
(111,528,l),
(90,528,l),
(90,-116,ls),
(90,-162,o),
(51,-215,o),
(11,-215,qs),
(-4,-215,o),
(-35,-211,o),
(-50,-204,q),
(-50,-230,l),
(-38,-234,o),
(-8,-240,o),
(11,-240,qs),
(54,-240,o),
(116,-181,o),
(116,-120,qs),
(116,302,ls),
(116,410,o),
(223,513,o),
(309,513,qs),
(382,513,o),
(463,433,o),
(463,345,qs),
(463,0,l),
(489,0,l),
(489,346,ls),
(489,444,o),
(395,538,o),
(309,538,qs),
(253,538,o)
);
}
);
width = 573;
}
);
note = uni0272;
unicode = 626;
}
{
glyphname = uni0273;
layers = (
{
layerId = m01;
shapes = (
{
closed = 1;
nodes = (
(489,444,o),
(395,538,o),
(309,538,qs),
(253,538,o),
(176,503,o),
(129,448,o),
(117,417,q),
(115,417,l),
(111,528,l),
(90,528,l),
(90,0,l),
(116,0,l),
(116,302,ls),
(116,410,o),
(223,513,o),
(309,513,qs),
(382,513,o),
(463,433,o),
(463,345,qs),
(463,-98,ls),
(463,-167,o),
(529,-237,o),
(590,-237,qs),
(608,-237,o),
(641,-231,o),
(651,-227,q),
(651,-202,l),
(641,-206,o),
(611,-212,o),
(591,-212,qs),
(545,-212,o),
(489,-157,o),
(489,-91,qs),
(489,346,ls)
);
}
);
width = 573;
}
);
note = uni0273;
unicode = 627;
}
{
glyphname = uni0274;
layers = (
{
layerId = m01;
shapes = (
{
closed = 1;
nodes = (
(109,396,ls),
(109,416,o),
(109,463,o),
(108,490,q),
(469,0,l),
(491,0,l),
(491,536,l),
(465,536,l),
(465,156,ls),
(465,129,o),
(465,80,o),
(466,48,q),
(106,536,l),
(83,536,l),
(83,0,l),
(109,0,l)
);
}
);
width = 562;
}
);
note = uni0274;
unicode = 628;
}
{
glyphname = uni0276;
layers = (
{
layerId = m01;
shapes = (
{
closed = 1;
nodes = (
(108,474,o),
(51,350,o),
(51,271,qs),
(51,191,o),
(107,65,o),
(214,-8,o),
(288,-8,qs),
(367,-8,o),
(473,76,o),
(498,145,q),
(498,0,l),
(805,0,l),
(805,25,l),
(524,25,l),
(524,271,l),
(790,271,l),
(790,296,l),
(524,296,l),
(524,511,l),
(805,511,l),
(805,536,l),
(498,536,l),
(498,399,l),
(473,468,o),
(367,546,o),
(288,546,qs),
(214,546,o)
);
},
{
closed = 1;
nodes = (
(497,387,o),
(497,271,qs),
(497,197,o),
(448,82,o),
(355,17,o),
(288,17,qs),
(221,17,o),
(126,83,o),
(77,198,o),
(77,271,qs),
(77,344,o),
(127,456,o),
(221,521,o),
(288,521,qs),
(386,521,o)
);
}
);
width = 850;
}
);
note = uni0276;
unicode = 630;
}
{
glyphname = uni0277;
layers = (
{
layerId = m01;
shapes = (
{
closed = 1;
nodes = (
(58,385,o),
(58,237,qs),
(58,116,o),
(147,-10,o),
(223,-10,qs),
(273,-10,o),
(341,46,o),
(351,92,q),
(353,92,l),
(364,46,o),
(426,-10,o),
(480,-10,qs),
(528,-10,o),
(593,32,o),
(631,103,o),
(647,191,o),
(647,237,qs),
(647,383,o),
(487,538,o),
(352,538,qs),
(215,538,o)
);
},
{
closed = 1;
nodes = (
(620,380,o),
(620,237,qs),
(620,135,o),
(552,15,o),
(479,15,qs),
(366,15,o),
(366,171,qs),
(366,338,l),
(340,338,l),
(340,171,ls),
(340,95,o),
(282,15,o),
(226,15,qs),
(157,15,o),
(85,128,o),
(85,237,qs),
(85,380,o),
(227,512,o),
(352,512,qs),
(475,512,o)
);
}
);
width = 705;
}
);
note = uni0277;
unicode = 631;
}
{
glyphname = uni0278;
layers = (
{
layerId = m01;
shapes = (
{
closed = 1;
nodes = (
(305,760,l),
(305,536,l),
(187,530,o),
(58,386,o),
(58,265,qs),
(58,143,o),
(186,-4,o),
(305,-8,q),
(305,-240,l),
(331,-240,l),
(331,-8,l),
(410,-3,o),
(520,69,o),
(578,189,o),
(578,265,qs),
(578,387,o),
(450,531,o),
(331,536,q),
(331,760,l)
);
},
{
closed = 1;
nodes = (
(199,20,o),
(85,151,o),
(85,265,qs),
(85,375,o),
(199,507,o),
(305,511,q),
(305,17,l)
);
},
{
closed = 1;
nodes = (
(439,507,o),
(551,377,o),
(551,265,qs),
(551,195,o),
(499,85,o),
(401,20,o),
(331,17,q),
(331,511,l)
);
}
);
width = 637;
}
);
note = uni0278;
unicode = 632;
}
{
glyphname = uni027A;
layers = (
{
layerId = m01;
shapes = (
{
closed = 1;
nodes = (
(242,55,o),
(256,101,q),
(258,101,l),
(260,0,l),
(284,0,l),
(284,760,l),
(258,760,l),
(258,231,ls),
(258,133,o),
(180,17,o),
(97,17,qs),
(75,17,o),
(41,22,o),
(22,27,q),
(16,3,l),
(34,-2,o),
(73,-8,o),
(97,-8,qs),
(161,-8,o)
);
}
);
width = 375;
}
);
note = uni027A;
unicode = 634;
}
{
glyphname = uni027B;
layers = (
{
layerId = m01;
shapes = (
{
closed = 1;
nodes = (
(436,-231,o),
(446,-227,q),
(446,-202,l),
(436,-206,o),
(406,-212,o),
(386,-212,qs),
(340,-212,o),
(284,-157,o),
(284,-91,qs),
(284,528,l),
(258,528,l),
(258,231,ls),
(258,133,o),
(180,17,o),
(97,17,qs),
(75,17,o),
(41,22,o),
(22,27,q),
(16,3,l),
(34,-2,o),
(73,-8,o),
(97,-8,qs),
(161,-8,o),
(242,55,o),
(256,101,q),
(258,101,l),
(258,-98,ls),
(258,-167,o),
(324,-237,o),
(385,-237,qs),
(403,-237,o)
);
}
);
width = 375;
}
);
note = uni027B;
unicode = 635;
}
{
glyphname = uni027D;
layers = (
{
layerId = m01;
shapes = (
{
closed = 1;
nodes = (
(133,473,o),
(119,427,q),
(117,427,l),
(115,528,l),
(91,528,l),
(91,-98,ls),
(91,-167,o),
(157,-237,o),
(218,-237,qs),
(236,-237,o),
(269,-231,o),
(279,-227,q),
(279,-202,l),
(269,-206,o),
(239,-212,o),
(219,-212,qs),
(173,-212,o),
(117,-157,o),
(117,-91,qs),
(117,297,ls),
(117,395,o),
(195,511,o),
(278,511,qs),
(301,511,o),
(334,506,o),
(353,501,q),
(359,525,l),
(341,530,o),
(302,536,o),
(278,536,qs),
(214,536,o)
);
}
);
width = 375;
}
);
note = uni027D;
unicode = 637;
}
{
glyphname = uni027E;
layers = (
{
layerId = m01;
shapes = (
{
closed = 1;
nodes = (
(84,449,o),
(84,369,qs),
(84,0,l),
(110,0,l),
(110,362,ls),
(110,442,o),
(176,513,o),
(235,513,qs),
(258,513,o),
(298,503,o),
(311,496,q),
(316,522,l),
(306,527,o),
(263,538,o),
(234,538,qs),
(163,538,o)
);
}
);
width = 327;
}
);
note = uni027E;
unicode = 638;
}
{
glyphname = uni027F;
layers = (
{
layerId = m01;
shapes = (
{
closed = 1;
nodes = (
(22,527,o),
(12,522,q),
(17,497,l),
(30,504,o),
(72,513,o),
(95,513,qs),
(162,513,o),
(219,440,o),
(219,362,qs),
(219,-240,l),
(245,-240,l),
(245,369,ls),
(245,449,o),
(177,538,o),
(101,538,qs),
(68,538,o)
);
}
);
width = 327;
}
);
note = uni027F;
unicode = 639;
}
{
glyphname = uni0280;
layers = (
{
layerId = m01;
shapes = (
{
closed = 1;
nodes = (
(109,237,l),
(261,237,l),
(414,0,l),
(446,0,l),
(289,240,l),
(338,250,o),
(413,326,o),
(413,391,qs),
(413,461,o),
(321,536,o),
(218,536,qs),
(83,536,l),
(83,0,l),
(109,0,l)
);
},
{
closed = 1;
nodes = (
(109,511,l),
(214,511,ls),
(305,511,o),
(387,452,o),
(387,390,qs),
(387,335,o),
(316,262,o),
(247,262,qs),
(109,262,l)
);
}
);
width = 464;
}
);
note = uni0280;
unicode = 640;
}
{
glyphname = uni0281;
layers = (
{
layerId = m01;
shapes = (
{
closed = 1;
nodes = (
(218,0,ls),
(321,0,o),
(413,75,o),
(413,145,qs),
(413,210,o),
(338,286,o),
(289,296,q),
(446,536,l),
(414,536,l),
(261,299,l),
(109,299,l),
(109,536,l),
(83,536,l),
(83,0,l)
);
},
{
closed = 1;
nodes = (
(387,201,o),
(387,146,qs),
(387,84,o),
(305,25,o),
(214,25,qs),
(109,25,l),
(109,274,l),
(247,274,ls),
(316,274,o)
);
}
);
width = 464;
}
);
note = uni0281;
unicode = 641;
}
{
glyphname = uni0282;
layers = (
{
layerId = m01;
shapes = (
{
closed = 1;
nodes = (
(359,240,o),
(277,272,o),
(233,286,qs),
(193,299,o),
(124,323,o),
(83,366,o),
(83,407,qs),
(83,460,o),
(166,513,o),
(238,513,qs),
(278,513,o),
(359,497,o),
(387,483,q),
(398,508,l),
(367,521,o),
(285,538,o),
(238,538,qs),
(154,538,o),
(56,469,o),
(56,407,qs),
(56,358,o),
(101,305,o),
(178,276,o),
(224,262,qs),
(268,249,o),
(341,220,o),
(384,173,o),
(384,134,qs),
(384,79,o),
(304,15,o),
(213,15,qs),
(119,15,o),
(39,54,q),
(39,-86,ls),
(39,-132,o),
(81,-169,o),
(116,-169,qs),
(135,-169,o),
(162,-163,o),
(172,-159,q),
(172,-134,l),
(147,-144,o),
(118,-144,qs),
(93,-144,o),
(65,-117,o),
(65,-77,qs),
(65,14,l),
(94,4,o),
(170,-10,o),
(213,-10,qs),
(312,-10,o),
(411,67,o),
(411,134,qs),
(411,185,o)
);
}
);
width = 458;
}
);
note = uni0282;
unicode = 642;
}
{
glyphname = uni0284;
layers = (
{
layerId = m01;
shapes = (
{
closed = 1;
nodes = (
(110,-163,o),
(110,-96,qs),
(110,283,l),
(208,283,l),
(208,308,l),
(110,308,l),
(110,621,ls),
(110,738,o),
(207,738,qs),
(220,738,o),
(240,736,o),
(247,734,q),
(247,759,l),
(240,761,o),
(219,763,o),
(208,763,qs),
(148,763,o),
(84,689,o),
(84,624,qs),
(84,308,l),
(-8,308,l),
(-8,283,l),
(84,283,l),
(84,-93,ls),
(84,-215,o),
(-8,-215,qs),
(-27,-215,o),
(-55,-209,o),
(-68,-205,q),
(-68,-231,l),
(-45,-240,o),
(-8,-240,qs),
(52,-240,o)
);
}
);
width = 202;
}
);
note = uni0284;
unicode = 644;
}
{
glyphname = uni0285;
layers = (
{
layerId = m01;
shapes = (
{
closed = 1;
nodes = (
(254,-231,q),
(254,-205,l),
(241,-209,o),
(213,-215,o),
(194,-215,qs),
(149,-215,o),
(105,-160,o),
(105,-99,qs),
(105,408,ls),
(105,470,o),
(44,545,o),
(-19,545,qs),
(-35,545,o),
(-60,541,o),
(-67,539,q),
(-67,514,l),
(-59,516,o),
(-36,520,o),
(-22,520,qs),
(79,520,o),
(79,406,qs),
(79,-103,ls),
(79,-172,o),
(139,-240,o),
(194,-240,qs),
(232,-240,o)
);
}
);
width = 202;
}
);
note = uni0285;
unicode = 645;
}
{
glyphname = uni0286;
layers = (
{
layerId = m01;
shapes = (
{
closed = 1;
nodes = (
(110,-165,o),
(110,-74,q),
(187,-74,l),
(187,-49,l),
(110,-49,l),
(110,609,ls),
(110,675,o),
(166,730,o),
(212,730,qs),
(232,730,o),
(261,725,o),
(271,720,q),
(271,745,l),
(248,755,o),
(213,755,qs),
(152,755,o),
(84,685,o),
(84,616,qs),
(84,-49,l),
(31,-49,ls),
(-23,-49,o),
(-85,-100,o),
(-85,-146,qs),
(-85,-190,o),
(-33,-240,o),
(7,-240,qs),
(58,-240,o)
);
},
{
closed = 1;
nodes = (
(-58,-179,o),
(-58,-146,qs),
(-58,-111,o),
(-15,-74,o),
(33,-74,qs),
(84,-74,l),
(84,-96,ls),
(84,-163,o),
(42,-215,o),
(7,-215,qs),
(-23,-215,o)
);
}
);
width = 202;
}
);
note = uni0286;
unicode = 646;
}
{
glyphname = uni0287;
layers = (
{
layerId = m01;
shapes = (
{
closed = 1;
nodes = (
(202,447,o),
(202,385,qs),
(202,25,l),
(30,25,l),
(30,0,l),
(202,0,l),
(202,-131,l),
(223,-131,l),
(229,0,l),
(309,3,l),
(309,25,l),
(228,25,l),
(228,388,ls),
(228,458,o),
(177,538,o),
(107,538,qs),
(81,538,o),
(45,530,o),
(28,525,q),
(28,500,l),
(45,506,o),
(82,513,o),
(107,513,qs),
(163,513,o)
);
}
);
width = 319;
}
);
note = uni0287;
unicode = 647;
}
{
glyphname = uni0288;
layers = (
{
layerId = m01;
shapes = (
{
closed = 1;
nodes = (
(117,-147,o),
(117,-86,qs),
(117,503,l),
(289,503,l),
(289,528,l),
(117,528,l),
(117,659,l),
(96,659,l),
(90,528,l),
(10,525,l),
(10,503,l),
(91,503,l),
(91,-89,ls),
(91,-159,o),
(142,-239,o),
(212,-239,qs),
(238,-239,o),
(275,-231,o),
(291,-226,q),
(291,-201,l),
(275,-207,o),
(237,-214,o),
(212,-214,qs),
(157,-214,o)
);
}
);
width = 319;
}
);
note = uni0288;
unicode = 648;
}
{
glyphname = uni0289;
layers = (
{
layerId = m01;
shapes = (
{
closed = 1;
nodes = (
(82,182,ls),
(82,88,o),
(174,-10,o),
(262,-10,qs),
(318,-10,o),
(395,25,o),
(443,81,o),
(454,111,q),
(456,111,l),
(460,0,l),
(481,0,l),
(481,263,l),
(555,263,l),
(555,288,l),
(481,288,l),
(481,528,l),
(455,528,l),
(455,288,l),
(108,288,l),
(108,528,l),
(82,528,l),
(82,288,l),
(10,288,l),
(10,263,l),
(82,263,l)
);
},
{
closed = 1;
nodes = (
(455,263,l),
(455,226,ls),
(455,118,o),
(348,15,o),
(262,15,qs),
(188,15,o),
(108,98,o),
(108,186,qs),
(108,263,l)
);
}
);
width = 573;
}
);
note = uni0289;
unicode = 649;
}
{
glyphname = uni028A;
layers = (
{
layerId = m01;
shapes = (
{
closed = 1;
nodes = (
(447,50,o),
(506,164,o),
(506,239,qs),
(506,307,o),
(468,405,o),
(403,477,o),
(363,503,q),
(524,503,l),
(524,528,l),
(322,528,l),
(322,505,l),
(369,476,o),
(439,405,o),
(479,308,o),
(479,239,qs),
(479,171,o),
(427,69,o),
(335,12,o),
(274,12,qs),
(180,12,o),
(67,134,o),
(67,239,qs),
(67,332,o),
(142,456,o),
(225,505,q),
(225,528,l),
(21,528,l),
(21,503,l),
(182,503,l),
(112,459,o),
(40,329,o),
(40,239,qs),
(40,121,o),
(166,-13,o),
(274,-13,qs),
(343,-13,o)
);
}
);
width = 544;
}
);
note = uni028A;
unicode = 650;
}
{
glyphname = uni028B;
layers = (
{
layerId = m01;
shapes = (
{
closed = 1;
nodes = (
(295,542,o),
(286,540,q),
(286,515,l),
(294,517,o),
(317,521,o),
(333,521,qs),
(375,521,o),
(421,466,o),
(421,407,qs),
(421,165,ls),
(421,15,o),
(265,15,qs),
(190,15,o),
(108,92,o),
(108,165,qs),
(108,528,l),
(82,528,l),
(82,162,ls),
(82,79,o),
(176,-10,o),
(265,-10,qs),
(357,-10,o),
(447,82,o),
(447,162,qs),
(447,418,ls),
(447,479,o),
(389,546,o),
(335,546,qs),
(317,546,o)
);
}
);
width = 531;
}
);
note = uni028B;
unicode = 651;
}
{
glyphname = uni028C;
layers = (
{
layerId = m01;
shapes = (
{
closed = 1;
nodes = (
(0,0,l),
(27,0,l),
(177,390,ls),
(190,422,o),
(205,467,o),
(214,492,q),
(216,492,l),
(224,467,o),
(240,422,o),
(253,390,qs),
(403,0,l),
(430,0,l),
(226,528,l),
(204,528,l)
);
}
);
width = 430;
}
);
note = uni028C;
unicode = 652;
}
{
glyphname = uni028D;
layers = (
{
layerId = m01;
shapes = (
{
closed = 1;
nodes = (
(157,529,l),
(16,1,l),
(42,1,l),
(141,372,ls),
(152,415,o),
(165,464,o),
(168,487,q),
(170,487,l),
(181,444,o),
(204,371,qs),
(323,1,l),
(344,1,l),
(469,372,ls),
(484,418,o),
(497,464,o),
(503,487,q),
(505,487,l),
(510,464,o),
(522,418,o),
(535,372,qs),
(640,1,l),
(669,1,l),
(516,529,l),
(494,529,l),
(365,140,ls),
(350,96,o),
(336,46,q),
(334,46,l),
(327,73,o),
(313,114,o),
(305,140,qs),
(179,529,l)
);
}
);
width = 685;
}
);
note = uni028D;
unicode = 653;
}
{
glyphname = uni028E;
layers = (
{
layerId = m01;
shapes = (
{
closed = 1;
nodes = (
(268,630,ls),
(293,694,o),
(342,746,o),
(380,746,qs),
(396,746,o),
(420,740,o),
(434,735,q),
(434,761,l),
(407,771,o),
(380,771,qs),
(331,771,o),
(272,708,o),
(247,643,qs),
(-2,0,l),
(25,0,l),
(164,360,ls),
(181,405,o),
(205,469,o),
(212,491,q),
(214,491,l),
(222,470,o),
(246,404,o),
(264,356,qs),
(401,0,l),
(428,0,l),
(227,522,l)
);
}
);
width = 428;
}
);
note = uni028E;
unicode = 654;
}
{
glyphname = uni028F;
layers = (
{
layerId = m01;
shapes = (
{
closed = 1;
nodes = (
(207,212,l),
(34,528,l),
(5,528,l),
(194,186,l),
(194,0,l),
(220,0,l),
(220,186,l),
(412,528,l),
(383,528,l)
);
}
);
width = 417;
}
);
note = uni028F;
unicode = 655;
}
{
glyphname = uni0290;
layers = (
{
layerId = m01;
shapes = (
{
closed = 1;
nodes = (
(503,-235,o),
(510,-231,q),
(510,-207,l),
(490,-216,o),
(468,-216,qs),
(412,-216,o),
(412,-155,qs),
(412,25,l),
(74,25,l),
(415,508,l),
(415,528,l),
(68,528,l),
(68,503,l),
(379,503,l),
(41,20,l),
(41,0,l),
(386,0,l),
(386,-161,ls),
(386,-195,o),
(426,-240,o),
(466,-240,qs),
(480,-240,o)
);
}
);
width = 456;
}
);
note = uni0290;
unicode = 656;
}
{
glyphname = uni0291;
layers = (
{
layerId = m01;
shapes = (
{
closed = 1;
nodes = (
(182,-61,o),
(199,-18,o),
(207,0,q),
(345,0,ls),
(429,0,o),
(508,62,o),
(508,112,qs),
(508,155,o),
(454,203,o),
(407,203,qs),
(335,203,o),
(229,106,o),
(189,25,q),
(74,25,l),
(415,508,l),
(415,528,l),
(68,528,l),
(68,503,l),
(379,503,l),
(41,20,l),
(41,0,l),
(178,0,l),
(162,-35,o),
(148,-77,q),
(174,-84,l)
);
},
{
closed = 1;
nodes = (
(253,94,o),
(346,178,o),
(405,178,qs),
(442,178,o),
(481,141,o),
(481,112,qs),
(481,77,o),
(419,25,o),
(342,25,qs),
(218,25,l)
);
}
);
width = 518;
}
);
note = uni0291;
unicode = 657;
}
{
glyphname = uni0293;
layers = (
{
layerId = m01;
shapes = (
{
closed = 1;
nodes = (
(296,-204,o),
(350,-156,o),
(362,-139,q),
(377,-156,o),
(408,-200,o),
(424,-224,q),
(447,-209,l),
(431,-183,o),
(395,-139,o),
(378,-117,q),
(386,-103,o),
(406,-47,o),
(406,-5,qs),
(406,90,o),
(274,195,o),
(119,195,q),
(391,508,l),
(391,528,l),
(33,528,l),
(33,503,l),
(350,503,l),
(84,192,l),
(84,170,l),
(120,170,ls),
(252,170,o),
(377,89,o),
(379,-6,qs),
(380,-38,o),
(366,-88,o),
(360,-98,q),
(321,-55,o),
(210,-2,o),
(139,-2,qs),
(59,-2,o),
(-15,-71,o),
(-15,-120,qs),
(-15,-181,o),
(79,-240,o),
(151,-240,qs),
(211,-240,o)
);
},
{
closed = 1;
nodes = (
(12,-167,o),
(12,-120,qs),
(12,-79,o),
(71,-27,o),
(139,-27,qs),
(197,-27,o),
(299,-70,o),
(346,-120,q),
(321,-155,o),
(227,-215,o),
(152,-215,qs),
(91,-215,o)
);
}
);
width = 437;
}
);
note = uni0293;
unicode = 659;
}
{
glyphname = uni0296;
layers = (
{
layerId = m01;
shapes = (
{
closed = 1;
nodes = (
(373,94,o),
(373,185,qs),
(373,243,o),
(338,324,o),
(280,379,o),
(212,416,o),
(180,430,q),
(180,753,l),
(154,753,l),
(154,414,l),
(190,399,o),
(259,364,o),
(314,314,o),
(346,240,o),
(346,187,qs),
(346,103,o),
(256,15,o),
(178,15,qs),
(125,15,o),
(48,41,o),
(19,55,q),
(9,32,l),
(43,15,o),
(122,-10,o),
(179,-10,qs),
(270,-10,o)
);
}
);
width = 397;
}
);
note = uni0296;
unicode = 662;
}
{
glyphname = uni0297;
layers = (
{
layerId = m01;
shapes = (
{
closed = 1;
nodes = (
(414,-225,o),
(436,-216,q),
(436,-191,l),
(412,-200,o),
(351,-214,o),
(312,-214,qs),
(264,-214,o),
(181,-179,o),
(120,-95,o),
(86,50,o),
(86,160,qs),
(86,289,o),
(147,444,o),
(253,513,o),
(320,513,qs),
(354,513,o),
(411,502,o),
(437,492,q),
(442,518,l),
(420,526,o),
(361,538,o),
(320,538,qs),
(245,538,o),
(127,464,o),
(59,298,o),
(59,160,qs),
(59,45,o),
(97,-109,o),
(164,-200,o),
(255,-239,o),
(309,-239,qs),
(351,-239,o)
);
}
);
width = 479;
}
);
note = uni0297;
unicode = 663;
}
{
glyphname = uni029A;
layers = (
{
layerId = m01;
shapes = (
{
closed = 1;
nodes = (
(117,509,o),
(65,447,o),
(65,397,qs),
(65,357,o),
(107,300,o),
(164,283,q),
(164,281,l),
(104,266,o),
(47,191,o),
(47,138,qs),
(47,72,o),
(140,-10,o),
(237,-10,qs),
(315,-10,o),
(416,60,o),
(465,183,o),
(465,264,qs),
(465,345,o),
(420,468,o),
(324,538,o),
(246,538,qs),
(200,538,o)
);
},
{
closed = 1;
nodes = (
(400,449,o),
(438,337,o),
(438,264,qs),
(438,150,o),
(341,15,o),
(237,15,qs),
(153,15,o),
(74,86,o),
(74,138,qs),
(74,207,o),
(170,269,o),
(256,269,qs),
(296,269,l),
(296,294,l),
(262,294,ls),
(175,294,o),
(92,345,o),
(92,397,qs),
(92,451,o),
(172,513,o),
(246,513,qs),
(316,513,o)
);
}
);
width = 550;
}
);
note = uni029A;
unicode = 666;
}
{
glyphname = uni029B;
layers = (
{
layerId = m01;
shapes = (
{
closed = 1;
nodes = (
(467,708,o),
(467,646,qs),
(467,516,l),
(439,527,o),
(374,540,o),
(337,540,qs),
(248,540,o),
(120,467,o),
(51,342,o),
(51,265,qs),
(51,182,o),
(117,59,o),
(239,-8,o),
(324,-8,qs),
(375,-8,o),
(459,11,o),
(497,27,q),
(497,259,l),
(304,259,l),
(304,234,l),
(471,234,l),
(471,43,l),
(445,33,o),
(372,17,o),
(330,17,qs),
(208,17,o),
(78,151,o),
(78,266,qs),
(78,340,o),
(142,452,o),
(258,515,o),
(334,515,qs),
(378,515,o),
(452,496,o),
(483,479,q),
(493,505,l),
(493,643,ls),
(493,699,o),
(535,743,o),
(571,743,qs),
(588,743,o),
(613,737,o),
(624,732,q),
(624,759,l),
(616,762,o),
(591,768,o),
(572,768,qs),
(522,768,o)
);
}
);
width = 576;
}
);
note = uni029B;
unicode = 667;
}
{
glyphname = uni029C;
layers = (
{
layerId = m01;
shapes = (
{
closed = 1;
nodes = (
(117,264,l),
(478,264,l),
(478,0,l),
(504,0,l),
(504,528,l),
(478,528,l),
(478,289,l),
(117,289,l),
(117,528,l),
(91,528,l),
(91,0,l),
(117,0,l)
);
}
);
width = 595;
}
);
note = uni029C;
unicode = 668;
}
{
glyphname = uni029D;
layers = (
{
layerId = m01;
shapes = (
{
closed = 1;
nodes = (
(130,677,o),
(130,690,qs),
(130,702,o),
(121,721,o),
(103,721,qs),
(88,721,o),
(78,702,o),
(78,690,qs),
(78,677,o),
(88,659,o),
(103,659,qs),
(121,659,o)
);
},
{
closed = 1;
nodes = (
(115,-165,o),
(115,-74,q),
(192,-74,l),
(192,-49,l),
(116,-49,l),
(116,528,l),
(90,528,l),
(90,-49,l),
(36,-49,ls),
(-18,-49,o),
(-80,-100,o),
(-80,-146,qs),
(-80,-190,o),
(-28,-240,o),
(12,-240,qs),
(63,-240,o)
);
},
{
closed = 1;
nodes = (
(-53,-179,o),
(-53,-146,qs),
(-53,-111,o),
(-10,-74,o),
(38,-74,qs),
(89,-74,l),
(89,-96,ls),
(89,-163,o),
(47,-215,o),
(12,-215,qs),
(-18,-215,o)
);
}
);
width = 207;
}
);
note = uni029D;
unicode = 669;
}
{
glyphname = uni029E;
layers = (
{
layerId = m01;
shapes = (
{
closed = 1;
nodes = (
(364,-232,l),
(364,528,l),
(338,528,l),
(338,356,l),
(238,245,l),
(26,528,l),
(-5,528,l),
(220,227,l),
(15,0,l),
(49,0,l),
(282,260,ls),
(298,278,o),
(322,305,o),
(339,324,q),
(338,277,o),
(338,191,o),
(338,143,qs),
(338,-232,l)
);
}
);
width = 454;
}
);
note = uni029E;
unicode = 670;
}
{
glyphname = uni029F;
layers = (
{
layerId = m01;
shapes = (
{
closed = 1;
nodes = (
(412,25,l),
(117,25,l),
(117,528,l),
(91,528,l),
(91,0,l),
(412,0,l)
);
}
);
width = 437;
}
);
note = uni029F;
unicode = 671;
}
{
glyphname = uni02A0;
layers = (
{
layerId = m01;
shapes = (
{
closed = 1;
nodes = (
(492,-240,l),
(492,640,ls),
(492,687,o),
(531,739,o),
(571,739,qs),
(586,739,o),
(617,735,o),
(632,728,q),
(632,754,l),
(620,759,o),
(590,764,o),
(571,764,qs),
(528,764,o),
(466,705,o),
(466,644,qs),
(466,543,ls),
(466,512,o),
(467,446,o),
(468,412,q),
(466,412,l),
(450,465,o),
(359,538,o),
(280,538,qs),
(174,538,o),
(57,393,o),
(57,259,qs),
(57,127,o),
(165,-10,o),
(270,-10,qs),
(325,-10,o),
(405,27,o),
(455,87,o),
(466,122,q),
(468,122,l),
(467,97,o),
(466,27,o),
(466,3,qs),
(466,-240,l)
);
},
{
closed = 1;
nodes = (
(84,135,o),
(84,259,qs),
(84,385,o),
(188,513,o),
(280,513,qs),
(366,513,o),
(465,394,o),
(465,266,qs),
(465,263,ls),
(465,146,o),
(366,15,o),
(270,15,qs),
(179,15,o)
);
}
);
width = 583;
}
);
note = uni02A0;
unicode = 672;
}
{
glyphname = uni02A1;
layers = (
{
layerId = m01;
shapes = (
{
closed = 1;
nodes = (
(43,738,o),
(9,721,q),
(19,698,l),
(48,712,o),
(125,738,o),
(178,738,qs),
(256,738,o),
(346,650,o),
(346,566,qs),
(346,513,o),
(314,439,o),
(259,389,o),
(190,354,o),
(154,339,q),
(154,179,l),
(52,179,l),
(52,154,l),
(154,154,l),
(154,0,l),
(180,0,l),
(180,154,l),
(281,154,l),
(281,179,l),
(180,179,l),
(180,323,l),
(212,337,o),
(280,374,o),
(338,429,o),
(373,510,o),
(373,568,qs),
(373,660,o),
(270,763,o),
(179,763,qs),
(122,763,o)
);
}
);
width = 397;
}
);
note = uni02A1;
unicode = 673;
}
{
glyphname = uni02A2;
layers = (
{
layerId = m01;
shapes = (
{
closed = 1;
nodes = (
(24,660,o),
(24,568,qs),
(24,510,o),
(59,429,o),
(117,374,o),
(185,337,o),
(217,323,q),
(217,179,l),
(111,179,l),
(111,154,l),
(217,154,l),
(217,0,l),
(243,0,l),
(243,154,l),
(340,154,l),
(340,179,l),
(243,179,l),
(243,339,l),
(207,354,o),
(139,389,o),
(84,439,o),
(51,513,o),
(51,566,qs),
(51,650,o),
(141,738,o),
(219,738,qs),
(272,738,o),
(350,712,o),
(378,698,q),
(388,721,l),
(354,738,o),
(275,763,o),
(218,763,qs),
(127,763,o)
);
}
);
width = 397;
}
);
note = uni02A2;
unicode = 674;
}
{
glyphname = uni02A3;
layers = (
{
layerId = m01;
shapes = (
{
closed = 1;
nodes = (
(450,63,o),
(468,113,q),
(470,113,l),
(472,0,l),
(858,0,l),
(858,25,l),
(523,25,l),
(861,513,l),
(861,528,l),
(494,528,l),
(494,760,l),
(468,760,l),
(468,543,ls),
(468,512,o),
(469,448,o),
(470,414,q),
(468,414,l),
(452,467,o),
(363,538,o),
(291,538,qs),
(179,538,o),
(59,391,o),
(59,254,qs),
(59,126,o),
(169,-10,o),
(283,-10,qs),
(362,-10,o)
);
},
{
closed = 1;
nodes = (
(86,134,o),
(86,254,qs),
(86,384,o),
(192,513,o),
(291,513,qs),
(380,513,o),
(468,386,o),
(468,266,qs),
(468,263,ls),
(468,146,o),
(383,15,o),
(283,15,qs),
(183,15,o)
);
},
{
closed = 1;
nodes = (
(823,503,l),
(494,27,l),
(494,503,l)
);
}
);
width = 902;
}
);
note = uni02A3;
unicode = 675;
}
{
glyphname = uni02A4;
layers = (
{
layerId = m01;
shapes = (
{
closed = 1;
nodes = (
(871,-115,o),
(871,-14,qs),
(871,86,o),
(739,195,o),
(584,195,q),
(856,508,l),
(856,528,l),
(494,528,l),
(494,760,l),
(468,760,l),
(468,543,ls),
(468,512,o),
(469,448,o),
(470,414,q),
(468,414,l),
(452,467,o),
(363,538,o),
(291,538,qs),
(179,538,o),
(59,391,o),
(59,254,qs),
(59,126,o),
(169,-10,o),
(283,-10,qs),
(362,-10,o),
(450,63,o),
(468,113,q),
(470,113,l),
(472,0,l),
(494,0,l),
(494,503,l),
(815,503,l),
(549,192,l),
(549,170,l),
(587,170,ls),
(721,170,o),
(844,80,o),
(844,-14,qs),
(844,-105,o),
(740,-215,o),
(645,-215,qs),
(599,-215,o),
(517,-195,o),
(481,-178,q),
(481,-208,l),
(516,-223,o),
(595,-240,o),
(645,-240,qs),
(752,-240,o)
);
},
{
closed = 1;
nodes = (
(86,134,o),
(86,254,qs),
(86,384,o),
(192,513,o),
(291,513,qs),
(380,513,o),
(468,386,o),
(468,266,qs),
(468,263,ls),
(468,146,o),
(383,15,o),
(283,15,qs),
(183,15,o)
);
}
);
width = 902;
}
);
note = uni02A4;
unicode = 676;
}
{
glyphname = uni02A5;
layers = (
{
layerId = m01;
shapes = (
{
closed = 1;
nodes = (
(629,-61,o),
(646,-18,o),
(654,0,q),
(792,0,ls),
(876,0,o),
(955,62,o),
(955,112,qs),
(955,155,o),
(901,203,o),
(854,203,qs),
(782,203,o),
(676,106,o),
(636,25,q),
(521,25,l),
(862,508,l),
(862,528,l),
(494,528,l),
(494,760,l),
(468,760,l),
(468,543,ls),
(468,512,o),
(469,448,o),
(470,414,q),
(468,414,l),
(452,467,o),
(363,538,o),
(291,538,qs),
(179,538,o),
(59,391,o),
(59,254,qs),
(59,126,o),
(169,-10,o),
(283,-10,qs),
(362,-10,o),
(450,63,o),
(468,113,q),
(470,113,l),
(472,0,l),
(625,0,l),
(609,-35,o),
(595,-77,q),
(621,-84,l)
);
},
{
closed = 1;
nodes = (
(86,134,o),
(86,254,qs),
(86,384,o),
(192,513,o),
(291,513,qs),
(380,513,o),
(468,386,o),
(468,266,qs),
(468,263,ls),
(468,146,o),
(383,15,o),
(283,15,qs),
(183,15,o)
);
},
{
closed = 1;
nodes = (
(826,503,l),
(494,29,l),
(494,503,l)
);
},
{
closed = 1;
nodes = (
(700,94,o),
(793,178,o),
(852,178,qs),
(889,178,o),
(928,141,o),
(928,112,qs),
(928,77,o),
(866,25,o),
(789,25,qs),
(665,25,l)
);
}
);
width = 960;
}
);
note = uni02A5;
unicode = 677;
}
{
glyphname = uni02A6;
layers = (
{
layerId = m01;
shapes = (
{
closed = 1;
nodes = (
(609,0,o),
(700,80,o),
(700,147,qs),
(700,194,o),
(648,246,o),
(566,277,o),
(522,291,qs),
(482,304,o),
(413,327,o),
(372,368,o),
(372,407,qs),
(372,460,o),
(455,513,o),
(527,513,qs),
(567,513,o),
(648,497,o),
(676,483,q),
(687,508,l),
(656,521,o),
(574,538,o),
(527,538,qs),
(481,538,o),
(447,528,q),
(117,528,l),
(117,659,l),
(96,659,l),
(90,528,l),
(10,525,l),
(10,503,l),
(91,503,l),
(91,150,ls),
(91,80,o),
(142,0,o),
(212,0,qs),
(502,0,ls)
);
},
{
closed = 1;
nodes = (
(157,25,o),
(117,92,o),
(117,153,qs),
(117,503,l),
(394,503,l),
(345,469,o),
(345,407,qs),
(345,360,o),
(390,309,o),
(467,281,o),
(513,267,qs),
(557,254,o),
(630,225,o),
(673,182,o),
(673,147,qs),
(673,110,o),
(643,55,o),
(568,25,o),
(502,25,qs),
(212,25,ls)
);
}
);
width = 747;
}
);
note = uni02A6;
unicode = 678;
}
{
glyphname = uni02A7;
layers = (
{
layerId = m01;
shapes = (
{
closed = 1;
nodes = (
(328,738,o),
(425,738,qs),
(438,738,o),
(458,736,o),
(465,734,q),
(465,759,l),
(458,761,o),
(437,763,o),
(426,763,qs),
(366,763,o),
(302,689,o),
(302,624,qs),
(302,528,l),
(117,528,l),
(117,659,l),
(96,659,l),
(90,528,l),
(10,525,l),
(10,503,l),
(91,503,l),
(91,140,ls),
(91,70,o),
(145,-10,o),
(222,-10,qs),
(247,-10,o),
(283,-2,o),
(302,5,q),
(302,-93,ls),
(302,-215,o),
(210,-215,qs),
(191,-215,o),
(163,-209,o),
(150,-205,q),
(150,-231,l),
(173,-240,o),
(210,-240,qs),
(270,-240,o),
(328,-163,o),
(328,-96,qs),
(328,621,ls)
);
},
{
closed = 1;
nodes = (
(117,82,o),
(117,143,qs),
(117,503,l),
(302,503,l),
(302,29,l),
(283,22,o),
(245,15,o),
(222,15,qs),
(159,15,o)
);
}
);
width = 521;
}
);
note = uni02A7;
unicode = 679;
}
{
glyphname = uni02A8;
layers = (
{
layerId = m01;
shapes = (
{
closed = 1;
nodes = (
(373,42,o),
(407,73,q),
(472,-10,o),
(595,-10,qs),
(672,-10,o),
(748,53,o),
(748,100,qs),
(748,145,o),
(677,201,o),
(618,201,qs),
(552,201,o),
(450,147,o),
(413,112,q),
(399,137,o),
(379,212,o),
(379,261,qs),
(379,335,o),
(436,449,o),
(540,513,o),
(612,513,qs),
(641,513,o),
(700,503,o),
(730,489,q),
(735,514,l),
(707,526,o),
(648,538,o),
(612,538,qs),
(531,538,o),
(415,467,o),
(352,342,o),
(352,261,qs),
(352,160,o),
(393,93,q),
(356,59,o),
(275,15,o),
(222,15,qs),
(167,15,o),
(117,78,o),
(117,143,qs),
(117,503,l),
(289,503,l),
(289,528,l),
(117,528,l),
(117,659,l),
(96,659,l),
(90,528,l),
(10,525,l),
(10,503,l),
(91,503,l),
(91,140,ls),
(91,70,o),
(149,-10,o),
(222,-10,qs),
(284,-10,o)
);
},
{
closed = 1;
nodes = (
(455,53,o),
(426,91,q),
(461,126,o),
(559,176,o),
(616,176,qs),
(666,176,o),
(721,133,o),
(721,98,qs),
(721,65,o),
(660,15,o),
(595,15,qs),
(537,15,o)
);
}
);
width = 792;
}
);
note = uni02A8;
unicode = 680;
}
{
glyphname = uni02A9;
layers = (
{
layerId = m01;
shapes = (
{
closed = 1;
nodes = (
(704,-181,o),
(704,-120,qs),
(704,346,ls),
(704,444,o),
(610,538,o),
(524,538,qs),
(468,538,o),
(391,503,o),
(344,448,o),
(332,417,q),
(330,417,l),
(326,528,l),
(139,528,l),
(139,603,ls),
(139,677,o),
(193,740,o),
(257,740,qs),
(276,740,o),
(317,734,o),
(335,727,q),
(339,753,l),
(320,758,o),
(282,765,o),
(257,765,qs),
(180,765,o),
(113,681,o),
(113,603,qs),
(113,528,l),
(11,525,l),
(11,503,l),
(113,503,l),
(113,0,l),
(139,0,l),
(139,503,l),
(305,503,l),
(305,0,l),
(331,0,l),
(331,302,ls),
(331,410,o),
(438,513,o),
(524,513,qs),
(597,513,o),
(678,433,o),
(678,345,qs),
(678,-116,ls),
(678,-162,o),
(639,-215,o),
(599,-215,qs),
(584,-215,o),
(553,-211,o),
(538,-204,q),
(538,-230,l),
(550,-234,o),
(580,-240,o),
(599,-240,qs),
(642,-240,o)
);
}
);
width = 788;
}
);
note = uni02A9;
unicode = 681;
}
{
glyphname = uni02AA;
layers = (
{
layerId = m01;
shapes = (
{
closed = 1;
nodes = (
(582,67,o),
(582,134,qs),
(582,185,o),
(530,240,o),
(448,272,o),
(404,286,qs),
(364,299,o),
(295,323,o),
(254,366,o),
(254,407,qs),
(254,460,o),
(337,513,o),
(409,513,qs),
(449,513,o),
(530,497,o),
(558,483,q),
(569,508,l),
(538,521,o),
(456,538,o),
(409,538,qs),
(325,538,o),
(227,469,o),
(227,407,qs),
(227,358,o),
(272,305,o),
(349,276,o),
(395,262,qs),
(439,249,o),
(512,220,o),
(555,173,o),
(555,134,qs),
(555,79,o),
(472,15,o),
(372,15,qs),
(309,15,o),
(212,41,o),
(142,78,o),
(117,94,q),
(117,760,l),
(91,760,l),
(91,0,l),
(117,0,l),
(117,62,l),
(138,49,o),
(208,15,o),
(308,-10,o),
(372,-10,qs),
(480,-10,o)
);
}
);
width = 629;
}
);
note = uni02AA;
unicode = 682;
}
{
glyphname = uni02AB;
layers = (
{
layerId = m01;
shapes = (
{
closed = 1;
nodes = (
(482,25,l),
(147,25,l),
(485,513,l),
(485,528,l),
(117,528,l),
(117,760,l),
(91,760,l),
(91,0,l),
(482,0,l)
);
},
{
closed = 1;
nodes = (
(447,503,l),
(117,26,l),
(117,503,l)
);
}
);
width = 526;
}
);
note = uni02AB;
unicode = 683;
}
{
glyphname = uni02AC;
layers = (
{
layerId = m01;
shapes = (
{
closed = 1;
nodes = (
(364,411,l),
(264,714,l),
(239,714,l),
(132,411,l),
(40,714,l),
(13,714,l),
(117,380,l),
(146,380,l),
(251,681,l),
(349,380,l),
(380,380,l),
(478,714,l),
(453,714,l)
);
},
{
closed = 1;
nodes = (
(364,31,l),
(264,334,l),
(239,334,l),
(132,31,l),
(40,334,l),
(13,334,l),
(117,0,l),
(146,0,l),
(251,301,l),
(349,0,l),
(380,0,l),
(478,334,l),
(453,334,l)
);
}
);
width = 490;
}
);
note = uni02AC;
unicode = 684;
}
{
glyphname = uni02AD;
layers = (
{
layerId = m01;
shapes = (
{
closed = 1;
nodes = (
(111,481,l),
(111,689,l),
(479,689,l),
(479,481,l),
(505,481,l),
(505,714,l),
(85,714,l),
(85,481,l)
);
},
{
closed = 1;
nodes = (
(111,0,l),
(111,208,l),
(479,208,l),
(479,0,l),
(505,0,l),
(505,233,l),
(85,233,l),
(85,0,l)
);
}
);
width = 606;
}
);
note = uni02AD;
unicode = 685;
}
{
glyphname = uni02AE;
layers = (
{
layerId = m01;
shapes = (
{
closed = 1;
nodes = (
(-42,542,o),
(-51,540,q),
(-51,515,l),
(-43,517,o),
(-20,521,o),
(-4,521,qs),
(38,521,o),
(84,466,o),
(84,407,qs),
(84,182,ls),
(84,84,o),
(179,-10,o),
(264,-10,qs),
(320,-10,o),
(398,24,o),
(447,80,o),
(457,111,q),
(459,111,l),
(458,89,o),
(457,55,o),
(457,32,qs),
(457,-232,l),
(483,-232,l),
(483,528,l),
(457,528,l),
(457,226,ls),
(457,118,o),
(350,15,o),
(264,15,qs),
(191,15,o),
(110,95,o),
(110,183,qs),
(110,418,ls),
(110,479,o),
(52,546,o),
(-2,546,qs),
(-20,546,o)
);
}
);
width = 573;
}
);
note = uni02AE;
unicode = 686;
}
{
glyphname = uni02AF;
layers = (
{
layerId = m01;
shapes = (
{
closed = 1;
nodes = (
(-42,542,o),
(-51,540,q),
(-51,515,l),
(-43,517,o),
(-20,521,o),
(-4,521,qs),
(38,521,o),
(84,466,o),
(84,407,qs),
(84,182,ls),
(84,84,o),
(179,-10,o),
(264,-10,qs),
(320,-10,o),
(398,24,o),
(447,80,o),
(457,111,q),
(459,111,l),
(458,89,o),
(457,55,o),
(457,32,qs),
(457,-98,ls),
(457,-167,o),
(523,-237,o),
(584,-237,qs),
(602,-237,o),
(635,-231,o),
(645,-227,q),
(645,-202,l),
(635,-206,o),
(605,-212,o),
(585,-212,qs),
(539,-212,o),
(483,-157,o),
(483,-91,qs),
(483,528,l),
(457,528,l),
(457,226,ls),
(457,118,o),
(350,15,o),
(264,15,qs),
(191,15,o),
(110,95,o),
(110,183,qs),
(110,418,ls),
(110,479,o),
(52,546,o),
(-2,546,qs),
(-20,546,o)
);
}
);
width = 584;
}
);
note = uni02AF;
unicode = 687;
}
{
glyphname = uni02B0;
layers = (
{
layerId = m01;
shapes = (
{
closed = 1;
nodes = (
(59,743,l),
(59,287,l),
(75,287,l),
(75,468,ls),
(75,533,o),
(145,595,o),
(201,595,qs),
(248,595,o),
(301,547,o),
(301,494,qs),
(301,287,l),
(318,287,l),
(318,495,ls),
(318,554,o),
(256,610,o),
(201,610,qs),
(146,610,o),
(86,566,o),
(75,537,q),
(74,537,l),
(75,550,o),
(75,571,o),
(75,585,qs),
(75,743,l)
);
}
);
width = 372;
}
);
note = uni02B0;
unicode = 688;
}
{
glyphname = uni02B1;
layers = (
{
layerId = m01;
shapes = (
{
closed = 1;
nodes = (
(75,287,l),
(75,468,ls),
(75,533,o),
(145,595,o),
(201,595,qs),
(248,595,o),
(301,547,o),
(301,494,qs),
(301,287,l),
(318,287,l),
(318,495,ls),
(318,554,o),
(256,610,o),
(201,610,qs),
(146,610,o),
(86,566,o),
(75,537,q),
(74,537,l),
(75,550,o),
(75,571,o),
(75,585,qs),
(75,671,ls),
(75,699,o),
(101,730,o),
(127,730,qs),
(137,730,o),
(157,728,o),
(166,724,q),
(166,739,l),
(149,745,o),
(127,745,qs),
(99,745,o),
(59,710,o),
(59,673,qs),
(59,287,l)
);
}
);
width = 372;
}
);
note = uni02B1;
unicode = 689;
}
{
glyphname = uni02B2;
layers = (
{
layerId = m01;
shapes = (
{
closed = 1;
nodes = (
(57,682,o),
(67,682,qs),
(79,682,o),
(85,693,o),
(85,701,qs),
(85,708,o),
(79,720,o),
(67,720,qs),
(57,720,o),
(51,708,o),
(51,701,qs),
(51,693,o)
);
},
{
closed = 1;
nodes = (
(75,179,o),
(75,215,qs),
(75,604,l),
(59,604,l),
(59,217,ls),
(59,190,o),
(33,158,o),
(7,158,qs),
(-3,158,o),
(-23,161,o),
(-32,165,q),
(-32,149,l),
(-15,143,o),
(7,143,qs),
(35,143,o)
);
}
);
width = 135;
}
);
note = uni02B2;
unicode = 690;
}
{
glyphname = uni02B3;
layers = (
{
layerId = m01;
shapes = (
{
closed = 1;
nodes = (
(87,571,o),
(77,543,q),
(76,543,l),
(75,604,l),
(59,604,l),
(59,287,l),
(76,287,l),
(76,465,ls),
(76,524,o),
(127,594,o),
(181,594,qs),
(206,594,o),
(229,588,q),
(233,602,l),
(222,605,o),
(196,609,o),
(181,609,qs),
(139,609,o)
);
}
);
width = 244;
}
);
note = uni02B3;
unicode = 691;
}
{
glyphname = uni02B4;
layers = (
{
layerId = m01;
shapes = (
{
closed = 1;
nodes = (
(157,320,o),
(166,348,q),
(168,348,l),
(169,287,l),
(185,287,l),
(185,604,l),
(168,604,l),
(168,426,ls),
(168,367,o),
(117,297,o),
(63,297,qs),
(38,297,o),
(14,303,q),
(10,289,l),
(22,286,o),
(47,282,o),
(63,282,qs),
(104,282,o)
);
}
);
width = 244;
}
);
note = uni02B4;
unicode = 692;
}
{
glyphname = uni02B5;
layers = (
{
layerId = m01;
shapes = (
{
closed = 1;
nodes = (
(284,149,o),
(290,151,q),
(290,166,l),
(284,164,o),
(264,160,o),
(251,160,qs),
(221,160,o),
(185,193,o),
(185,232,qs),
(185,604,l),
(168,604,l),
(168,426,ls),
(168,367,o),
(117,297,o),
(63,297,qs),
(38,297,o),
(14,303,q),
(10,289,l),
(22,286,o),
(47,282,o),
(63,282,qs),
(104,282,o),
(157,320,o),
(166,348,q),
(168,348,l),
(168,228,ls),
(168,187,o),
(211,145,o),
(250,145,qs),
(262,145,o)
);
}
);
width = 244;
}
);
note = uni02B5;
unicode = 693;
}
{
glyphname = uni02B6;
layers = (
{
layerId = m01;
shapes = (
{
closed = 1;
nodes = (
(142,287,ls),
(208,287,o),
(268,332,o),
(268,374,qs),
(268,413,o),
(220,459,o),
(188,465,q),
(290,609,l),
(269,609,l),
(170,466,l),
(71,466,l),
(71,609,l),
(54,609,l),
(54,287,l)
);
},
{
closed = 1;
nodes = (
(252,407,o),
(252,375,qs),
(252,337,o),
(198,302,o),
(139,302,qs),
(71,302,l),
(71,451,l),
(161,451,ls),
(205,451,o)
);
}
);
width = 302;
}
);
note = uni02B6;
unicode = 694;
}
{
glyphname = uni02B7;
layers = (
{
layerId = m01;
shapes = (
{
closed = 1;
nodes = (
(343,286,l),
(435,603,l),
(418,603,l),
(354,381,ls),
(346,355,o),
(338,326,o),
(336,312,q),
(335,312,l),
(328,337,o),
(313,381,qs),
(235,603,l),
(222,603,l),
(140,381,ls),
(131,353,o),
(122,326,o),
(118,312,q),
(117,312,l),
(114,326,o),
(106,353,o),
(98,381,qs),
(29,603,l),
(10,603,l),
(110,286,l),
(124,286,l),
(208,520,ls),
(218,546,o),
(227,576,q),
(228,576,l),
(233,560,o),
(242,536,o),
(247,520,qs),
(329,286,l)
);
}
);
width = 445;
}
);
note = uni02B7;
unicode = 695;
}
{
glyphname = uni02B8;
layers = (
{
layerId = m01;
shapes = (
{
closed = 1;
nodes = (
(104,226,ls),
(88,188,o),
(56,156,o),
(31,156,qs),
(21,156,o),
(5,160,o),
(-4,163,q),
(-4,147,l),
(14,141,o),
(31,141,qs),
(63,141,o),
(102,179,o),
(118,218,qs),
(280,604,l),
(262,604,l),
(172,388,ls),
(160,361,o),
(145,322,o),
(140,309,q),
(139,309,l),
(134,322,o),
(118,361,o),
(107,390,qs),
(18,604,l),
(0,604,l),
(131,291,l)
);
}
);
width = 278;
}
);
note = uni02B8;
unicode = 696;
}
{
glyphname = uni02BE;
layers = (
{
layerId = m01;
shapes = (
{
closed = 1;
nodes = (
(73,765,o),
(118,721,o),
(118,680,qs),
(118,640,o),
(68,595,o),
(30,595,q),
(30,575,l),
(79,575,o),
(139,631,o),
(139,680,qs),
(139,730,o),
(79,786,o),
(30,786,q),
(30,765,l)
);
}
);
width = 169;
}
);
note = uni02BE;
unicode = 702;
}
{
glyphname = uni02BF;
layers = (
{
layerId = m01;
shapes = (
{
closed = 1;
nodes = (
(96,596,o),
(51,641,o),
(51,681,qs),
(51,722,o),
(102,766,o),
(139,766,q),
(139,786,l),
(90,786,o),
(30,731,o),
(30,681,qs),
(30,631,o),
(90,575,o),
(139,575,q),
(139,596,l)
);
}
);
width = 169;
}
);
note = uni02BF;
unicode = 703;
}
{
glyphname = uni02C0;
layers = (
{
layerId = m01;
shapes = (
{
closed = 1;
nodes = (
(129,464,l),
(129,522,l),
(198,534,o),
(268,599,o),
(268,648,qs),
(268,699,o),
(200,766,o),
(131,766,qs),
(94,766,o),
(28,747,o),
(5,733,q),
(16,710,l),
(36,724,o),
(94,742,o),
(129,742,qs),
(189,742,o),
(242,686,o),
(242,649,qs),
(242,606,o),
(171,549,o),
(106,542,q),
(106,464,l)
);
}
);
width = 289;
}
);
note = uni02C0;
unicode = 704;
}
{
glyphname = uni02C1;
layers = (
{
layerId = m01;
shapes = (
{
closed = 1;
nodes = (
(47,606,o),
(47,649,qs),
(47,686,o),
(100,742,o),
(160,742,qs),
(195,742,o),
(253,724,o),
(273,710,q),
(284,733,l),
(262,747,o),
(196,766,o),
(158,766,qs),
(89,766,o),
(21,699,o),
(21,648,qs),
(21,599,o),
(91,534,o),
(160,522,q),
(160,464,l),
(183,464,l),
(183,542,l),
(118,549,o)
);
}
);
width = 289;
}
);
note = uni02C1;
unicode = 705;
}
{
glyphname = uni02C2;
layers = (
{
layerId = m01;
shapes = (
{
closed = 1;
nodes = (
(46,663,l),
(257,762,l),
(257,775,l),
(28,668,l),
(28,659,l),
(257,551,l),
(257,564,l)
);
}
);
width = 285;
}
);
note = uni02C2;
unicode = 706;
}
{
glyphname = uni02C3;
layers = (
{
layerId = m01;
shapes = (
{
closed = 1;
nodes = (
(257,659,l),
(257,668,l),
(28,775,l),
(28,762,l),
(240,663,l),
(28,564,l),
(28,551,l)
);
}
);
width = 285;
}
);
note = uni02C3;
unicode = 707;
}
{
glyphname = uni02C4;
layers = (
{
layerId = m01;
shapes = (
{
closed = 1;
nodes = (
(144,738,l),
(237,549,l),
(264,549,l),
(148,778,l),
(139,778,l),
(26,549,l),
(51,549,l)
);
}
);
width = 287;
}
);
note = uni02C4;
unicode = 708;
}
{
glyphname = uni02C5;
layers = (
{
layerId = m01;
shapes = (
{
closed = 1;
nodes = (
(147,589,l),
(54,778,l),
(27,778,l),
(143,549,l),
(152,549,l),
(265,778,l),
(240,778,l)
);
}
);
width = 287;
}
);
note = uni02C5;
unicode = 709;
}
{
glyphname = circumflex;
layers = (
{
layerId = m01;
shapes = (
{
closed = 1;
nodes = (
(144,743,o),
(103,688,o),
(59,633,o),
(40,612,q),
(40,606,l),
(61,606,l),
(89,634,o),
(146,703,o),
(167,731,q),
(188,703,o),
(243,634,o),
(271,606,q),
(292,606,l),
(292,612,l),
(274,633,o),
(230,688,o),
(190,743,o),
(178,763,q),
(156,763,l)
);
}
);
width = 332;
}
);
note = circumflex;
unicode = 710;
}
{
glyphname = caron;
layers = (
{
layerId = m01;
shapes = (
{
closed = 1;
nodes = (
(188,627,o),
(229,682,o),
(274,737,o),
(292,757,q),
(292,763,l),
(271,763,l),
(243,735,o),
(186,667,o),
(165,638,q),
(144,667,o),
(89,735,o),
(61,763,q),
(40,763,l),
(40,757,l),
(59,737,o),
(102,682,o),
(142,627,o),
(154,606,q),
(176,606,l)
);
}
);
width = 332;
}
);
note = caron;
unicode = 711;
}
{
glyphname = uni02C8;
layers = (
{
layerId = m01;
shapes = (
{
closed = 1;
nodes = (
(40,496,l),
(64,496,l),
(64,760,l),
(40,760,l)
);
}
);
width = 104;
}
);
note = uni02C8;
unicode = 712;
}
{
glyphname = macronmod;
layers = (
{
layerId = m01;
shapes = (
{
closed = 1;
nodes = (
(40,614,l),
(295,614,l),
(295,638,l),
(40,638,l)
);
}
);
width = 335;
}
);
note = macronmod;
unicode = 713;
}
{
glyphname = uni02CC;
layers = (
{
layerId = m01;
shapes = (
{
closed = 1;
nodes = (
(40,-204,l),
(64,-204,l),
(64,60,l),
(40,60,l)
);
}
);
width = 104;
}
);
note = uni02CC;
unicode = 716;
}
{
glyphname = uni02D0;
layers = (
{
layerId = m01;
shapes = (
{
closed = 1;
nodes = (
(85,536,l),
(174,397,l),
(263,536,l)
);
},
{
closed = 1;
nodes = (
(174,139,l),
(85,0,l),
(263,0,l)
);
}
);
width = 346;
}
);
note = uni02D0;
unicode = 720;
}
{
glyphname = uni02D1;
layers = (
{
layerId = m01;
shapes = (
{
closed = 1;
nodes = (
(85,536,l),
(174,397,l),
(263,536,l)
);
}
);
width = 346;
}
);
note = uni02D1;
unicode = 721;
}
{
glyphname = uni02D7;
layers = (
{
layerId = m01;
shapes = (
{
closed = 1;
nodes = (
(35,305,l),
(35,273,l),
(275,273,l),
(275,305,l)
);
}
);
width = 310;
}
);
note = uni02D7;
unicode = 727;
}
{
glyphname = breve;
layers = (
{
layerId = m01;
shapes = (
{
closed = 1;
nodes = (
(256,678,o),
(211,630,o),
(162,630,qs),
(116,630,o),
(69,678,o),
(65,718,q),
(40,718,l),
(45,663,o),
(108,606,o),
(162,606,qs),
(271,606,o),
(285,718,q),
(260,718,l)
);
}
);
width = 325;
}
);
note = breve;
unicode = 728;
}
{
glyphname = dotaccent;
layers = (
{
layerId = m01;
shapes = (
{
closed = 1;
nodes = (
(40,702,o),
(40,690,qs),
(40,677,o),
(50,659,o),
(65,659,qs),
(83,659,o),
(92,677,o),
(92,690,qs),
(92,702,o),
(83,721,o),
(65,721,qs),
(50,721,o)
);
}
);
width = 132;
}
);
note = dotaccent;
unicode = 729;
}
{
glyphname = ring;
layers = (
{
layerId = m01;
shapes = (
{
closed = 1;
nodes = (
(241,667,o),
(241,711,qs),
(241,752,o),
(182,811,o),
(141,811,qs),
(100,811,o),
(40,754,o),
(40,711,qs),
(40,666,o),
(101,611,o),
(141,611,qs),
(182,611,o)
);
},
{
closed = 1;
nodes = (
(64,680,o),
(64,711,qs),
(64,743,o),
(108,787,o),
(141,787,qs),
(172,787,o),
(217,743,o),
(217,711,qs),
(217,680,o),
(175,635,o),
(141,635,qs),
(107,635,o)
);
}
);
width = 281;
}
);
note = ring;
unicode = 730;
}
{
glyphname = ogonek;
layers = (
{
layerId = m01;
shapes = (
{
closed = 1;
nodes = (
(124,-27,o),
(158,0,q),
(140,11,l),
(88,-28,o),
(40,-99,o),
(40,-135,qs),
(40,-176,o),
(88,-217,o),
(122,-217,qs),
(138,-217,o),
(164,-212,o),
(172,-209,q),
(172,-185,l),
(153,-192,o),
(124,-192,qs),
(66,-192,o),
(66,-131,qs),
(66,-93,o)
);
}
);
width = 212;
}
);
note = ogonek;
unicode = 731;
}
{
glyphname = tilde;
layers = (
{
layerId = m01;
shapes = (
{
closed = 1;
nodes = (
(70,663,o),
(107,692,o),
(127,692,qs),
(149,692,o),
(181,669,o),
(212,640,o),
(249,617,o),
(274,617,qs),
(312,617,o),
(361,667,o),
(365,716,q),
(340,716,l),
(336,670,o),
(297,641,o),
(275,641,qs),
(255,641,o),
(222,664,o),
(191,693,o),
(154,716,o),
(129,716,qs),
(91,716,o),
(44,668,o),
(40,618,q),
(65,618,l)
);
}
);
width = 405;
}
);
note = tilde;
unicode = 732;
}
